<?xml version="1.0" encoding="utf-8"?>
<svg version="1.1" id="Layer_1" xmlns="http://www.w3.org/2000/svg" xmlns:xlink="http://www.w3.org/1999/xlink" x="0px" y="0px"
	 viewBox="0 0 2024.43 1585.464" enable-background="new 0 0 2024.43 1585.464" xml:space="preserve">
<g>
	<path d="M993.367,192.87c-3.348,63.878-5.814,59.724,6.279,58.834c35.537-2.615,38.224,6.56,40.791-4.67
		c4.797-20.988,2.21-72.542,23.976-115.824c12.662-25.179,19.676-38.458,37.218-47.485c2.442-1.256,6.002,0.376,2.591,3.713
		c-38.218,37.392-46.804,89.512-51.648,135.684c-5.02,47.85-7.283,37.12-2.134,56.13c3.155,11.646,14.084-0.212,23.387,26.558
		c20.792,59.829-5.519,77.302,18.398,95.125c5.869,4.374,39.104-1.541,57.542-30.407c35.364-55.364,85.916-85.511,119.3-109.322
		c50.159-35.777,132.602-94.323,185.942-124.248c248.241-139.266,370.463-111.461,451.505-97.04
		c48.225,8.582,79.012,38.828,85.704,59.673c17.024,53.028-38.718,67.964-23.758,111.569c7.022,20.466,3.689,34.978-15.508,47.918
		c-29.524,19.9-6.018,45.885-28.818,74.267c-9.046,11.259-21.265,17.492-17.264,37.991c8.708,44.612-39.341,47.834-47.859,96.583
		c-7.303,41.796-34.043,60.335-35.016,61.341c-26.433,27.345-1.647,36.437-34.364,53.651c-6.214,3.269-12.9,5.547-19.955,7.375
		c-8.671,2.247-17.035,6.92-25.781,9.785c-35.432,11.603-53.662,8.115-99.378-12.664c-26.716-12.144-63.787,3.254-49.53,29.162
		c14.871,27.023,33.684,50.943,57.952,70.088c19.98,15.763,29.39,47.544,12.952,70.99c-16.798,23.96-17.237,44.496-11.044,71.002
		c2.282,9.764,6.64,34.847-2.156,39.68c-0.994,0.546-4.592,4.611,1.54,2.57c1.136-0.378,0.404,2.802-0.078,4.081
		c-12.973,34.394-47.022,39.677-41.071,95.135c2.408,22.443-7.277,40.039-24.008,54.007c-13.121,10.954-27.053,21.382-43.102,27.147
		c-36.554,13.13,13.888,70.212-67.78,93.021c-21.027,5.873-30.664,25.148-26.103,46.038
		c15.699,71.908,28.974,190.785,31.147,206.703c5.526,40.496,40.76,28.461,64.936,82.338c33.036,73.62-33.553,94.415-70.655,64.576
		c-17.962-14.448-22.846-38.953-23.588-60.81c-0.471-13.883,2.858-27.714,0.69-41.552c-2.137-13.635-8.893-25.79-14.678-38.128
		c-8.426-17.973-7.929-32.351-7.582-51.38c0.268-14.677-1.635-30.786-16.294-38.086c-10.223-5.091-20.979-36.472-21.344-51.94
		c-0.596-25.283-51.635-30.797-53.135,5.138c-0.281,6.726-7.142,9.453-11.29,13.527c-2.783,2.734-7.522,3.861-11.595,4.826
		c-21.031,4.985-25.335-23.568-44.544-27.871c-23.597-5.287-26.651,11.628-47.841,12.894c-15.07,0.9-37.61-10.576-38.478-32.994
		c-1.189-30.686,8.274-59.274,12.218-88.885c4.339-32.58,17.334-67.135-20.751-84.158c-6.581-2.942-11.475-6.795-14.581-13.608
		c-9.918-21.75-12.872-44.677-9.702-67.909c6.788-49.755,3.937-20.956,13.815-58.293c9.208-34.805,6.426-36.139,3.79-85.963
		c-0.819-15.481,5.473-29.486,7.354-44.548c4.708-37.695-5.775-78.581-10.873-115.8c-8.964-65.444-83.433-89.543-84.448-55.707
		c-4.12,137.399,29.951,130.458-104.367,126.986c-37.681-0.974-24.244-37.416-27.374-95.297
		c-0.583-10.785,5.957-52.097-20.214-46.885c-26.313,5.24-45.166,20.32-57.133,44.311c-10.666,21.384-21.943,117.871-13.001,155.305
		c10.909,45.667-0.937,77.55,7.302,109.443c7.742,29.966,22.385,52.343,18.455,104.829c-1.244,16.611-5.563,37.907-21.34,43.453
		c-6.92,2.433-12.301,7.228-17.852,11.839c-18.845,15.654-4.817,54.249-1.67,70.53c3.582,18.529,5.273,36.412,10.814,54.924
		c18.239,60.932-22.665,78.358-41.028,68.372c-36.475-19.836-50.83-11.926-65.058,7.722c-8.745,12.077-33.631,10.759-39.178-4.484
		c-2.509-6.896-4.875-13.975-10.44-19.554c-13.562-13.595-42.118-13.468-47.596,1.885c-2.935,8.228-6.744,16.364-6.725,25.358
		c0.091,44.022-39.897,34.384-37.459,107.504c0.995,29.825-10.023,24.531-14.084,62.985c-2.391,22.634-3.301,45.367-4.674,68.072
		c-3.217,53.18-116.031,70.379-89.905-29.368c10.714-40.906,44.414-45.415,55.843-65.389c10.793-18.862,8.32-17.658,16.571-96.274
		c15.158-144.424,41.663-169.776-4.496-184.306c-30.351-9.553-50.272-17.543-53.886-49.268
		c-1.944-17.065,1.513-34.408-20.261-44.561c-115.994-54.088-33.766-92.1-87.835-143.671
		c-61.908-59.049,8.035-94.914-38.766-155.312c-11.044-14.253-9.97-39.022,2.228-53.777c7.813-9.45,49.166-40.101,69.987-85.783
		c9.55-20.954-17.085-42.574-55.729-27.866c-47.049,17.908-54.964,31.116-108.95,8.924c-16.345-6.719-50.729-16.796-52.37-37.294
		c-2.914-36.404-42.305-21.377-57.883-105.51c-2.507-13.538-22.385-30.822-33.134-39.592c-31.659-25.83-7.989-46.326-16.332-62.172
		c-2.518-4.783-6.583-8.525-10.203-12.54c-23.429-25.978-13.235-63.451-38.52-86.581c-11.435-10.46-20.85-14.676-19.588-32.849
		c0.665-9.577,3.719-18.849,4.649-28.404c2.588-26.587-21.381-43.678-24.026-68.323C19.877,31.03,160.177,18.347,248.887,23.697
		c145.447,8.77,301.59,90.944,421.731,173.416c1.193,0.819,139.526,96.609,156.289,110.847
		c57.462,48.804,57.162,89.563,106.282,94.581c7.466,0.763,16.432-7.272,16.68-15.39c0.359-11.723,0.602-23.437-0.019-35.205
		c-1.146-21.718,5.68-58.012,19.92-64.864c20.774-9.997,10.467-45.894,13.36-79.849c4.897-57.454,4.372-78.379-4.798-100.595
		c-2.992-7.249-3.66-15.359-8.445-21.997c-1.026-1.424-2.032-4.326,0.693-5.596c2.036-0.948,3.091,0.995,4.463,2.348
		c8.288,8.178,10.342,19.329,14.433,29.51c9.007,22.413,5.814,42.749,3.759,81.961C993.28,192.865,993.323,192.868,993.367,192.87z
		 M823.641,384.411c-30.214-43.336-50.097-65.372-178.48-146.534c-92.418-58.426-167.014-74.96-187.953-74.916
		c-17.377,0.036-22.999,15.721-17.715,27.378c18.166,40.069,102.706,95.451,140.052,118.297
		c26.968,16.5,28.853,20.739,184.371,93.996C811.221,424.914,837.306,404.01,823.641,384.411z M362.754,508.56
		c-4.346,10.774,27.729,44.784,63.82,39.279c137.828-21.025,278.294,47.021,376.7,80.02c15.932,5.343,29.278-11.362,17.922-25.328
		c-16.262-20-80.312-73.666-106.817-82.044c-36.474-11.529-33.9-18.44-175.308-48.188
		C471.449,458.074,388.806,443.986,362.754,508.56z M1232.687,415.472c11.716,1.388,23.432-3.242,34.231-9.437
		c34.483-19.78,98.705-47.707,106.871-51.629c106.055-50.938,223.737-134.763,216.344-171.872
		c-10.431-52.355-276.513,91.782-343.134,159.5c-13.342,13.562-24.965,28.323-36.141,43.518c-6.021,8.187-3.997,19.467,3.871,25.711
		C1219.534,415.074,1225.547,415.035,1232.687,415.472z M748.934,496.32c14.598-0.025,34.317-20.862,10.386-45.192
		c-63.075-64.126-77.026-75.634-213.759-122.396c-61.336-20.976-87.826-33.34-110.673-17.38
		c-22.925,16.014-29.03,53.768-10.646,70.946c44.858,41.917,143.905,42.847,266.084,99.933
		C708.817,490.872,745.844,496.325,748.934,496.32z M1505.548,476.825c-65.25,12.083-130.951,26.951-192.016,53.922
		c-44.242,19.54-99.777,68.461-101.594,81.075c-7.166,49.764,92.506-23.578,253.194-57.304c44.97-9.439,87.409-7.98,151.725-3.079
		c5.929,0.452,11.374,1.786,16.828-2.078c7.641-5.413,15.293-10.75,22.282-17.026c27.127-24.359,2.527-56.405-40.207-62.683
		C1563.153,461.924,1541.87,470.099,1505.548,476.825z M1617.956,357.859c3.442-26.109-25.279-46.468-46.233-44.651
		c-28.682,2.487-42.996,8.882-109.842,32.303c-45.226,15.846-104.105,20.412-190.792,112.663
		c-9.493,10.102-8.178,29.617,5.169,36.463c15.34,7.868,42.899-3.221,57.435-8.906c95.046-37.176,228.188-71.489,261.054-90.807
		C1608.64,386.758,1616.52,375.914,1617.956,357.859z M358.28,167.575c23.302-9.519,14.535-27.431,13.951-39.645
		c-0.215-4.493-2.142-8.019-5.805-9.929c-12.715-6.63-37.283-30.096-132.821-39.2c-51.599-4.914-118.894,10.121-131.631,17.763
		c-46.396,27.837,4.956,57.489,33.361,62.584c39.764,7.132,79.862,12.399,120.118,15.779
		C290.668,177.885,324.767,181.264,358.28,167.575z M1652.562,149.839c-2.05,11.195,2.367,18.34,11.355,23.101
		c29.307,15.524,51.815,15.637,109.045,10.662c32.899-2.859,112.553-13.442,136.867-20.184
		c16.258-4.508,26.911-14.503,31.416-30.877c8.238-29.938-46.701-36.424-65.176-38.43c-79.906-8.676-65.337-6.19-120.056-0.168
		c-19.402,2.135-37.185,9.017-55.646,13.816C1685.924,111.515,1651.101,130.443,1652.562,149.839z M526.356,577.681
		c-51.934,10.8-44.617,62.13-15.664,75.448c33.232,15.287,129.841,14.977,174.838,30.462c20.862,7.179,42.106,12.856,63.441,18.27
		c13.441,3.41,27.506-9.431,25.361-22.905c-1.684-10.578-6.443-10.872-55.55-48.894c-20.667-16.002-75.246-32.818-91.954-37.537
		C585.959,580.982,555.634,571.592,526.356,577.681z M678.896,1223.542c7.065,3.638,46.977-7.006,41.866-43.821
		c-10.135-73.005,6.195-154.693,59.692-209.59c12.468-12.794,28.868-19.413,16.539-30.774c-22.379-20.622-62.809-2.454-81.055,25.25
		c-15.298,23.227-42.342,52.413-59.318,99.739c-23.442,65.352-9.925,122.277-9.877,127.833
		C646.858,1205.443,664.141,1224.822,678.896,1223.542z M1543.835,624.663c1.586-23.574-7.025-32.932-22.434-37.443
		c-46.297-13.553-148.635-0.508-251.017,82.164c-16.909,13.654-0.186,36.494,23.669,31.609c8.29-1.698,34.755-15.043,179.124-35.59
		c13.387-1.905,26.504-5.102,39.94-6.707C1529.626,656.725,1544.166,643.529,1543.835,624.663z M338.994,272.204
		c7.121-3.442,19.99-7.979,18.187-18.049c40.092-73.232-238.335-90.464-242.195-10.01c-1.542,32.134,50.262,33.746,70.442,36.189
		C237.049,286.586,293.081,294.395,338.994,272.204z M1395.297,1132.522c-0.965-14.637-4.419-29.528-4.42-44.292
		c-2.82-30.788-18.683-59.444-35.996-84.397c-15.469-22.294-34.33-51.209-59.014-63.88c-12.594-6.465-25.592-12.499-40.457-6.367
		c-16.497,6.806-16.628,17.733-4.495,27.4c38.241,30.469,57.367,66.374,67.902,109.127
		c25.816,104.763-10.779,125.587,24.278,147.039c15.704,9.61,43.736,5.243,50.269-14.116
		C1396.673,1193.235,1395.895,1141.591,1395.297,1132.522z M1820.889,434.113c37.282,0.476,40.995-11.299,51.509-31.042
		c6.739-12.656-5.245-32.61-18.451-41.423c-36.863-24.6-120.393-43.463-126.988-45.186c-63.735-16.648-101.384,33.837-63.081,61.151
		C1688.161,394.929,1797.641,431.799,1820.889,434.113z M1889.441,277.637c28.532-7.094,24.686-48.014,10.892-53.164
		c-8.49-3.17-16.65-7.341-25.451-9.595c-30.755-7.877-66.592-14.93-107.512-12.143c-2.902,0.198-53.052,7.156-86.847,24.875
		c-15.925,8.349-18.66,30.838-5.037,41.101c11.536,8.691,24.973,14.202,38.546,18.611
		C1735.783,294.388,1814.245,296.333,1889.441,277.637z M267.239,412.332c98.783-33.375,114.38-45.112,111.607-72.244
		c-2.056-20.123-13.073-24.578-29.396-29.572c-11.239-3.439-22.531-3.866-34.112-1.446c-19.906,4.158-39.908,8.116-59.154,14.632
		c-32.399,10.97-127.936,32.717-92.829,86.54C184.651,442.889,233.04,423.887,267.239,412.332z M460.533,692.267
		c-19.133,14.125-31.234,25.422-30.147,50.029c0.181,4.086-2.06,19.321,29.626,30.793c27.134,9.824,43.282,5.554,79.976-0.367
		c32.999-5.325,21.603-2.04,99.445,9.715c13.267,2.003,25.228-13.906,18.592-26.118c-7.081-13.031-16.781-23.287-29.467-30.523
		C582.723,699.653,503.132,660.817,460.533,692.267z M1458.85,702.259c-16.143,4.949-29.299,15.405-43.889,23.219
		c-36.904,19.762-47.465,62.904-12.708,58.024c100.117-14.055,43.115-14.436,132.662-2.914
		c29.756,3.829,62.682-12.597,66.102-25.288c3.077-11.415,2.582-23.714-2.823-33.669
		C1566.193,662.68,1503.51,688.567,1458.85,702.259z M752.206,1186.188c6.711,54.141,41.773,55.793,55.079,32.866
		c9.667-16.656,4.148-26.232,7.219-71.051c10.4-151.777,66.589-160.214,31.367-181.146c-6.44-3.827-13.546-3.598-20.312,1.28
		c-29.19,21.046-55.834,58.701-68.6,116.36C750.147,1115.268,748.559,1156.763,752.206,1186.188z M1292.396,1122.79
		c-6.884-69.776-28.862-111.734-66.2-148.152c-14.916-14.549-32.326-12.817-37.773,6.191c-5.045,17.606,1.503,15.117,5.836,22.161
		c17.137,27.862,27.957,70.619,29.644,89.501c1.808,20.237,7.39,40.227,8.252,60.518c0.914,21.506-5.06,72.851,25.267,76.888
		C1296.792,1235.138,1296.32,1162.558,1292.396,1122.79z M579.817,1108.467c6.42,6.355,26.684,8.069,32.774,1.352
		c6.157-6.789,12.08-13.587,13.647-23.019c3.213-19.341,6.948-73.506,42.066-125.947c29.161-43.546,57.14-29.501,60.267-59.935
		c1.2-11.68-9.639-21.861-21.227-19.816c-29.332,5.177-97.88,67.114-113.765,91.628c-13.267,20.473-22.651,42.666-28.333,66.418
		C563.248,1047.504,548.334,1077.301,579.817,1108.467z M1430.841,954.305c-20.275-18.154-43.441-32.956-63.488-51.056
		c-8.978-8.107-19.212-14.387-30.2-19.083c-19.958-8.529-33.374,23.676-10.191,37.408c8.574,5.079,33.887,14.342,54.552,49.033
		c40.927,68.706,25.511,114.945,49.76,136.98c2.734,2.485,5.777,5.272,9.821,4.848
		C1514.706,1104.71,1462.777,982.902,1430.841,954.305z M479.042,980.251c0.024,1.874,0.508,3.542,1.745,5.174
		c4.583,6.046,7.497,12.775,15.714,16.372c7.191,3.148,13.598,6.193,21.365,4.382c16.45-3.835,25.649-15.039,30.612-30.498
		c11.157-34.754,25.886-41.945,62.37-73.455c10.828-9.352,17.397-8.192,31.603-11.458c14.621-3.362,24.1-17.214,11.754-25.916
		c-16.646-11.732-30.595-10.691-83.379-2.144c-16.811,2.722-33.849,6.851-67.751,40.085
		C470.616,934.612,478.913,970.249,479.042,980.251z M434.792,868.419c-0.072,10.203,15.453,24.037,22.184,24.624
		c13.793,1.203,27.234,0.3,38.857-8.556c8.564-6.525,44.706-39.489,103.456-50.814c9.563-1.843,75.473-1.969,53.315-27.253
		c-3.597-4.104-8.863-6.289-14.003-8.121c-71.26-25.398-120.829-1.944-151.285,7.693c-11.928,3.774-23.448,8.668-33.241,17.034
		C431.334,842.457,434.888,854.885,434.792,868.419z M1558.509,952.141c-4.069-26.57-11.681-40.469-44.748-66.906
		c-28.065-22.438-82.45-34.428-117.462-24.767c-10.185,2.81-12.211,6.096-12.544,17.447c-0.217,7.398,1.574,9.44,11.131,13.165
		c19.724,7.688,16.248-9.205,63.498,35.077c15.479,14.507,28.543,29.183,34.878,49.968c10.135,33.256,40.696,40.307,59.244,17.826
		C1560.603,984.139,1560.492,965.092,1558.509,952.141z M1599.611,867.33c2.135-16.013-2.787-28.843-14.969-38.84
		c-39.397-32.328-90.954-38.201-139.75-38.361c-16.487-0.054-33.286,4.485-49.165,10.528c-15.813,6.018-16.746,27.318,3.684,28.008
		c93.781,3.166,136.259,54.483,157.523,62.565C1573.837,897.655,1599.821,892.242,1599.611,867.33z M253.973,469.222
		c-14.804,9.819-38.326,49.789,7.598,55.347C355.2,535.9,306.262,434.54,253.973,469.222z M1786.934,519.569
		c10.6-10.068,9.702-30.741-1.264-40.47c-37.483-33.255-94.052,19.676-56.789,41.732
		C1737.209,525.76,1772.746,533.045,1786.934,519.569z"/>
</g>
</svg>
