<?xml version="1.0" encoding="utf-8"?>

<!DOCTYPE svg PUBLIC "-//W3C//DTD SVG 1.1//EN" "http://www.w3.org/Graphics/SVG/1.1/DTD/svg11.dtd">
<svg version="1.1" id="Layer_1" xmlns="http://www.w3.org/2000/svg" xmlns:xlink="http://www.w3.org/1999/xlink" x="0px" y="0px"
	 viewBox="0 0 1680.2489 1675.4878" enable-background="new 0 0 1680.2489 1675.4878" xml:space="preserve">
<g>
	<path d="M52.3274,61.5365c4.2923-10.9488,12.2802-22.8751,25.1885-23.7091c17.188-0.8883,33.691,5.4779,49.5759,11.2868
		c38.9399,15.6108,75.6529,36.1498,111.8084,57.2868c69.5149,41.3085,136.5241,86.6776,201.9269,134.1643
		c26.7977,19.6572,53.4564,39.4993,79.381,60.2874c29.5571,24.3358,55.7314,52.4433,80.363,81.6732
		c50.0588,59.866,93.5939,124.8973,134.2543,191.4191c27.3838,45.1075,53.4427,91.029,77.6526,137.9363
		c10.9393-5.5468,5.0014-21.47,15.691-27.3775c-9.2477-43.9835-20.0515-87.6151-31.4003-131.0953
		c-12.4954-46.4018-24.9939-92.9861-43.0172-137.6278c9.4743,10.4651,15.0609,23.6962,20.8818,36.3958
		c17.8215,42.3731,29.696,86.9193,40.6577,131.4612c7.5633,32.3275,14.7434,64.7831,19.4963,97.6465
		c8.2821-0.8748,14.7882,5.7471,22.8632,5.7886c6.9752-1.3796,13.1056-5.8077,20.4241-6.098
		c3.7509-44.2913,10.9362-88.2573,19.3851-131.8802c6.3144-31.0886,13.3604-62.109,23.8121-92.0933
		c5.2976-13.8065,9.9288-28.5753,19.8753-39.8663c-13.3531,39.2656-22.2814,79.8334-30.642,120.3914
		c-9.6442,47.1938-17.9658,94.6286-25.2089,142.2473c-2.6484,6.3352,5.8654,8.2762,7.1371,13.7314
		c2.1049,6.6784,3.3038,14.9346,10.2637,18.5052c37.8997-82.3376,79.4573-163.1567,127.7597-239.9346
		c39.8121-62.2664,82.9845-123.7801,139.2026-172.4565c60.2805-49.5587,123.1107-95.9972,187.5664-139.9689
		c34.6282-23.3666,69.7347-46.0518,105.9281-66.9098c33.3894-18.7805,67.2827-37.7522,104.3252-48.3193
		c12.8462-3.2267,29.1013-6.4318,39.6486,3.9132c12.1838,12.2842,17.0912,29.6049,21.6147,45.8369
		c11.4528,47.1096,13.3795,95.9072,13.655,144.2264c-0.4171,43.5232-2.1451,87.4752-11.4832,130.1397
		c-12.5322,43.3088-19.7264,87.9037-26.4963,132.4102c-7.235,49.2618-13.0046,98.7617-16.3574,148.4425
		c-1.6769,32.935-4.2583,66.3526,1.9916,98.987c2.5801,18.8016-4.7859,37.2901-14.575,52.9604
		c-16.5522,25.6885-40.5657,45.8267-66.7731,61.1342c-35.4661,20.6831-76.2334,31.7007-117.2147,32.8014
		c11.3409,4.671,23.3673,7.9301,34.0073,14.2971c30.938,17.4344,55.809,44.1041,75.2906,73.5048
		c24.0034,36.2401,40.4233,77.3594,48.8558,119.9574c8.5438,40.8511,5.3818,82.8602,0.8247,123.9603
		c-3.783,37.8002-10.4733,75.2454-14.765,112.9733c-2.3267,22.4375-4.4048,45.1753-1.517,67.6638
		c3.3248,33.578,18.83,64.1237,33.2698,94.0792c12.056,24.7223,25.0017,49.2672,32.8086,75.788
		c5.2242,18.0254,7.2191,38.1761-0.792,55.7429c-21.9347-21.1621-40.4786-45.6499-62.7921-66.4401
		c-20.2095-19.9547-44.7723-38.2712-73.8765-41.3135c-21.7041-2.1367-43.2184,5.4406-61.5876,16.5135
		c-28.3738,16.725-54.4877,37.407-76.3317,62.1125c-7.9686,8.3759-14.7206,17.8866-23.3701,25.6047
		c-5.8319,5.275-13.6775,9.0839-21.6732,7.7628c-8.9154-4.0237-11.0273-14.5969-13.5281-23.0332
		c-7.6433-32.2654-9.8024-66.4724-25.3164-96.3685c-5.0905-10.3589-12.8512-19.1295-21.8011-26.2969
		c-0.7289,21.0098,0.2599,42.781-7.2213,62.8131c-3.9434,11.1864-13.955,21.0785-26.3477,21.2341
		c-11.4396,1.295-21.9866-5.5402-28.4116-14.4962c-10.2086-14.1853-15.2332-31.2401-19.9454-47.8339
		c-10.7726-41.8472-17.1398-84.6838-21.5007-127.6368c-9.3159-82.7511-21.9078-167.2301-59.4557-242.5703
		c-17.6356-35.2151-41.2311-67.8511-71.5172-93.2695c-17.5681-15.0712-37.517-27.0778-58.3826-36.9584
		c6.6344,49.9934,8.1255,100.5634,6.6518,150.942c-1.2757,29.1952-3.1585,58.4819-8.4782,87.2811
		c-3.6662,20.0874-8.5477,40.2773-17.988,58.4977c-5.9067,11.4436-15.0168,21.8274-27.4791,26.1429
		c-19.3521-5.708-30.2889-24.4246-37.9547-41.697c-16.9948-40.3386-23.1154-84.1536-28.2506-127.316
		c-4.5453-51.1863-7.6169-102.8041-2.994-154.0895c-32.4059,14.6854-61.2689,37.0992-83.3822,64.9744
		c-26.6873,33.1484-44.2141,72.7506-55.8788,113.4475c-13.4745,47.4229-19.6962,96.6063-22.7144,145.6931
		c-3.436,42.5818-2.4846,85.4523-7.891,127.8859c-3.4314,26.5751-6.7346,53.5133-16.0103,78.8313
		c-3.783,9.9053-9.1077,19.8174-17.9241,26.118c-12.9877,9.0719-32.744,4.629-40.9315-8.8407
		c-13.5308-20.8828-12.9488-46.7997-16.9525-70.4657c-12.8823,10.47-20.648,25.8209-25.1207,41.5403
		c-8.2025,27.5309-8.4466,56.5459-13.9211,84.6172c-1.829,6.7877-3.5042,15.4187-10.6307,18.5862
		c-12.8954,2.7407-23.1587-7.6094-31.2191-16.111c-21.3547-23.9719-44.7319-46.4275-71.6766-64.0531
		c-20.4194-13.3781-41.6576-27.1881-66.1752-31.2841c-17.5898-3.5476-36.0298-0.0001-51.9176,7.9661
		c-24.651,12.6636-43.6815,33.5262-61.5174,54.2463c-12.8736,14.446-24.3459,30.1458-38.1472,43.7355
		c-10.1004-19.6036-8.2105-42.6625-2.4225-63.2333c12.0723-42.9153,35.2526-81.7233,47.3048-124.6382
		c10.6713-37.1698,5.1367-76.4709-2.0259-113.735c-10.1493-50.2974-22.0992-100.3197-27.94-151.3616
		c-6.948-47.0464-1.4244-95.5482,13.7775-140.4857c11.2947-32.8393,27.7685-64.1864,50.3934-90.6503
		c21.8842-25.8831,51.1651-46.4379,84.6345-53.656c-45.2827,1.0541-90.2295-12.342-129.231-34.9712
		c-26.9553-15.9214-51.8801-36.3619-69.3985-62.551c-9.402-14.4631-17.0382-31.2086-15.9868-48.8363
		c4.5232-37.2449-1.3241-74.6944-5.9455-111.6581c-7.421-52.0693-17.3717-103.7698-28.898-155.0981
		c-8.8684-38.5328-18.3453-77.0347-31.9774-114.186C47.1215,318.8482,42.5761,271.131,39.234,223.7782
		c-1.1858-24.9325-1.846-49.9554-1.0033-74.903C39.7661,119.4524,41.5318,89.2749,52.3274,61.5365 M146.5132,113.41
		c-16.2342,7.8708-25.6926,29.7025-16.9437,46.2664c6.7791,12.9669,16.0301,25.7487,29.5138,32.3094
		c6.5101,3.3758,15.2322,2.1281,19.628-4.0551c7.4066-10.3541,6.0531-23.9837,4.6275-35.908
		c-2.6501-13.5258-7.2637-27.9506-18.2355-37.0506C159.9744,110.5377,152.3626,110.3054,146.5132,113.41 M1512.132,116.2506
		c-7.9601,4.2167-11.7415,13.0671-14.6234,21.1308c-4.6401,15.4384-6.5502,32.6955-0.1776,47.9417
		c2.8348,6.6656,9.3748,12.9013,17.1663,11.8117c10.6997-1.8503,18.4193-10.5462,24.7269-18.7711
		c5.3337-8.2486,11.0377-17.3557,10.677-27.5537c0.0419-11.5441-6.5131-22.1414-15.04-29.4785
		C1528.8038,116.0205,1519.8446,112.9714,1512.132,116.2506 M273.5965,217.1109c8.5236,9.4674,16.605,21.4987,14.5868,34.8828
		c-0.6002,7.4559-5.7144,13.1647-9.8946,18.9181c18.6557,7.6472,38.9797,10.9238,59.0889,11.1814
		c11.3929-0.4829,23.7918-1.45,33.2849-8.4929c6.3727-4.5136,5.8376-14.2421,1.5176-19.9891
		c-6.9212-9.475-17.2741-15.6645-27.6665-20.6158C322.2837,222.8139,297.8804,218.2898,273.5965,217.1109 M162.9647,224.905
		c-5.4964,3.5651-7.4886,10.3149-9.0267,16.3468c-3.1954,15.6768-2.9076,32.1652,1.5412,47.6073
		c2.036,6.2331,4.6544,13.2879,10.8181,16.5684c5.5081,2.9063,11.4593-1.3361,14.8753-5.5344
		c8.5954-10.8211,13.2456-24.5149,14.4072-38.1682c-0.4128-13.1794-6.6905-26.4796-17.4176-34.3463
		C173.9466,224.125,167.9362,222.6475,162.9647,224.905 M1338.2799,235.3074c-9.1942,4.4209-18.063,10.0329-24.7021,17.8782
		c-4.3113,5.2078-7.6797,13.3004-2.6467,19.2176c8.4675,9.7523,22.5087,11.049,34.5973,12.0553
		c20.943,0.3851,42.2472-2.9488,61.6842-10.9768c-7.3822-6.8296-12.8247-16.4522-12.2332-26.7279
		c0.4336-10.0294,6.3087-18.6323,12.0564-26.4011C1383.4707,220.8451,1359.7111,225.2969,1338.2799,235.3074 M1490.0406,251.1603
		c-4.296,13.0588,0.9504,26.5597,6.6735,38.2872c4.62,8.9877,10.8378,18.8604,21.5859,20.9449
		c4.9672-2.5009,9.2806-6.4307,10.9089-11.9366c5.8098-18.157,4.4663-38.1772-1.2244-56.1944
		c-2.4003-7.3425-7.7189-16.8253-16.8965-14.9609C1500.0381,229.9886,1493.2502,240.9405,1490.0406,251.1603 M311.6197,320.845
		c9.7734,10.1759,18.6425,23.1671,17.6222,37.9337c-0.1491,10.0446-5.8336,19.1109-13.3512,25.4297
		c28.9775,10.8956,60.6681,16.814,91.5647,12.136c9.479-2.0522,20.1368-5.1392,25.5422-13.9164
		c4.2348-7.2758,0.3126-15.7889-4.7763-21.4211c-13.1974-14.5589-31.6409-22.8387-49.7897-29.3384
		C356.9453,324.5576,334.3433,319.7991,311.6197,320.845 M1292.7576,341.1896c-12.0273,5.9917-24.1331,13.2832-31.9305,24.4962
		c-4.0009,5.5676-5.6437,13.7314-0.9991,19.4727c7.3032,9.2858,19.6111,12.3981,30.7793,14.1508
		c29.0079,3.3279,58.4291-2.1966,85.7051-12.086c-5.7336-6.5338-12.1371-13.0965-14.1361-21.846
		c-4.4902-15.5022,4.0808-31.212,14.5813-42.1474C1347.8953,322.4353,1318.8773,328.9873,1292.7576,341.1896 M177.455,350.7368
		c-12.9753,6.2923-21.6658,20.9696-20.7036,35.4175c0.41,13.0173,4.7933,25.884,11.6,36.9433
		c3.374,5.0129,8.7262,10.6202,15.4634,8.3928c10.2199-6.0819,12.9596-18.8092,14.9002-29.6765
		c2.1331-14.9482,2.4606-31.0417-3.8302-45.0924C192.1107,350.0549,183.752,347.7055,177.455,350.7368 M1501.9949,353.7264
		c-8.614,5.1004-9.0646,16.4893-9.6802,25.3859c0.1248,17.6071,2.527,36.6756,13.47,51.0914
		c3.8307,5.6135,12.7788,6.8571,17.2468,1.3219c9.8478-11.1269,12.4769-26.7128,13.4028-41.0719
		c-0.684-13.6211-8.0947-26.7392-19.4449-34.2706C1512.6395,353.3783,1506.9452,351.4085,1501.9949,353.7264 M341.2687,436.4511
		c11.4139,12.3382,22.2514,27.6891,20.9374,45.382c-0.0943,12.032-7.6505,21.9625-15.4974,30.3361
		c9.6972,3.4825,19.4157,7.0253,29.5934,8.9778c27.1064,5.9783,55.5962,9.8427,83.0161,3.5416
		c9.6312-2.6229,20.7018-6.4678,25.1981-16.1827c4.105-8.8965-0.9756-18.708-6.9946-25.318
		c-13.5255-14.7561-32.0218-23.745-50.4042-30.8493c-21.0479-7.5445-43.0128-13.0038-65.3205-14.8664l-1.1875-0.6284
		C354.1545,436.6523,347.6996,436.4403,341.2687,436.4511 M1293.8905,446.7847c-22.1515,5.925-44.1351,14.5047-62.2859,28.7994
		c-8.5415,6.9453-17.1239,16.1838-17.3058,27.8521c0.953,10.4312,10.6434,17.0177,19.6693,20.3901
		c18.2114,6.6,38.0375,6.9236,57.1616,5.3726c21.546-2.2629,43.0378-6.4724,63.2462-14.4734
		c-9.083-8.9707-17.0098-20.2742-17.0992-33.5405c-1.316-16.1255,7.8879-30.4264,17.9491-42.1251
		C1334.5171,438.1432,1313.9094,441.8707,1293.8905,446.7847 M197.5722,489.7585c-14.8468,8.3334-22.2903,27.0463-18.0885,43.4461
		c3.1604,13.6996,7.3023,30.1614,20.7346,37.2505c8.2858,1.6609,13.513-6.8698,16.2601-13.369
		c6.1009-16.5798,7.3016-34.9606,3.7946-52.2448c-1.5542-6.5257-3.984-14.3952-10.9456-16.8908
		C205.3144,487.0062,201.0878,487.7698,197.5722,489.7585 M1488.3593,491.8765c-7.4869,5.7503-7.9684,16.5312-8.1208,25.237
		c-0.0751,17.7729,2.4504,36.9407,13.537,51.4351c3.4377,5.1945,11.7238,6.8555,16.2048,2.0705
		c9.1469-9.451,12.0326-23.1143,13.8213-35.7031c2.4874-15.5632-5.9421-31.2603-18.4717-40.1099
		C1500.5421,491.319,1493.9761,489.4049,1488.3593,491.8765 M355.04,583.8403c12.0826,13.4629,23.5738,29.0659,25.3796,47.6783
		c1.7122,16.7273-7.0351,32.8054-19.4468,43.4902c38.6872,13.9314,80.1841,22.6204,121.4086,18.0258
		c15.0132-2.2908,31.7364-5.4026,42.4248-17.1934c7.4915-7.8197,5.9925-20.473,0.1061-28.7892
		c-11.5975-17.0417-30.0244-27.8579-48.1737-36.7107C438.8001,592.8262,396.8786,583.0493,355.04,583.8403 M1227.3702,614.2194
		c-15.417,8.2012-30.969,17.9672-40.7726,32.8059c-5.5387,8.11-7.5881,19.7096-1.1555,27.9353
		c8.3462,10.931,22.3788,15.2304,35.2708,18.1093c43.2927,8.1301,88.1473-0.017,129.0052-15.1544
		c0.9495-2.5525-2.9684-3.8637-3.9963-5.7933c-12.187-11.3102-17.743-28.5792-15.5531-44.9283
		c1.7527-15.8138,11.1332-29.3064,21.1511-41.1464C1308.6051,585.4542,1265.625,595.2324,1227.3702,614.2194 M208.1229,617.6876
		c-15.007,8.458-21.2258,28.7522-15.9355,44.7477c4.0894,12.3038,9.8262,24.8221,19.9961,33.3073
		c4.3322,4.1237,12.1492,4.4944,15.9141-0.6431c8.3298-10.938,7.4412-25.8132,6.6666-38.8039
		c-1.6747-12.2646-3.7915-25.455-11.8956-35.2949C219.5217,616.373,213.1193,615.6935,208.1229,617.6876 M1488.5576,621.7921
		c-7.6495,6.9094-9.2018,17.9322-10.9407,27.5583c-1.3574,15.2188-1.738,31.7595,5.9873,45.4807
		c2.8798,5.7518,10.5244,10.183,16.3257,5.4968c12.3951-9.3253,18.1053-25.046,20.9727-39.7635
		c0.8264-13.0998-4.5021-26.6397-14.092-35.6015C1502.1057,620.4194,1494.3228,617.35,1488.5576,621.7921 M391.5957,758.0776
		c10.8606,12.0234,21.2172,26.5508,20.8642,43.517c0.5484,12.8321-6.3044,24.6981-15.922,32.7374
		c22.5504,8.7965,46.3428,14.3455,70.55,15.7692c19.0823,0.7219,39.1648,0.6148,56.8125-7.6459
		c7.6299-3.3791,13.2903-10.335,14.2601-18.6899c-3.0132-16.8871-18.0296-27.5801-31.6869-35.9435
		C471.6996,767.959,431.4684,758.5582,391.5957,758.0776 M1230.2588,780.8684c-12.8983,6.0475-25.512,13.3076-35.4552,23.6247
		c-5.4939,6.0399-10.7993,13.578-9.6954,22.201c0.5327,8.43,8.1974,14.0173,15.1755,17.4661
		c13.6013,6.3153,28.8428,7.8143,43.6812,8.3058c28.2618,0.0951,56.5499-5.2676,82.7153-16.0101
		c-10.1501-8.5056-18.6559-20.4484-18.2675-34.23c-1.2963-16.1464,8.5034-30.0314,18.2793-41.8065
		C1293.6038,760.4293,1260.4302,767.1755,1230.2588,780.8684 M326.1176,1016.6037c-8.2218,3.1663-14.5121,10.0722-18.701,17.6518
		c-7.7644,14.2756-4.4599,31.5632,0.6836,46.1414c2.8814,7.0095,6.8244,15.5627,15.0887,17.1429
		c6.4302-0.0514,11.0597-5.6301,14.0539-10.7543c6.5289-11.8195,9.1119-25.3961,10.0561-38.7211
		c0.3699-9.0138-0.1005-18.5405-4.4208-26.6205C339.6937,1015.6771,331.8705,1013.7849,326.1176,1016.6037 M1398.2354,1019.0695
		c-6.0291,3.2701-7.5018,10.7007-7.9198,16.9766c-0.7817,15.655,2.8198,31.3756,9.1348,45.6489
		c3.3286,7.0627,7.7991,14.4504,15.1824,17.8718c5.4551,2.1973,10.5979-1.869,13.1971-6.3774
		c5.8492-10.0835,7.3643-22.0791,7.631-33.5258c0.5354-14.6566-7.42-28.7797-19.2307-37.1146
		C1411.0765,1019.0281,1404.2964,1016.4684,1398.2354,1019.0695 M310.1596,1140.2687
		c-16.6572,8.0405-24.8194,29.7483-18.7756,47.0695c3.5785,12.0895,8.3896,25.0503,18.7327,32.9846
		c4.8179,4.0542,12.1808,1.6536,15.1338-3.5104c6.8918-10.7911,7.8357-24.1364,8.1254-36.5978
		c-0.4136-12.0635-1.4298-24.9484-8.0228-35.4031C322.3411,1139.6301,315.491,1137.7007,310.1596,1140.2687 M1422.3441,1143.8612
		c-5.0378,4.267-6.4802,11.1289-7.5691,17.3153c-2.6432,17.1077-1.13,35.2179,5.6619,51.2478
		c2.8317,6.4833,8.6171,14.8215,16.8868,12.0806c9.4606-5.4399,13.7125-16.3677,16.8057-26.2813
		c2.2179-8.9246,4.5468-18.4594,1.9136-27.5226c-2.6586-10.5232-9.3381-20.1039-18.5281-25.9077
		C1433.0653,1142.0917,1426.7643,1140.2338,1422.3441,1143.8612 M314.7666,1272.8663
		c-14.7225,8.4734-22.2139,27.9175-17.3255,44.1429c3.1919,12.0153,7.8499,24.3497,16.8909,33.2399
		c3.5355,3.7928,10.1629,5.7466,14.3339,1.7988c8.1314-7.1815,9.3064-18.9077,10.8959-28.9575
		c0.9688-15.3945,0.4194-31.7565-7.0044-45.6251C329.2613,1271.0918,320.7244,1268.9889,314.7666,1272.8663 M1424.4663,1275.8936
		c-7.9098,8.2732-7.7534,20.7065-8.6006,31.453c0.5037,14.9025,2.2207,30.7573,10.7802,43.4496
		c3.1748,5.2194,10.8604,8.5137,15.9722,3.8395c10.2319-8.8818,14.1478-22.8062,16.3979-35.6871
		c3.0718-15.7965-4.5676-32.7247-17.6681-41.7268C1436.5037,1273.9794,1429.3628,1271.6694,1424.4663,1275.8936 M325.2841,1407.0242
		c-14.1196,11.6278-17.2373,34.0994-8.2192,49.8066c5.7435,10.5909,12.7473,21.3225,23.3459,27.6293
		c4.3285,2.7444,11.1621,2.5642,13.8755-2.3724c5.8773-9.6375,4.7146-21.6272,3.4933-32.3174
		c-2.4562-14.0365-6.2221-28.6993-15.4855-39.8781C338.3687,1404.6658,330.6466,1402.7516,325.2841,1407.0242 M1425.2338,1408.1929
		c-6.9484,4.0773-10.2391,11.9657-12.8314,19.1925c-4.6816,14.222-6.6655,29.5732-4.3163,44.4432
		c1.2136,6.7753,4.0093,14.6788,11.2131,17.1094c6.2627,0.8237,11.5587-3.7723,15.6855-7.9221
		c7.7032-8.4724,13.3657-18.7961,16.7252-29.7286c3.0062-13.726-1.4177-28.925-11.3293-38.8754
		C1436.5582,1408.4415,1430.5894,1405.8679,1425.2338,1408.1929z"/>
	<path fill="#FFFFFF" d="M146.5132,113.41c5.8494-3.1046,13.4612-2.8723,18.5901,1.5622
		c10.9718,9.1,15.5854,23.5247,18.2355,37.0506c1.4256,11.9243,2.7791,25.5539-4.6275,35.908
		c-4.3958,6.1832-13.1179,7.4309-19.628,4.0551c-13.4837-6.5608-22.7347-19.3425-29.5138-32.3094
		C120.8206,143.1125,130.279,121.2807,146.5132,113.41z"/>
	<path fill="#FFFFFF" d="M1512.132,116.2506c7.7126-3.2791,16.6719-0.2301,22.7291,5.0808
		c8.527,7.3371,15.0819,17.9344,15.04,29.4785c0.3607,10.1981-5.3433,19.3051-10.677,27.5537
		c-6.3076,8.225-14.0272,16.9208-24.7269,18.7711c-7.7915,1.0896-14.3314-5.1462-17.1663-11.8117
		c-6.3726-15.2462-4.4625-32.5033,0.1776-47.9417C1500.3905,129.3176,1504.1719,120.4672,1512.132,116.2506z"/>
	<path fill="#FFFFFF" d="M273.5965,217.1109c24.2839,1.1789,48.6872,5.703,70.9171,15.8845
		c10.3925,4.9513,20.7454,11.1408,27.6665,20.6158c4.3199,5.747,4.855,15.4755-1.5176,19.9891
		c-9.4932,7.043-21.892,8.01-33.2849,8.4929c-20.1092-0.2576-40.4332-3.5342-59.0889-11.1814
		c4.1801-5.7534,9.2944-11.4622,9.8946-18.9181C290.2015,238.6096,282.1201,226.5783,273.5965,217.1109z"/>
	<path fill="#FFFFFF" d="M162.9647,224.905c4.9715-2.2575,10.9819-0.78,15.1976,2.4736
		c10.7272,7.8667,17.0049,21.1669,17.4176,34.3463c-1.1616,13.6533-5.8119,27.3471-14.4072,38.1682
		c-3.4161,4.1983-9.3672,8.4407-14.8753,5.5344c-6.1637-3.2805-8.7821-10.3353-10.8181-16.5684
		c-4.4488-15.4421-4.7366-31.9305-1.5412-47.6073C155.4762,235.2199,157.4683,228.4701,162.9647,224.905z"/>
	<path fill="#FFFFFF" d="M1338.2799,235.3074c21.4312-10.0105,45.1908-14.4623,68.7559-14.9548
		c-5.7477,7.7688-11.6228,16.3717-12.0564,26.4011c-0.5916,10.2756,4.851,19.8983,12.2332,26.7279
		c-19.437,8.0281-40.7412,11.3619-61.6842,10.9768c-12.0886-1.0063-26.1298-2.3029-34.5973-12.0553
		c-5.033-5.9172-1.6646-14.0097,2.6467-19.2176C1320.2169,245.3403,1329.0857,239.7283,1338.2799,235.3074z"/>
	<path fill="#FFFFFF" d="M1490.0406,251.1603c3.2096-10.2198,9.9974-21.1717,21.0475-23.8598
		c9.1776-1.8644,14.4962,7.6184,16.8965,14.9609c5.6907,18.0172,7.0342,38.0374,1.2244,56.1944
		c-1.6283,5.506-5.9418,9.4358-10.9089,11.9366c-10.7482-2.0845-16.9659-11.9572-21.5859-20.9449
		C1490.9911,277.72,1485.7446,264.2191,1490.0406,251.1603z"/>
	<path fill="#FFFFFF" d="M311.6197,320.845c22.7236-1.0459,45.3256,3.7126,66.8119,10.8236
		c18.1487,6.4997,36.5923,14.7794,49.7897,29.3384c5.0889,5.6322,9.0111,14.1453,4.7763,21.4211
		c-5.4055,8.7772-16.0632,11.8643-25.5422,13.9164c-30.8966,4.6779-62.5872-1.2405-91.5647-12.136
		c7.5177-6.3188,13.2021-15.385,13.3512-25.4297C330.2622,344.0121,321.3931,331.0209,311.6197,320.845z"/>
	<path fill="#FFFFFF" d="M1292.7576,341.1896c26.1198-12.2023,55.1377-18.7543,83.9999-17.9597
		c-10.5005,10.9355-19.0715,26.6453-14.5813,42.1474c1.999,8.7495,8.4025,15.3121,14.1361,21.846
		c-27.276,9.8894-56.6971,15.4138-85.7051,12.086c-11.1682-1.7527-23.4761-4.865-30.7793-14.1508
		c-4.6445-5.7413-3.0017-13.9052,0.9991-19.4727C1268.6245,354.4728,1280.7302,347.1813,1292.7576,341.1896z"/>
	<path fill="#FFFFFF" d="M177.455,350.7368c6.297-3.0313,14.6557-0.6819,17.4298,5.9847
		c6.2908,14.0507,5.9632,30.1441,3.8302,45.0924c-1.9406,10.8673-4.6803,23.5946-14.9002,29.6765
		c-6.7372,2.2274-12.0894-3.3799-15.4634-8.3928c-6.8067-11.0593-11.19-23.926-11.6-36.9433
		C155.7892,371.7064,164.4797,357.0291,177.455,350.7368z"/>
	<path fill="#FFFFFF" d="M1501.9949,353.7264c4.9503-2.3179,10.6447-0.3481,14.9945,2.4567
		c11.3502,7.5314,18.761,20.6495,19.4449,34.2706c-0.9259,14.3591-3.5551,29.945-13.4028,41.0719
		c-4.468,5.5352-13.4161,4.2916-17.2468-1.3219c-10.943-14.4158-13.3452-33.4843-13.47-51.0914
		C1492.9303,370.2158,1493.3809,358.8269,1501.9949,353.7264z"/>
	<path fill="#FFFFFF" d="M341.2687,436.4511c6.4309-0.0108,12.8858,0.2011,19.3406,0.3928l1.1875,0.6284
		c22.3078,1.8626,44.2727,7.3219,65.3205,14.8664c18.3824,7.1043,36.8788,16.0932,50.4042,30.8493
		c6.019,6.61,11.0996,16.4214,6.9946,25.318c-4.4963,9.7149-15.5668,13.5598-25.1981,16.1827
		c-27.4198,6.301-55.9096,2.4366-83.0161-3.5416c-10.1776-1.9525-19.8962-5.4953-29.5934-8.9778
		c7.8469-8.3736,15.403-18.304,15.4974-30.3361C363.5201,464.1402,352.6826,448.7893,341.2687,436.4511z"/>
	<path fill="#FFFFFF" d="M1293.8905,446.7847c20.0189-4.914,40.6266-8.6415,61.3353-7.7249
		c-10.0612,11.6987-19.2651,25.9996-17.9491,42.1251c0.0895,13.2663,8.0162,24.5698,17.0992,33.5405
		c-20.2084,8.001-41.7002,12.2105-63.2462,14.4734c-19.1241,1.551-38.9502,1.2274-57.1616-5.3726
		c-9.0259-3.3724-18.7163-9.9589-19.6693-20.3901c0.1819-11.6683,8.7643-20.9068,17.3058-27.8521
		C1249.7554,461.2895,1271.739,452.7097,1293.8905,446.7847z"/>
	<path fill="#FFFFFF" d="M197.5722,489.7585c3.5155-1.9887,7.7422-2.7523,11.7551-1.808
		c6.9616,2.4956,9.3914,10.3651,10.9456,16.8908c3.507,17.2843,2.3063,35.6651-3.7946,52.2448
		c-2.7471,6.4991-7.9743,15.0299-16.2601,13.369c-13.4323-7.0892-17.5742-23.551-20.7346-37.2505
		C175.282,516.8047,182.7254,498.0919,197.5722,489.7585z"/>
	<path fill="#FFFFFF" d="M1488.3593,491.8765c5.6168-2.4716,12.1829-0.5575,16.9706,2.9295
		c12.5295,8.8496,20.9591,24.5467,18.4717,40.1099c-1.7887,12.5888-4.6744,26.2521-13.8213,35.7031
		c-4.4811,4.785-12.7671,3.124-16.2048-2.0705c-11.0865-14.4944-13.6121-33.6622-13.537-51.4351
		C1480.3909,508.4077,1480.8723,497.6268,1488.3593,491.8765z"/>
	<path fill="#FFFFFF" d="M355.04,583.8403c41.8386-0.791,83.7601,8.9859,121.6986,26.5012
		c18.1492,8.8528,36.5761,19.669,48.1737,36.7107c5.8864,8.3162,7.3853,20.9695-0.1061,28.7892
		c-10.6884,11.7908-27.4116,14.9026-42.4248,17.1934c-41.2244,4.5945-82.7213-4.0944-121.4086-18.0258
		c12.4117-10.6849,21.159-26.7629,19.4468-43.4902C378.6138,612.9061,367.1226,597.3032,355.04,583.8403z"/>
	<path fill="#FFFFFF" d="M1227.3702,614.2194c38.2548-18.9871,81.2349-28.7653,123.9496-28.1718
		c-10.0179,11.84-19.3984,25.3325-21.1511,41.1464c-2.1899,16.3492,3.3661,33.6181,15.5531,44.9283
		c1.028,1.9296,4.9458,3.2408,3.9963,5.7933c-40.8579,15.1373-85.7125,23.2845-129.0052,15.1544
		c-12.892-2.8789-26.9246-7.1783-35.2708-18.1093c-6.4326-8.2257-4.3832-19.8253,1.1555-27.9353
		C1196.4012,632.1866,1211.9532,622.4207,1227.3702,614.2194z"/>
	<path fill="#FFFFFF" d="M208.1229,617.6876c4.9964-1.9941,11.3987-1.3146,14.7457,3.3132
		c8.1041,9.8399,10.2209,23.0302,11.8956,35.2949c0.7745,12.9907,1.6632,27.8658-6.6666,38.8039
		c-3.7649,5.1375-11.5819,4.7668-15.9141,0.6431c-10.1698-8.4852-15.9066-21.0035-19.9961-33.3073
		C186.8971,646.4398,193.1159,626.1456,208.1229,617.6876z"/>
	<path fill="#FFFFFF" d="M1488.5576,621.7921c5.7651-4.4421,13.5481-1.3727,18.2529,3.1708
		c9.59,8.9618,14.9185,22.5017,14.092,35.6015c-2.8673,14.7176-8.5775,30.4383-20.9727,39.7635
		c-5.8013,4.6862-13.4459,0.255-16.3257-5.4968c-7.7253-13.7212-7.3447-30.2619-5.9873-45.4807
		C1479.3558,639.7242,1480.9081,628.7014,1488.5576,621.7921z"/>
	<path fill="#FFFFFF" d="M391.5957,758.0776c39.8727,0.4806,80.1039,9.8813,114.8779,29.7443
		c13.6573,8.3633,28.6737,19.0563,31.6869,35.9435c-0.9698,8.3549-6.6302,15.3108-14.2601,18.6899
		c-17.6477,8.2607-37.7302,8.3678-56.8125,7.6459c-24.2072-1.4236-47.9996-6.9727-70.55-15.7692
		c9.6177-8.0393,16.4704-19.9053,15.922-32.7374C412.8129,784.6284,402.4563,770.101,391.5957,758.0776z"/>
	<path fill="#FFFFFF" d="M1230.2588,780.8684c30.1714-13.6929,63.345-20.4391,96.4332-20.4489
		c-9.7759,11.7751-19.5756,25.66-18.2793,41.8065c-0.3884,13.7816,8.1173,25.7244,18.2675,34.23
		c-26.1654,10.7424-54.4535,16.1052-82.7153,16.0101c-14.8384-0.4916-30.0798-1.9905-43.6812-8.3058
		c-6.9781-3.4487-14.6428-9.0361-15.1755-17.4661c-1.1039-8.623,4.2015-16.1611,9.6954-22.201
		C1204.7468,794.176,1217.3605,786.916,1230.2588,780.8684z"/>
	<path fill="#FFFFFF" d="M326.1176,1016.6037c5.7529-2.8188,13.5761-0.9266,16.7605,4.8402
		c4.3203,8.08,4.7907,17.6068,4.4208,26.6205c-0.9442,13.325-3.5272,26.9016-10.0561,38.7211
		c-2.9942,5.1241-7.6237,10.7029-14.0539,10.7543c-8.2643-1.5802-12.2073-10.1334-15.0887-17.1429
		c-5.1435-14.5781-8.4479-31.8657-0.6836-46.1414C311.6055,1026.6759,317.8958,1019.77,326.1176,1016.6037z"/>
	<path fill="#FFFFFF" d="M1398.2354,1019.0695c6.061-2.6011,12.8412-0.0414,17.9948,3.4796
		c11.8107,8.3349,19.7661,22.4579,19.2307,37.1146c-0.2667,11.4467-1.7817,23.4423-7.631,33.5258
		c-2.5992,4.5084-7.7421,8.5747-13.1971,6.3774c-7.3833-3.4214-11.8538-10.8091-15.1824-17.8718
		c-6.3149-14.2733-9.9165-29.9939-9.1348-45.6489C1390.7335,1029.7703,1392.2063,1022.3397,1398.2354,1019.0695z"/>
	<path fill="#FFFFFF" d="M310.1596,1140.2687c5.3313-2.568,12.1815-0.6385,15.1934,4.5428
		c6.593,10.4547,7.6092,23.3396,8.0228,35.4031c-0.2897,12.4614-1.2336,25.8066-8.1254,36.5978
		c-2.9529,5.1639-10.3159,7.5646-15.1338,3.5104c-10.343-7.9343-15.1541-20.8951-18.7327-32.9846
		C285.3403,1170.017,293.5024,1148.3092,310.1596,1140.2687z"/>
	<path fill="#FFFFFF" d="M1422.3441,1143.8612c4.4202-3.6274,10.7212-1.7695,15.1708,0.9321
		c9.1899,5.8038,15.8695,15.3845,18.5281,25.9077c2.6332,9.0632,0.3043,18.598-1.9136,27.5226
		c-3.0931,9.9136-7.3451,20.8413-16.8057,26.2813c-8.2698,2.741-14.0552-5.5973-16.8868-12.0806
		c-6.7919-16.0299-8.3051-34.1401-5.6619-51.2478C1415.8639,1154.9901,1417.3063,1148.1282,1422.3441,1143.8612z"/>
	<path fill="#FFFFFF" d="M314.7666,1272.8663c5.9578-3.8774,14.4947-1.7745,17.7909,4.599
		c7.4238,13.8687,7.9731,30.2306,7.0044,45.6251c-1.5896,10.0498-2.7645,21.776-10.8959,28.9575
		c-4.171,3.9478-10.7985,1.994-14.3339-1.7988c-9.041-8.8901-13.699-21.2246-16.8909-33.2399
		C292.5527,1300.7838,300.0441,1281.3397,314.7666,1272.8663z"/>
	<path fill="#FFFFFF" d="M1424.4663,1275.8936c4.8965-4.2241,12.0374-1.9142,16.8816,1.3281
		c13.1005,9.0021,20.7399,25.9303,17.6681,41.7268c-2.2501,12.881-6.166,26.8053-16.3979,35.6871
		c-5.1118,4.6742-12.7974,1.3799-15.9722-3.8395c-8.5594-12.6923-10.2765-28.5471-10.7802-43.4496
		C1416.7129,1296.6001,1416.5565,1284.1667,1424.4663,1275.8936z"/>
	<path fill="#FFFFFF" d="M325.2841,1407.0242c5.3625-4.2726,13.0846-2.3584,17.0101,2.868
		c9.2634,11.1787,13.0293,25.8416,15.4855,39.8781c1.2213,10.6902,2.384,22.6799-3.4933,32.3174
		c-2.7135,4.9366-9.5471,5.1168-13.8755,2.3724c-10.5986-6.3068-17.6024-17.0383-23.3459-27.6293
		C308.0468,1441.1235,311.1645,1418.652,325.2841,1407.0242z"/>
	<path fill="#FFFFFF" d="M1425.2338,1408.1929c5.3556-2.325,11.3245,0.2487,15.1469,4.219
		c9.9116,9.9503,14.3356,25.1494,11.3293,38.8754c-3.3595,10.9325-9.022,21.2562-16.7252,29.7286
		c-4.1268,4.1498-9.4229,8.7458-15.6855,7.9221c-7.2039-2.4305-9.9995-10.3341-11.2131-17.1094
		c-2.3492-14.87-0.3654-30.2212,4.3163-44.4432C1414.9946,1420.1586,1418.2854,1412.2701,1425.2338,1408.1929z"/>
</g>
</svg>
