<?xml version="1.0" encoding="utf-8"?>

<!DOCTYPE svg PUBLIC "-//W3C//DTD SVG 1.1//EN" "http://www.w3.org/Graphics/SVG/1.1/DTD/svg11.dtd">
<svg version="1.1" id="Layer_1" xmlns="http://www.w3.org/2000/svg" xmlns:xlink="http://www.w3.org/1999/xlink" x="0px" y="0px"
	 width="1986px" height="1685.2261px" viewBox="0 0 1986 1685.2261" enable-background="new 0 0 1986 1685.2261"
	 xml:space="preserve">
<path d="M57.4348,65.7696c29.2989-20.5327,66.883-19.4925,101.065-22.214c82.5732-5.3633,164.8261,12.6483,241.7556,41.667
	c143.1321,51.2728,269.4934,141.4109,376.4823,248.2794c49.9521,50.4329,94.5008,107.5893,123.1192,172.9517
	c25.2563,60.5991,44.4686,123.4794,64.3615,185.9996c6.5643-13.2888,14.8495-25.8164,27.0974-34.5021
	c-15.8903-40.146-38.9051-77.2499-52.0735-118.5162c-11.9678-36.3036-18.1317-74.1679-23.0549-111.9124
	c-1.6811-13.2082-16.9709-17.5313-22.6946-28.4983c1.0007-1.7208,2.9219-5.2031,3.8825-6.9644
	c16.8108,4.6431,31.4603,20.5733,28.8986,38.985c-2.4015,34.3424,8.2453,67.3637,16.7308,100.1846
	c13.4086,43.188,37.344,82.0128,55.1555,123.4393c4.5629-0.6401,9.1259-1.1604,13.7288-1.6407
	c8.3654-42.7878,21.5738-84.4943,28.6984-127.5621c8.4454-48.8317,25.5364-96.2621,27.6178-145.9743
	c12.7683-5.3633,14.1691,15.6903,10.7269,23.7755c-17.8916,45.5894-25.0962,94.3004-34.2222,142.2116
	c-7.4047,36.7033-16.6505,73.007-25.5764,109.3903c13.6087,6.3239,19.8128,20.0129,25.2963,33.1014
	c9.6462-43.1078,17.131-87.016,32.4608-128.5627c26.417-59.2784,58.2375-116.7152,99.1838-167.2277
	c55.1156-64.8816,115.2343-125.9209,182.9978-177.5943c55.7959-42.8674,116.9954-78.6107,181.5968-106.4284
	c84.2544-37.0639,175.0327-60.239,267.172-63.8414c36.7037-0.8805,75.4086-2.3614,109.7107,12.9287
	c8.8457,4.6026,21.4139,12.768,17.4912,24.5754c-20.6932,18.9722-49.9922,23.6153-72.927,39.2254
	c-31.5002,20.7731-60.3588,46.1899-82.573,76.8493c-23.6553,32.1408-46.7902,65.0018-64.4415,100.9053
	c-13.7288,31.2999-25.5364,63.4808-34.8624,96.3819c-9.246,30.8597-10.847,63.281-18.9723,94.4206
	c-6.8444,29.2991-14.8495,58.3579-23.2148,87.2964c-7.9652,25.5765,0.2802,52.2734-1.1608,78.4103
	c-1.681,30.0994,4.3229,64.4413-15.9303,89.8581c-15.9702,24.3755-45.6294,33.6213-73.047,37.424
	c-62.7203,10.1662-126.2013,3.2418-189.1617,0.1202c51.3931,34.0615,114.0735,48.0309,161.9042,87.8564
	c18.9323,15.8099,37.6643,33.8616,46.51,57.4368c6.2839,16.5307,1.7211,34.5823,5.0432,51.6734
	c2.6818,14.3691,8.6857,27.8578,13.7688,41.5468c1.8013,5.3634,5.4436,11.9276-0.6803,16.2102
	c-10.8871,11.5275-26.8574,19.0923-33.1414,34.4225c-5.1633,16.8907,9.526,31.4602,8.8055,48.1106
	c-3.8024,7.4052-12.2878,9.9668-19.1322,13.729c-26.6572,10.8468-42.2672,37.9845-51.9935,63.7212
	c-6.8844,17.2108,5.6036,33.3413,7.2046,50.2321c0.6005,16.8907-16.3304,24.696-26.7372,34.8628
	c-27.1375,24.1351-33.3014,62.6399-34.302,97.1821c-2.2415,42.7878,11.6074,84.4548,29.0988,122.9596
	c11.6875,24.6155,24.856,48.7911,41.5067,70.4452c16.0903,20.4131,39.8256,32.2605,59.198,48.9514
	c7.3649,5.1636,6.6443,18.8921-3.7625,19.7324c-28.178,4.7233-54.395-11.4873-74.528-29.5385
	c-27.4175-23.2953-42.8275-56.4768-62.28-85.9358c-23.6952-36.4634-49.9521-73.3269-87.2961-96.8621
	c-12.7683-8.9658-31.0601-2.0013-42.2272-13.7692c-23.5352-22.1339-29.1788-55.5157-45.5895-82.1725
	c-15.6899-27.658-38.5847-49.9125-59.8384-73.1272c-23.7753-26.217-31.9005-61.3993-47.4706-92.2996
	c-13.2485-26.9373-12.8483-57.5571-20.8936-85.9753c-8.8055-33.8215-19.7727-67.0432-29.739-100.5046
	c-11.0071-36.5436-31.4603-70.0851-58.7578-96.6624c-12.9284,48.5914-27.4177,97.1025-33.0213,147.2549
	c-3.6423,34.5422,4.803,68.8842,3.6823,103.4666c-0.8405,12.4479-7.765,28.0179-21.0935,30.7
	c-9.4861-5.0834-15.41-15.8506-15.45-26.417c-0.2801-42.8679,11.4875-86.0554,1.9614-128.6028
	c-10.3667-41.2668-12.8083-84.2144-28.0181-124.2401c-25.7766,20.4531-38.5448,51.7134-47.7108,82.3729
	c-10.2866,35.0225-24.6158,68.9243-32.6609,104.6274c-8.6456,43.868-24.3758,86.3754-46.6701,125.1606
	c-11.6075,20.7732-32.9012,33.0212-48.111,50.7529c-24.976,28.4583-44.5887,61.3593-60.7591,95.5013
	c-8.2053,17.4912-14.3693,38.4647-32.2607,48.671c-15.0897,9.6464-36.1033,0.8008-49.2718,14.5695
	c-28.8585,24.5358-52.2335,54.6753-76.5692,83.5737c-18.7721,23.0549-38.5048,45.8298-51.8334,72.687
	c-10.2466,17.6515-17.6914,40.546-38.5848,48.2708c-24.7359,8.5255-52.1135,13.8893-77.9301,7.5249
	c9.6862-17.2509,29.459-24.0951,43.7082-36.6633c27.3376-23.9353,49.2717-53.4347,68.2439-84.2144
	c20.4532-33.7018,38.785-69.6449,45.9496-108.7501c5.2433-32.3807,5.8838-67.5234-8.3654-97.8228
	c-10.2466-22.7349-29.5791-39.0251-45.3492-57.517c-2.8018-13.2087,5.4034-26.6573,5.1633-40.146
	c2.0413-29.9792-20.0529-54.2351-42.5074-70.8453c-8.6056-7.285-19.9729-11.8881-26.3369-21.3341
	c1.8011-17.051,10.4867-34.7421,3.2421-51.6328c-7.3247-16.8112-25.5364-23.8557-39.5855-33.7019
	c3.4822-16.4105,15.53-29.0587,20.4132-44.8687c5.9638-24.1757-1.8012-51.2332,10.6869-73.8077
	c17.011-22.8145,36.1833-45.309,61.9199-58.5176c53.0741-28.9786,109.9508-49.9921,166.5071-71.0057
	c-39.9457,1.8811-79.8514,4.843-119.677,8.4053c-41.2265,3.4822-83.894,0.1202-122.2787-16.2101
	c-15.1698-6.4842-28.6985-18.532-33.3015-34.7426c-7.0445-23.5752,0.9606-47.9507-0.3202-71.846
	c-2.2014-44.2687-12.3279-87.8168-26.1768-129.7637c-12.8483-46.59-19.0122-94.6209-28.6985-141.8911
	c-5.1633-29.7394-21.8941-55.4761-37.1439-80.8524c-28.7385-45.1492-60.3989-88.577-95.7016-128.8427
	c-32.701-39.4653-82.4931-56.6766-123.2793-85.3753C47.2683,83.3409,48.8693,70.7332,57.4348,65.7696z"/>
</svg>
