<?xml version="1.0" encoding="utf-8"?>

<!DOCTYPE svg PUBLIC "-//W3C//DTD SVG 1.1//EN" "http://www.w3.org/Graphics/SVG/1.1/DTD/svg11.dtd">
<svg version="1.1" id="Layer_1" xmlns="http://www.w3.org/2000/svg" xmlns:xlink="http://www.w3.org/1999/xlink" x="0px" y="0px"
	 viewBox="-29.3907 220 855.5625 554.5955" enable-background="new -29.3907 220 855.5625 554.5955" xml:space="preserve">
<path d="M769.5593,275.492c12.7328,2.3123,25.7262,7.7592,33.5536,18.5217c9.9044,12.5806,10.4653,29.7035,8.194,44.8864
	c-2.9918,17.9796-8.8969,35.6033-18.185,51.3214c-10.0448,17.4374-24.3675,32.214-32.5568,50.7351
	c-6.7304,15.1266-7.8299,32.2173-5.3972,48.4421c1.8582,10.7324,4.0426,22.2171-0.2495,32.6799
	c-3.7529,9.7302-13.4053,15.6551-23.1202,18.1819c-16.1049,4.2015-32.929,3.5424-49.4156,3.189
	c-17.2601-0.705-34.5184-1.3599-51.7887-0.8857c-20.8461,0.333-41.674,0.5613-62.5137,0.9022
	c38.8727,10.0581,78.0136,21.6233,112.6879,42.4028c13.9858,8.1818,25.898,20.3975,32.1473,35.4877
	c6.6157,15.5268,7.2195,33.3227,2.452,49.459c-5.1429,17.8815-16.6185,33.711-31.5176,44.7725
	c-16.7769,12.5563-37.7286,18.7653-58.5497,19.3356c-10.405,0.435-20.7645-0.9169-31.0328-2.4583
	c-17.4454-2.1891-34.9949,2.2943-50.8151,9.4693c-14.6971,6.4327-28.3041,15.2125-43.4507,20.6453
	c-10.6188,3.8893-23.0253,4.697-33.17-0.9979c-9.7801-5.5783-18.454-13.9697-22.6883-24.5536
	c-8.0815-18.5604-14.1722-37.9995-23.5746-55.9664c-2.3812-4.1323-4.6108-8.7606-8.8286-11.3157
	c-3.1067-1.6276-6.3543,1.6713-6.1077,4.8044c-1.1469,19.0978-0.6021,38.2668-1.8771,57.3654
	c-0.2853,2.7145-0.2885,5.5866-1.6968,8.0266c-1.8527-1.9224-2.2-4.6394-2.8939-7.1013c-4.8411-20.7084-7.3438-41.882-11.1756-62.79
	c-2.4448-1.7003-5.4478-0.3238-7.1093,1.8195c-5.3457,6.0789-8.6105,13.5995-12.011,20.8569
	c-6.6827,14.7406-12.0785,30.0217-18.4903,44.8903c-2.4499,6.1272-6.1832,11.814-11.4989,15.8483
	c-7.3265,6.5248-17.5237,8.5673-27.0816,8.0461c-14.3214-0.7942-28.0298-5.3918-41.7032-9.3744
	c-20.1139-6.0245-40.9701-11.8854-62.1863-9.9915c-33.9463,2.9378-68.4176-9.4235-93.9691-31.6972
	c-16.3055-14.3198-29.7167-33.0423-34.2814-54.5535c-3.432-15.6473-0.8487-32.7171,8.0846-46.1404
	c8.8025-13.8708,22.8862-23.1266,37.1567-30.6423c32.5517-17.1337,68.0419-27.7942,103.7076-36.2677
	c-20.9635-0.5112-41.9491-0.8114-62.92-1.2522c-16.6206-0.5667-33.2454-0.0103-49.8572,0.6255
	c-15.0937,0.3973-30.3479,0.8346-45.2604-1.9131c-9.7647-1.9364-19.955-5.8443-25.8386-14.3335
	c-6.2638-9.1335-6.3145-20.8277-4.617-31.364c3.1669-18.2243,3.3115-37.527-3.3456-55.0277
	c-6.4076-17.574-18.9113-31.8071-28.8273-47.3893c-11.3104-16.8593-18.5096-36.2371-22.1107-56.161
	c-2.3213-13.7672-2.4773-28.7218,4.0692-41.4219c5.7647-11.2821,17.1546-18.6525,29.131-21.9299
	c17.1856-4.7421,35.3063-3.7689,52.7625-1.3441c34.6278,5.3246,67.8784,17.259,99.7928,31.4205
	c38.8114,17.6096,75.9063,39.1697,109.9118,64.8915c21.7644,16.5005,42.1659,34.9409,59.5565,56.0511
	c9.3167,12.2202,18.1141,25.1181,23.4183,39.661c2.4889,6.2198,3.5544,12.8588,4.8505,19.4011
	c3.1663-5.1633,6.5269-10.2137,10.3235-14.9481c0.9329-0.9613,1.3546-2.2679,0.8333-3.5314
	c-9.7777-41.9956-24.3186-82.9134-43.7787-121.4047c-17.4258-34.9144-38.6779-67.7212-60.2993-100.1259
	c-2.64-4.8492-6.4781-8.9214-8.9982-13.8291c22.2471,31.2547,44.7217,62.4409,64.3291,95.4729
	c23.4682,39.1188,42.6057,80.8823,56.4435,124.364c0.9554,2.8164,1.5461,5.7865,2.9752,8.4252
	c2.02-0.6835,4.0348-1.453,6.1459-1.7857c3.2336-0.3924,6.1023,1.4022,8.901,2.713c12.2247-39.3275,28.314-77.4739,48.4378-113.4188
	c22.2621-40.3913,49.4509-77.7337,76.2848-115.149c-13.7913,21.4234-28.4761,42.2836-41.7484,64.046
	c-22.8197,36.6996-42.4157,75.5367-56.5396,116.4279c-6.507,18.8188-12.1327,37.9792-16.4512,57.4192
	c3.2578,5.2625,7.5079,10.0819,11.0604,15.2474c2.2023-16.0149,9.0663-30.9924,18.0455-44.3113
	c16.0934-23.7766,37.3283-43.5716,59.6006-61.4658c33.7479-26.3506,70.7321-48.4505,109.5552-66.468
	c27.7908-12.7638,56.5849-23.5735,86.403-30.5286C723.2887,274.9374,746.681,271.5516,769.5593,275.492z"/>
</svg>
