<?xml version="1.0" encoding="utf-8"?>

<!DOCTYPE svg PUBLIC "-//W3C//DTD SVG 1.1//EN" "http://www.w3.org/Graphics/SVG/1.1/DTD/svg11.dtd">
<svg version="1.1" id="Layer_1" xmlns="http://www.w3.org/2000/svg" xmlns:xlink="http://www.w3.org/1999/xlink" x="0px" y="0px"
	 width="1989.3134px" height="1681.1115px" viewBox="0 0 1989.3134 1681.1115" enable-background="new 0 0 1989.3134 1681.1115"
	 xml:space="preserve">
<path d="M97.7446,50.5374c34.5243-15.3257,73.5391-10.0527,109.5465-3.6255c69.1723,13.0189,130.3107,50.7975,185.7227,92.5728
	c74.5691,56.9361,149.1797,113.9138,219.7114,175.8764c55.1648,48.9845,111.4418,97.6814,157.6663,155.5242
	C825.886,547.8849,878.3727,627.027,930.324,706.4165c7.6631-13.2657,19.3633-24.0598,34.8539-27.0259
	c-6.1797-35.843-25.5844-66.8243-40.2097-99.4944c-27.644-56.8128-42.8875-118.5692-65.9587-177.1946
	c-7.9513-20.8466-22.5355-39.056-26.985-61.0971c-2.1833-12.5657,13.8427-22.0416,23.5244-13.5132
	c13.9251,13.3483,20.4755,32.2994,28.5917,49.4381c29.5805,71.9323,46.2245,149.0557,82.6441,218.2281
	c7.4982,14.8726,13.7189,30.4045,18.6628,46.3895c10.3408-30.9813,25.8315-59.8615,36.9551-90.5541
	c19.6105-48.2437,34.2772-98.217,47.337-148.5619c7.2097-25.131,12.2771-51.6625,26.9025-73.7041
	c6.8802-11.5765,27.2736-9.9285,29.8279,4.2023c0.5765,19.4456-13.4308,35.3074-17.4684,53.8879
	c-23.4006,85.1569-54.0933,168.1306-88.5354,249.4151c-5.3145,14.1725-8.8163,28.9626-12.7302,43.5883
	c15.6966,4.6554,30.1573,13.9663,36.7901,29.5802c45.6481-53.8049,85.7753-111.9771,130.7639-166.3181
	c55.9475-68.4306,114.3257-135.625,182.8387-191.861c63.8988-53.4348,129.8575-104.438,198.2469-151.9812
	c51.3334-35.1424,103.5317-70.1198,160.9211-94.674c46.0598-18.0037,96.0336-32.2999,145.8835-24.8016
	c29.9102,4.408,58.2548,23.5242,69.2136,52.3631c15.5729,41.8165,9.764,89.3597-9.5992,128.9926
	c-25.9551,54.0936-61.8802,102.543-95.4568,152.0219c-50.2622,72.4684-99.6591,145.5957-151.9812,216.663
	c-38.397,50.6326-77.453,101.5131-125.9849,143.0822c-33.9063,29.0859-70.6553,55.5767-111.6477,73.8685
	c-35.8428,16.1088-75.8053,18.3336-114.4907,20.1874c28.4271,24.4721,65.0526,36.5018,93.9738,60.3146
	c26.1611,20.0224,22,59.7377,48.12,80.1313c31.5991,24.2247,71.0673,37.573,99.2469,66.4531
	c9.8877,9.7228,15.2021,24.801,9.8052,38.2731c-4.0786,17.0562-18.9099,31.0637-18.3334,49.0674
	c8.6106,14.4196,23.442,23.5654,36.2546,33.9475c0,0,16.0262,9.8466,22.9475,16.2319
	c13.7604,15.0376,30.7341,31.1875,31.5995,52.9404c-2.3484,13.6365-20.1874,26.2434-20.1874,26.2434
	c-23.1123,14.2545-47.8726,30.7339-59.2434,56.3593c-1.3596,13.5132,11.3708,23.7716,18.5806,34.1948
	c17.839,20.4343,37.2844,39.7566,59.5317,55.4117c10.502,8.5541,73.5359,24.0734,92.614,27.1501
	c12.9364,5.7261,26.9028,10.3816,37.6143,20.1049c19.4045,18.3331,33.3297,42.7228,36.9961,69.3781
	c-1.689,31.4757-24.3894,57.6779-51.9099,70.9025c0,0-27.2321,5.9327-44.7002,0.9886
	c-44.4958-14.0812-60.1499-43.2062-65.4232-82.067c-7.0862-21.2585-14.6256-43.6295-30.9401-59.6145
	c-17.8802-17.9213-34.0712-37.6962-53.4344-53.9698c-20.0637-16.15-49.6442-10.2584-67.6478,6.0148
	c-26.5319,20.7642-23.5244,60.2733-48.7378,82.3149c-13.8839,14.0483-38.2733,10.2584-50.6328-3.8317
	c-19.075-20.8054-19.734-50.5918-31.7642-74.734c-28.6329,6.6328-54.9586,25.9139-85.4868,22.1235
	c-23.8125-2.9249-42.2697-23.6891-46.3894-46.6777c-5.8501-38.7266,2.8016-78.1533-0.4531-116.7975
	c-13.307-14.1312-26.4906-29.9513-27.603-50.3036c-2.2659-29.704-20.1871-54.2168-37.1609-77.4116
	c-44.3296-62.4982-89.9363-124.0485-134.6777-186.2173c3.337,50.88-4.3258,101.5956-2.5955,152.5167
	c-0.2885,28.7565,6.7153,57.7604,0.2059,86.3105c-4.7379,21.3823-13.8014,44.4121-33.4944,56.1536
	c-18.7452,10.0939-43.3818,2.3486-55.412-14.5427c-17.2209-23.5659-18.7452-54.2998-17.7153-82.3969
	c2.5131-45.5658,10.9177-90.4309,16.9325-135.5842c3.7492-23.6891-2.0599-47.2958-4.6964-70.6967
	c-19.9814,34.1124-46.0601,64.7639-62.3745,100.9775c-8.6519,6.7153-14.2136,16.1912-19.9814,25.3372
	c-25.8312,40.0035-52.2396,79.7601-75.4753,121.4116c-7.9103,14.4607-16.2734,29.0452-19.8989,45.3596
	c-1.8127,16.3143-17.6743,25.5433-22.0001,40.9515c-16.191,39.921,6.5919,84.9512-12.1946,124.2129
	c-10.5468,21.2998-35.1424,33.8242-58.5844,31.5581c-23.4007-1.6068-43.3408-15.3669-65.7115-20.8873
	c-15.0373,24.6779-20.1871,54.7523-39.4269,76.9171c-10.629,12.772-30.5692,16.9325-44.659,7.5397
	c-17.9212-10.3821-19.734-33.1237-28.2621-50.0974c-8.8165-24.8428-31.7641-40.5804-54.2173-51.91
	c-16.1085-8.4871-31.7229,4.9436-43.6703,14.502c-24.0188,20.8462-48.2847,42.8461-64.7641,70.3668
	c-13.9251,33.3293-21.7527,69.2543-39.9623,100.8125c-15.326,21.7117-42.929,29.7864-68.513,26.6145
	c-19.9402,1.6063-36.6255-11.0001-50.839-23.2772c-26.779-29.1276-21.0524-76.0115-0.7003-107.1572
	c3.574-5.4017,8.074-9.735,13.3483-13.225c28.468-13.0596,59.3669-18.4569,89.1947-27.1909l12.0299-4.9436
	c35.6777-17.1387,68.5543-40.9928,94.4268-71.0261c12.1123-14.8726,25.3371-34.7305,16.4381-54.4235
	c-12.9774-28.7977-49.026-32.5051-67.9362-55.453c-9.5581-11.5764-9.9287-29.0446-0.8653-40.9098
	c19.5283-27.0676,54.2585-36.0073,76.9177-59.4496c10.3409-12.1121-0.2059-27.3146-7.2509-38.1085
	c-12.5243-16.8088-17.8802-40.4979-7.0863-59.5316c13.4307-24.0189,41.4456-32.8354,63.0748-47.5431
	c21.7529-14.7489,46.3895-26.7791,63.6104-47.1313c5.9739-19.1156,7.1275-41.1572,22.371-55.9885
	c24.0185-24.9247,58.1722-35.5131,87.6702-52.1981c17.9212-9.764,35.3071-20.5173,52.7752-31.0226
	c-38.8089-4.4905-78.3596-4.0786-116.5916-12.5657c-40.4981-9.2284-70.9026-38.9736-103.8201-62.1683
	c-38.6442-27.809-75.3106-59.1609-104.6439-96.8989c-44.8652-59.4491-81.1198-124.6666-121.1235-187.3292
	c-52.3221-86.2698-117.3744-165-159.7265-257.1609c-15.9438-36.0074-28.9211-76.5053-19.3221-116.015
	C56.2165,91.2827,70.8006,62.6495,97.7446,50.5374z"/>
</svg>
