<?xml version="1.0" encoding="utf-8"?>

<!DOCTYPE svg PUBLIC "-//W3C//DTD SVG 1.1//EN" "http://www.w3.org/Graphics/SVG/1.1/DTD/svg11.dtd">
<svg version="1.1" id="Layer_1" xmlns="http://www.w3.org/2000/svg" xmlns:xlink="http://www.w3.org/1999/xlink" x="0px" y="0px"
	 viewBox="-862.3359 -674.6663 2643.29 2210.7527" enable-background="new -862.3359 -674.6663 2643.29 2210.7527"
	 xml:space="preserve">
<path d="M1540.8566-629.9866c28.8635-9.1667,62.8855-16.8667,90.2716,0.6514c17.3461,13.9575,46.5582,7.8956,57.9037,30.223
	c6.5659,17.962,27.938,22.8649,37.1799,38.9198c3.2682,24.0684,14.3781,46.8188,12.9757,71.5884
	c0.9099,15.4974-8.3129,28.5356-12.36,42.9004c-22.6389,72.7353-63.4529,137.6869-101.5847,203.0079
	c-31.7936,54.7333-66.3213,109.0405-84.358,170.2649c-7.531,24.8745-3.3961,50.8894-3.65,76.3934
	c-0.0215,23.4658-1.282,47.0061-4.7406,70.2529c-2.2185,9.6017,4.5674,17.8183,6.1515,26.9724
	c5.3683,24.6177,2.2799,50.244-2.9307,74.6154c-2.7961,13.7814-10.0889,27.0469-7.8522,41.4765
	c4.394,46.3607-15.3767,91.3679-42.0018,128.2422c-4.3646,13.9496-6.8842,29.3042-16.9393,40.5924
	c-17.2207,19.5411-42.7068,27.8402-66.3929,36.6104c-28.2725,10.4938-58.6119,3.249-87.6057,0.812
	c-41.0439-4.2017-82.5436-2.3429-123.204,4.496c4.8286,11.9768,15.0895,22.2242,27.9982,24.9053
	c31.7087,7.4036,65.7166,4.1363,96.0059,17.3404c33.4281,16.2063,53.1047,60.4009,35.901,94.8032
	c12.444,2.6495,24.1587,10.4474,28.668,22.7783c7.0455,14.5149-0.9982,30.0231,0.6763,45.1537
	c0.6503,16.9382-14.934,28.0113-29.5908,32.1781c16.37,10.0984,30.5051,27.7382,28.6008,47.9872
	c-0.1193,9.197-8.0386,15.8769-8.9619,24.8754c-1.5199,10.4567-4.2826,22.5269-14.3807,28.0037
	c-10.4607,7.2813-23.5953,4.8069-35.3451,3.5977c11.9857,8.5255,30.7498,14.2978,31.7665,31.5234
	c-0.0687,15.085,9.4502,30.0359,3.2991,44.9134c-2.2935,7.8857-12.9814,9.8348-14.3405,18.1526
	c-2.1022,7.0055-3.5916,15.0898-9.8281,19.7747c-14.1678,11.3969-33.5627,10.994-50.5157,7.8608
	c9.577,13.1759,21.974,30.662,13.7048,47.3307c-8.6106,13.1631-6.8043,30.9119-17.7538,42.8105
	c-5.9154,6.7154-15.4238,4.3492-23.2112,5.908c-6.1013,4.3334-11.5507,9.8339-18.6611,12.4962
	c-14.1765,5.7817-29.7205,2.8958-44.4181,1.4353c-1.5945,1.4785-4.7516,4.448-6.302,5.9068
	c1.6597,11.347,4.2987,24.5372-4.8456,33.6444c-6.3975,10.4551-22.4161,18.6471-17.9646,32.7532
	c11.2074,36.5424,21.1442,73.6237,36.2374,108.8334c21.8743,51.2736,56.7512,95.1411,87.1974,141.379
	c22.7803,34.676,46.2317,69.1328,64.5913,106.4399c4.3041,10.3816,11.0336,22.7578,4.7963,33.7511
	c-15.6741,16.467-42.1504,25.3397-63.3666,14.2981c-22.2128-12.2678-36.1469-34.6354-47.7012-56.4194
	c-17.485-34.8074-28.978-72.2295-39.301-109.6427c-10.7279-44.097-28.1493-86.6191-51.3651-125.6071
	c-20.2007-33.4657-49.6674-63.3361-87.5994-75.5493c-12.5574-3.5-26.1749-7.7737-39.1283-3.6498
	c-17.0826,5.3264-30.7894,18.7706-48.9088,21.3516c-8.2246,2.1245-15.6497-2.7063-22.7101-6.0033
	c-0.6362,15.8942-12.8378,26.4686-20.7949,39.0756c-13.8521,13.0585-37.589,19.5717-54.2965,8.0599
	c-7.8713-6.2491-18.1532,3.8151-26.2652-2.3796c-11.7744-8.8845-11.4874-25.2063-14.837-38.2657
	c-11.1043,4.4669-17.8592,17.0953-30.5023,17.9271c-10.16,1.0516-20.4961-0.0186-30.3928-2.4237
	c-13.2485-3.802-22.8555-14.1285-33.4173-22.254c-13.1627-7.6567-30.3237-5.6616-42.3249-15.7701
	c-5.864-4.5985-12.1087-8.6826-19.0579-11.3135c-20.4373-8.1019-33.1331-27.3899-43.1092-45.9274
	c-23.562-45.5394-37.6223-95.097-51.4413-144.2321c-26.1641-96.0906-38.7178-195.2457-64.8623-291.2919
	c-1.1518,28.1301,4.3109,58.1392-8.9378,84.34c-4.8997,11.1399-17.6955,19.2488-29.9433,15.6109
	c-21.1097-6.1593-33.052-27.5053-38.5768-47.415c-5.333-23.4672-4.4393-47.7719-6.9919-71.6023
	c-16.1844,51.8123-23.9694,105.8218-33.8051,159.1542c-14.2966,81.2925-29.8371,162.7679-56.0713,241.2386
	c-11.3226,31.5984-22.4449,64.7772-45.2426,90.2468c-9.703,11.9003-25.8459,14.3964-36.9096,24.4905
	c-11.7959,10.9503-29.052,10.2313-42.8123,17.1265c-11.8783,8.6812-21.9254,20.9996-36.8776,24.5027
	c-11.5825,2.5596-24.1931,4.3577-35.6446,0.3652c-8.2929-4.5771-15.0089-11.4465-23.1765-16.1589
	c-3.0595,13.13-1.9452,29.146-12.8617,38.8567c-7.965,7.9459-19.8985-3.6772-27.8319,3.8042
	c-14.0945,10.7279-34.5197,6.2252-48.1479-2.8939c-9.0135-5.184-12.3835-15.6105-19.4708-22.6591
	c-5.6259-5.3138-5.6387-13.498-7.5485-20.4666c-6.0385,2.9272-11.9529,7.4423-18.9991,6.9747
	c-24.8085-0.5369-42.5988-24.8982-67.9386-22.0444c-41.106,5.8976-76.9498,32.4845-99.7615,66.4945
	c-23.7433,34.2395-38.6377,73.7096-51.7032,113.0015c-15.7547,58.4326-27.618,120.0094-62.4233,170.8357
	c-12.3051,17.7235-31.5631,34.832-54.632,32.7256c-14.4721-2.6211-29.3913-8.568-39.1906-19.9221
	c-4.3133-9.2113,1.2313-19.2601,4.1168-28.019c16.8634-39.6312,41.2081-75.437,63.8263-111.9055
	c26.7268-43.2538,58.338-83.7528,78.6286-130.6876c11.2692-26.7772,21.3603-54.1168,28.4762-82.3049
	c3.8546-15.3925,10.2024-30.3044,12.1441-46.0643c-4.8869-14.3098-20.439-21.8568-25.3899-36.1913
	c-2.336-8.3423,0.1757-16.9877,0.4972-25.3737c-11.5245-6.4778-24.2795-0.0038-36.5333-1.3331
	c-13.0764-0.1415-23.9626-7.8046-33.8553-15.38c-7.9193-1.0593-17.4271,1.1595-23.2973-5.7153
	c-11.2245-10.0305-9.2366-26.5796-16.8189-38.5496c-11.3863-17.0615,1.4107-38.264,13.0845-51.5717
	c-17.7252,3.9426-38.9575,5.8421-53.5249-7.2321c-6.7199-5.3304-7.6648-14.2392-10.2316-21.7898
	c-5.3114-5.5601-12.8343-9.6583-14.7523-17.6567c-3.8394-13.9809,3.7531-27.645,3.6972-41.6409
	c0.2397-16.9634,18.4574-23.4312,30.122-31.9375c-13.8125,2.2536-30.3374,3.3558-40.6654-8.0543
	c-9.7713-9.8028-6.2166-25.2737-14.253-36.0609c-12.8354-22.4591,4.9303-47.1461,23.0477-60.3278
	c-15.1094-3.636-29.8603-15.2769-29.8589-32.0016c1.7111-14.9679-6.8886-30.1162,0.3568-44.5003
	c3.6646-12.6044,15.3251-20.0488,27.4432-22.9527c-18.3911-36.8423,3.9781-85.6568,42.1366-99.0681
	c28.2529-10.5382,59.1393-8.7318,88.0676-16.4432c12.7966-3.0469,22.0386-13.3637,27.9487-24.5559
	c-51.9707-10.23-105.4263-5.6985-157.4814,1.6814c-18.0878,2.1164-37.0613,3.1956-54.3584-3.6274
	c-26.3756-9.8312-56.9811-17.9117-72.9725-43.233c-8.6789-12.1709-6.7379-28.8846-17.0558-40.0343
	c-27.7084-36.4576-43.4578-82.6659-39.1094-128.6783c-12.1763-40.802-23.8343-85.9165-6.4974-127.1632
	c-5.9979-36.4497-8.0355-73.47-7.064-110.3987c1.3715-34.2445-13.201-66.32-28.4727-96.0963
	c-53.6671-100.5961-129.4786-188.1257-177.228-292.0985c-16.9938-39.2402-32.0003-84.6131-16.616-126.7927
	c14.9041-39.6865,55.7051-61.0327,94.2216-72.0323c13.9868-2.5168,23.4612-14.3948,36.9482-18.0937
	c21.5734-6.61,44.619-2.5319,65.9666,2.9118c54.9125,16.4209,105.8786,43.027,158.4815,65.2734
	c16.6764,8.8223,36.2141,5.7955,53.7834,11.6227c85.7964,21.6739,150.7654,85.5655,226.4634,127.2404
	c47.304,9.3922,94.2443,22.7895,136.9548,45.6766c42.5889,21.0064,78.3626,52.6009,114.6737,82.6045
	c16.3796,13.5132,32.1843,27.7593,48.139,41.8061c9.9874,9.3355,24.1394,11.3569,35.7059,18.1076
	c31.5768,16.1558,54.2231,44.8752,71.334,75.2109c4.7976,9.2873,11.5662,17.644,20.6585,23.0047
	c27.4792,16.8936,57.9585,31.4177,78.152,57.5451c7.3663,8.8062,11.8183,19.758,19.8014,28.1041
	c29.4729,28.0388,42.8013,67.5593,58.0602,104.153c8.4674,19.7921,18.793,38.7572,28.1453,58.1555
	c3.5816-8.0882,12.9387-15.1697,10.6166-24.7904c-10.3445-55.3203-28.4049-108.9811-50.368-160.6922
	c-38.9357-88.5224-94.1822-172.0091-171.0524-232.0331c-55.0728-43.3307-121.1228-72.2061-190.3694-83.199
	c78.2665,7.0831,152.4727,42.1336,211.7789,93.068c70.3727,60.1339,122.3932,138.9346,161.9644,221.9791
	c23.1089,48.153,41.3072,98.4923,56.674,149.6152c8.5762-1.9896,17.2856-3.0844,26.052-3.7539
	c19.2906-87.5182,53.3997-172.649,105.2172-246.1041c48.1848-68.5776,113.7432-125.7546,190.803-159.4807
	c19.3204-8.0984,38.7438-16.5608,59.424-20.6529c-84.5753,29.7041-161.2685,82.35-218.3794,151.5358
	C560.7849-106.962,518.9031-9.2265,506.4315,92.0593c-2.6604,10.7525,4.7576,19.6152,9.9333,28.2041
	c30.1236-48.1854,37.4395-108.9037,76.6359-151.7725C604.8503-42.6953,610.3-58.6124,621.21-70.5995
	c20.0429-23.7395,48.3351-37.8202,73.8034-54.6723c13.8917-8.8619,19.1961-25.1648,28.0503-38.1978
	c15.3536-25.2828,35.9774-47.9557,62.416-61.7943c10.8913-6.9694,24.6769-8.8665,34.035-18.1483
	c31.4584-29.5906,63.8984-58.1076,97.3152-85.4427c50.8151-42.37,112.6389-70.1342,176.7302-85.3643
	c10.1959-2.5782,21.118-3.7039,30.1293-9.5977c52.8029-33.0243,100.4448-74.0082,155.5045-103.4519
	c26.5518-13.942,54.9392-25.3087,84.8484-29.2692c6.5806-0.9951,13.4421-1.002,19.7537-3.494
	C1436.1233-583.4093,1486.589-611.2055,1540.8566-629.9866z"/>
</svg>
