<?xml version="1.0"?>
<svg xmlns:rdf="http://www.w3.org/1999/02/22-rdf-syntax-ns#" xmlns="http://www.w3.org/2000/svg" xmlns:cc="http://creativecommons.org/ns#" xmlns:dc="http://purl.org/dc/elements/1.1/" xmlns:svg="http://www.w3.org/2000/svg" id="svg2" viewBox="0 0 207.82 175.54" version="1.1">
  <g id="layer1" transform="translate(-175.72 -516.56)">
    <path id="path3719" d="m179.15 678.27c-5.0527-0.33029-3.3582-2.5825-2.1827-5.1302 2.3489-5.0908 9.2961-7.354 14.774-8.5335 19.113-4.1151 38.963-5.7882 57.206-13.41 5.4382-2.2721 9.5431-6.4857 15.252-8.2766 9.61-3.0146 16.984-10.789 22.948-18.546 6.753-8.7833 11.284-19.113 16.087-29.155 10.872-22.733 21.434-45.61 31.33-68.785 1.5501-3.6304 2.4906-9.8476 6.202-9.8752 9.0031-0.067 18.365 7.0948 26.228 13.047 4.3908 3.3238 8.4342 7.391 11.246 12.045 3.7189 6.1552 7.1974 13.615 4.1016 20.988-2.6014 6.1956-4.8749 12.556-7.601 18.738-6.7418 15.288-12.826 31.414-12.527 48.338 0.34941 19.788 2.4744 39.496 3.0368 59.28-2.493 0.29526-8.1289 1.9405-7.0413-2.3751-1.4835-23.686-1.5677-47.494-4.1575-71.082-0.66743-6.079-1.0744-12.916-4.8395-17.933-2.4412-3.253-6.4365-0.92094-8.6322 1.7261-19.35 23.327-24.587 55.116-44.357 77.843-11.514 13.235-31.552 16.243-48.88 14.449-8.6911-0.90007-17.122-2.7056-25.62-4.5079-13.648-2.8947-27.712-4.3314-41.1-8.378-0.49328-0.1491-0.96149-0.43203-1.4742-0.46554z"/>
  </g>
  <metadata>
    <rdf:RDF>
      <cc:Work>
        <dc:format>image/svg+xml</dc:format>
        <dc:type rdf:resource="http://purl.org/dc/dcmitype/StillImage"/>
        <cc:license rdf:resource="http://creativecommons.org/licenses/publicdomain/"/>
        <dc:publisher>
          <cc:Agent rdf:about="http://openclipart.org/">
            <dc:title>Openclipart</dc:title>
          </cc:Agent>
        </dc:publisher>
        <dc:title>Women shoe silhouette</dc:title>
        <dc:date>2010-06-09T19:43:55</dc:date>
        <dc:description>A silhouete of a woman high heeled shoe.</dc:description>
        <dc:source>http://openclipart.org/detail/65299/women-shoe-silhouette-by-laobc-65299</dc:source>
        <dc:creator>
          <cc:Agent>
            <dc:title>laobc</dc:title>
          </cc:Agent>
        </dc:creator>
        <dc:subject>
          <rdf:Bag>
            <rdf:li>black and white</rdf:li>
            <rdf:li>clip art</rdf:li>
            <rdf:li>clipart</rdf:li>
            <rdf:li>clothing</rdf:li>
            <rdf:li>high heeled</rdf:li>
            <rdf:li>shoe</rdf:li>
            <rdf:li>silhouette</rdf:li>
          </rdf:Bag>
        </dc:subject>
      </cc:Work>
      <cc:License rdf:about="http://creativecommons.org/licenses/publicdomain/">
        <cc:permits rdf:resource="http://creativecommons.org/ns#Reproduction"/>
        <cc:permits rdf:resource="http://creativecommons.org/ns#Distribution"/>
        <cc:permits rdf:resource="http://creativecommons.org/ns#DerivativeWorks"/>
      </cc:License>
    </rdf:RDF>
  </metadata>
</svg>
