<?xml version="1.0" encoding="UTF-8" standalone="no"?>
<!-- Created with Inkscape (http://www.inkscape.org/) -->

<svg
   xmlns:dc="http://purl.org/dc/elements/1.1/"
   xmlns:cc="http://creativecommons.org/ns#"
   xmlns:rdf="http://www.w3.org/1999/02/22-rdf-syntax-ns#"
   xmlns:svg="http://www.w3.org/2000/svg"
   xmlns="http://www.w3.org/2000/svg"
   xmlns:sodipodi="http://sodipodi.sourceforge.net/DTD/sodipodi-0.dtd"
   xmlns:inkscape="http://www.inkscape.org/namespaces/inkscape"
   width="134.93571mm"
   height="182.84843mm"
   viewBox="0 0 478.11869 647.88816"
   id="svg2"
   version="1.1"
   inkscape:version="0.92.3 (2405546, 2018-03-11)"
   sodipodi:docname="bw-skull.svg"
   inkscape:export-filename="C:\Users\Z\Pictures\going to church.png"
   inkscape:export-xdpi="90"
   inkscape:export-ydpi="90">
  <title
     id="title815">Skull</title>
  <defs
     id="defs4" />
  <sodipodi:namedview
     id="base"
     pagecolor="#ffffff"
     bordercolor="#666666"
     borderopacity="1.0"
     inkscape:pageopacity="0.0"
     inkscape:pageshadow="2"
     inkscape:zoom="0.34337069"
     inkscape:cx="-659.53248"
     inkscape:cy="95.485939"
     inkscape:document-units="px"
     inkscape:current-layer="layer1"
     showgrid="false"
     fit-margin-top="0"
     fit-margin-left="0"
     fit-margin-right="0"
     fit-margin-bottom="0"
     inkscape:window-width="1920"
     inkscape:window-height="986"
     inkscape:window-x="1589"
     inkscape:window-y="-11"
     inkscape:window-maximized="1" />
  <metadata
     id="metadata7">
    <rdf:RDF>
      <cc:Work
         rdf:about="">
        <dc:format>image/svg+xml</dc:format>
        <dc:type
           rdf:resource="http://purl.org/dc/dcmitype/StillImage" />
        <dc:title>Skull</dc:title>
        <cc:license
           rdf:resource="http://creativecommons.org/publicdomain/zero/1.0/" />
      </cc:Work>
      <cc:License
         rdf:about="http://creativecommons.org/publicdomain/zero/1.0/">
        <cc:permits
           rdf:resource="http://creativecommons.org/ns#Reproduction" />
        <cc:permits
           rdf:resource="http://creativecommons.org/ns#Distribution" />
        <cc:permits
           rdf:resource="http://creativecommons.org/ns#DerivativeWorks" />
      </cc:License>
    </rdf:RDF>
  </metadata>
  <g
     inkscape:label="Layer 1"
     inkscape:groupmode="layer"
     id="layer1"
     transform="translate(-158.60586,718.77983)">
    <path
       id="path5267"
       style="fill:#f9f9f9"
       d="m 513.55572,-241.93025 c 8.44147,-13.5111 15.00425,-26.35114 14.58399,-28.53346 -1.09833,-5.70317 -11.75662,-10.46655 -21.73461,-9.71356 -12.01337,0.90657 -18.22751,11.50004 -14.97538,25.52905 1.26617,5.46204 2.32882,17.14832 2.36145,25.96954 0.0346,9.32346 0.97146,15.04953 2.23786,13.67631 1.19822,-1.29925 9.08522,-13.41681 17.52669,-26.92788 z M 304.6018,-222.9595 c 1.3262,-5.12861 3.84194,-18.0947 5.5905,-28.81354 3.16077,-19.37577 3.14448,-19.51497 -2.80991,-24.00637 -6.12574,-4.62066 -7.56429,-4.63697 -22.06469,-0.25003 -4.59874,1.39133 -9.07462,2.43913 -9.9464,2.3285 -4.50659,-0.57197 -4.74198,1.18012 -1.30472,9.71252 6.33452,15.72445 24.44869,50.35368 26.33945,50.35368 0.98146,0 2.86954,-4.19614 4.19577,-9.32476 z m 46.32585,146.912665 c -8.93823,-3.0151 -19.45962,-7.7665 -23.38084,-10.55865 -3.92122,-2.79216 -15.94302,-9.71518 -26.71512,-15.384505 -19.6867,-10.36107 -44.80513,-33.07901 -51.72211,-46.77919 -1.9169,-3.79674 -3.837,-20.17939 -4.68807,-39.9996 -1.0621,-24.73454 -2.78663,-37.31563 -6.55281,-47.80496 -2.81125,-7.82971 -5.11136,-15.94225 -5.11136,-18.02786 0,-2.08561 -0.83923,-3.88527 -1.86495,-3.99923 -1.02573,-0.11388 -4.5244,-0.49689 -7.77481,-0.85096 -3.25041,-0.35404 -8.04162,-3.33797 -10.64708,-6.63092 -10.15165,-12.83029 -12.92389,-21.09685 -14.05745,-41.91796 -1.29192,-23.72971 -5.22085,-29.73138 -19.56168,-29.88147 -8.29418,-0.0868 -15.71887,-5.46808 -15.71887,-11.39273 0,-1.92222 2.7137,-5.27304 6.03045,-7.44626 8.1022,-5.30877 11.69434,-16.22149 8.73553,-26.5382 -1.28313,-4.47404 -2.35754,-14.29637 -2.38758,-21.82736 -0.0321,-8.01096 -2.00552,-17.98942 -4.75615,-24.04751 -2.58584,-5.69513 -6.65686,-19.12278 -9.04673,-29.83921 -3.77404,-16.92337 -3.95255,-22.20918 -1.35803,-40.21397 3.6139,-25.07897 9.26319,-40.5323 32.05088,-87.67344 26.20445,-54.20948 48.14699,-78.74443 89.46685,-100.037 4.4448,-2.29046 11.3754,-5.869 15.40136,-7.9523 27.57159,-14.26752 91.62279,-26.78731 119.49677,-23.35749 14.98819,1.84426 66.96271,16.94211 87.03105,25.28122 15.58465,6.47601 18.58432,7.57176 23.17292,8.46479 2.48787,0.48422 7.29889,2.3346 10.69119,4.112 10.18669,5.33734 50.75263,46.98933 56.16519,57.66886 2.77254,5.47052 6.49127,11.62486 8.26382,13.67631 12.80167,14.81589 29.19795,60.30824 33.62651,93.29853 3.25728,24.26473 -1.62541,61.43363 -11.09949,84.49348 -3.37131,8.20578 -7.24979,21.63343 -8.61883,29.83922 -1.36905,8.20578 -3.18163,18.27652 -4.02795,22.37941 -1.31805,6.38974 -0.10294,8.88657 8.47048,17.40621 5.50509,5.47052 10.04605,11.84115 10.09106,14.15697 0.0917,4.72243 -8.90512,11.95235 -14.87339,11.95235 -4.9915,0 -23.82793,19.20069 -26.83369,27.35261 -1.26068,3.41908 -3.11242,11.79661 -4.11502,18.61676 -2.99337,20.36251 -9.02144,28.62867 -20.87736,28.62867 -3.26839,0 -5.16765,4.58626 -8.4954,20.51446 -8.60866,41.20493 -11.24958,60.57394 -9.97508,73.15838 1.26919,12.53178 1.02635,13.13445 -9.56329,23.73489 -5.97605,5.98214 -14.89512,15.87533 -19.8201,21.98486 -4.92502,6.10953 -13.31399,13.33236 -18.64218,16.05071 -5.32817,2.71838 -15.28574,8.999135 -22.12794,13.957215 -21.71388,15.73467 -37.5692,20.06325 -75.15448,20.51753 -28.00711,0.33852 -35.28119,-0.41435 -49.12622,-5.08466 z"
       inkscape:connector-curvature="0" />
    <path
       style="fill:#000000"
       d="m 350.92765,-76.046835 c -8.93823,-3.0151 -19.45962,-7.7665 -23.38084,-10.55865 -3.92122,-2.79216 -15.94302,-9.71518 -26.71512,-15.384505 -19.6867,-10.36107 -44.80513,-33.07901 -51.72211,-46.77919 -1.9169,-3.79674 -3.837,-20.17939 -4.68807,-39.9996 -1.0621,-24.73454 -2.78663,-37.31563 -6.55281,-47.80496 -2.81125,-7.82971 -5.11136,-15.94225 -5.11136,-18.02786 0,-2.08561 -0.83923,-3.88527 -1.86495,-3.99923 -1.02573,-0.11388 -4.5244,-0.49689 -7.77481,-0.85096 -3.25041,-0.35404 -8.04162,-3.33797 -10.64708,-6.63092 -10.15165,-12.83029 -12.92389,-21.09685 -14.05745,-41.91796 -1.29192,-23.72971 -5.22085,-29.73138 -19.56168,-29.88147 -8.29418,-0.0868 -15.71887,-5.46808 -15.71887,-11.39273 0,-1.92222 2.7137,-5.27304 6.03045,-7.44626 8.1022,-5.30877 11.69434,-16.22149 8.73553,-26.5382 -1.28313,-4.47404 -2.35754,-14.29637 -2.38758,-21.82736 -0.0321,-8.01096 -2.00552,-17.98942 -4.75615,-24.04751 -2.58584,-5.69513 -6.65686,-19.12278 -9.04673,-29.83921 -3.77404,-16.92337 -3.95255,-22.20918 -1.35803,-40.21397 3.6139,-25.07897 9.26319,-40.5323 32.05088,-87.67344 26.20445,-54.20948 48.14699,-78.74443 89.46685,-100.037 4.4448,-2.29046 11.3754,-5.869 15.40136,-7.9523 27.57159,-14.26752 91.62279,-26.78731 119.49677,-23.35749 14.98819,1.84426 66.96271,16.94211 87.03105,25.28122 15.58465,6.47601 18.58432,7.57176 23.17292,8.46479 2.48787,0.48422 7.29889,2.3346 10.69119,4.112 10.18669,5.33734 50.75263,46.98933 56.16519,57.66886 2.77254,5.47052 6.49127,11.62486 8.26382,13.67631 12.80167,14.81589 29.19795,60.30824 33.62651,93.29853 3.25728,24.26473 -1.62541,61.43363 -11.09949,84.49348 -3.37131,8.20578 -7.24979,21.63343 -8.61883,29.83922 -1.36905,8.20578 -3.18163,18.27652 -4.02795,22.37941 -1.31805,6.38974 -0.10294,8.88657 8.47048,17.40621 5.50509,5.47052 10.04605,11.84115 10.09106,14.15697 0.0917,4.72243 -8.90512,11.95235 -14.87339,11.95235 -4.9915,0 -23.82793,19.20069 -26.83369,27.35261 -1.26068,3.41908 -3.11242,11.79661 -4.11502,18.61676 -2.99337,20.36251 -9.02144,28.62867 -20.87736,28.62867 -3.26839,0 -5.16765,4.58626 -8.4954,20.51446 -8.60866,41.20493 -11.24958,60.57394 -9.97508,73.15838 1.26919,12.53178 1.02635,13.13445 -9.56329,23.73489 -5.97605,5.98214 -14.89512,15.87533 -19.8201,21.98486 -4.92502,6.10953 -13.31399,13.33236 -18.64218,16.05071 -5.32817,2.71838 -15.28574,8.999135 -22.12794,13.957215 -21.71388,15.73467 -37.5692,20.06325 -75.15448,20.51753 -28.00711,0.33852 -35.28119,-0.41435 -49.12622,-5.08466 z m 81.33336,-6.77544 c 7.14818,-8.69833 7.90781,-9.83767 13.97338,-20.957965 7.10651,-13.02867 5.48626,-15.95747 -3.4939,-6.31565 l -6.62662,7.11487 4.00229,-9.62842 c 6.165,-14.83131 4.92461,-22.55495 -1.44875,-9.02109 -2.8982,6.15433 -5.74802,9.79099 -6.33292,8.08145 -0.5849,-1.70954 -2.0892,-3.10825 -3.34284,-3.10825 -3.44034,0 -2.73432,6.89226 0.82886,8.09152 2.41842,0.81397 2.34521,1.97049 -0.32992,5.21108 -2.81359,3.408325 -4.12523,3.594725 -7.22032,1.02602 -2.0802,-1.7264 -6.01527,-3.13891 -8.74461,-3.13891 -3.48154,0 -5.90327,-2.71744 -8.11497,-9.10587 -4.47895,-12.93711 -5.37484,-30.07629 -1.63728,-31.32215 1.96459,-0.65487 3.04603,1.70676 3.04603,6.65169 0,4.21685 1.04358,7.66701 2.31903,7.66701 1.27548,0 3.02933,2.23794 3.89748,4.9732 0.86815,2.73526 3.18148,4.97321 5.14077,4.97321 1.95927,0 3.56233,1.90225 3.56233,4.22722 0,6.26979 3.39591,1.35711 9.79754,-14.17363 6.6752,-16.19444 11.30095,-21.94053 9.50844,-11.81136 -0.66557,3.76099 -0.11936,6.83816 1.21388,6.83816 1.33322,0 1.88967,-3.63666 1.23659,-8.08146 -0.65308,-4.4448 -0.13826,-10.38551 1.14391,-13.20159 3.54691,-7.78983 -0.81108,-34.41382 -5.79003,-35.37268 -3.09358,-0.59576 -4.30977,1.94114 -5.34848,11.15656 -0.73941,6.56021 -0.52954,12.48767 0.46639,13.17215 6.31947,4.3431 2.13554,25.72996 -7.83854,40.06801 l -4.12885,5.93531 -0.13055,-5.59485 c -0.0716,-3.07717 0.85281,-5.59485 2.05451,-5.59485 1.2017,0 3.60119,-3.41918 5.33216,-7.59814 2.55243,-6.16207 2.54049,-8.15948 -0.0632,-10.56805 -2.1259,-1.96668 -2.67641,-2.01512 -1.62965,-0.14348 0.86939,1.55457 -0.0346,4.167 -2.00863,5.80539 -3.08721,2.56217 -3.20945,1.81893 -0.87381,-5.31312 1.49353,-4.56057 2.84131,-15.56528 2.99506,-24.45488 0.24916,-14.40543 -0.26398,-16.24081 -4.71912,-16.87937 -4.46462,-0.63993 -4.90577,0.45159 -4.1291,10.21665 0.67792,8.52374 -0.0624,11.29079 -3.35968,12.55602 -3.32936,1.27761 -3.82496,0.69102 -2.32932,-2.75685 3.87057,-8.92287 2.56269,-16.10412 -3.33714,-18.32354 -3.42395,-1.28804 -5.15483,-1.23619 -4.311,0.12905 0.77545,1.25472 0.27268,2.98415 -1.11725,3.84317 -1.38994,0.85902 -2.68596,5.69198 -2.88001,10.73988 l -0.35288,9.178 -1.51207,-9.94641 c -1.18596,-7.80106 -2.6999,-10.11529 -7.01906,-10.72948 -4.1279,-0.58699 -5.89896,0.7787 -7.07226,5.45354 -0.86092,3.43011 -0.72756,7.59204 0.29632,9.24871 1.24246,2.01034 0.81566,2.36573 -1.28326,1.06852 -2.0169,-1.24654 -2.65671,-4.95175 -1.78383,-10.33061 1.44319,-8.89341 -0.74504,-10.73123 -5.68709,-4.77642 -1.67644,2.01999 -2.28653,6.12789 -1.38488,9.32476 1.25416,4.44674 1.03238,4.88687 -0.99979,1.98428 -2.26584,-3.23631 -2.61645,-3.17345 -2.6495,0.47489 -0.0199,2.31264 -1.14354,4.88804 -2.49468,5.72307 -1.55791,0.96286 -1.90554,-2.50215 -0.95023,-9.47179 1.7575,-12.82249 -1.87144,-16.87741 -9.18285,-10.26066 -3.29785,2.98481 -4.81635,7.62949 -4.81635,14.73266 0,10.11187 0.18824,10.34603 7.45981,9.27881 7.7755,-1.14121 8.43281,-0.09 5.11083,8.17268 -1.0997,2.73527 -1.03728,6.82749 0.13876,9.09385 1.48248,2.85713 0.58119,5.907 -2.93942,9.94641 l -5.07749,5.82576 2.77965,-5.71662 c 4.35782,-8.96226 -0.90214,-22.25765 -8.80563,-22.25765 -6.08493,0 -7.10273,1.61448 -6.25925,9.9288 0.2417,2.38368 -1.3078,6.82881 -3.44357,9.87805 -2.13576,3.04925 -3.88322,8.17247 -3.88322,11.38491 0,5.19187 -0.41444,5.42641 -3.7299,2.11095 -4.44478,-4.44478 -4.89759,-13.01637 -0.82073,-15.53602 2.01074,-1.2427 2.3932,-0.32813 1.2384,2.96152 -1.28823,3.66978 -0.48049,3.35304 3.52807,-1.38347 2.85936,-3.37862 4.17833,-6.48309 2.93108,-6.89885 -3.58961,-1.19653 -0.49563,-15.55414 3.35181,-15.55414 1.89623,0 3.44767,-1.67846 3.44767,-3.7299 0,-4.64736 -3.46341,-4.81536 -7.17111,-0.34785 -1.55218,1.87027 -5.47783,2.87147 -8.78208,2.23983 -5.11638,-0.97806 -6.70228,0.50152 -11.03409,10.29425 -3.64618,8.24282 -6.48672,11.43648 -10.17192,11.43648 -2.81217,0 -5.11302,-0.46798 -5.11302,-1.03992 0,-0.57197 -0.72875,-2.93904 -1.61945,-5.26016 -1.33496,-3.47885 -0.61616,-3.9018 4.09175,-2.40757 5.01901,1.59299 5.29062,1.35159 2.2411,-1.99175 -2.12139,-2.32577 -4.38823,-2.91877 -5.83237,-1.5257 -1.29925,1.25327 -4.04031,2.2787 -6.09123,2.2787 -2.05092,0 2.70783,-5.73702 10.57499,-12.74891 12.75067,-11.36449 14.2222,-13.66532 13.55104,-21.18806 -0.99101,-11.1079 -5.51384,-10.8519 -6.50097,0.36794 -1.09617,12.45897 -5.44166,8.20482 -5.44166,-5.32727 0,-7.92711 -0.9181,-10.92635 -3.10825,-10.15383 -1.92152,0.67774 -2.9285,5.02905 -2.63746,11.39691 0.52701,11.53072 -0.78022,13.02263 -4.12321,4.70575 -2.10531,-5.23776 -2.25891,-5.12439 -2.40646,1.77615 -0.15019,7.02072 -0.36441,7.16412 -4.50918,3.01754 -3.31969,-3.32115 -4.35247,-8.50758 -4.35543,-21.87225 -0.002,-13.80568 -0.92536,-18.19259 -4.35155,-20.69787 -2.39122,-1.7485 -4.34768,-4.45447 -4.34768,-6.01322 0,-1.55878 -1.11897,-2.83413 -2.4866,-2.83413 -1.36763,0 -2.4866,-2.23794 -2.4866,-4.97321 0,-2.73526 -1.19436,-4.9732 -2.65417,-4.9732 -1.67147,0 -1.93348,2.07149 -0.70769,5.59485 2.409,6.92429 2.36267,16.43679 -0.1119,23.00107 -1.68489,4.46932 -1.58839,4.52701 0.95235,0.56936 1.55494,-2.42213 3.86455,-3.76273 5.13247,-2.9791 1.26789,0.7836 1.67413,-0.59159 0.90271,-3.05596 -1.12076,-3.58046 -0.93462,-3.73132 0.92658,-0.75081 3.60853,5.77867 0.0657,28.59592 -4.44025,28.59592 -4.18818,0 -6.76957,11.51215 -9.0606,40.40728 -1.05305,13.28153 -0.63312,18.02786 1.59505,18.02786 1.74306,0 2.38154,-1.67533 1.50701,-3.9543 -1.96352,-5.11692 0.91663,-10.12668 3.45794,-6.01476 1.01801,1.6472 4.79377,3.16537 8.39051,3.37372 7.54624,0.43714 7.88785,1.38029 2.89227,7.98502 -4.98648,6.59276 -5.04104,17.02139 -0.0791,15.1173 2.25833,-0.86658 3.7299,-0.01 3.7299,2.17319 0,1.98247 3.07717,4.33959 6.83815,5.23805 3.76099,0.89843 8.23687,2.73524 9.94641,4.08173 1.95116,1.53682 3.10825,1.55778 3.10825,0.0562 0,-1.31556 -2.79743,-3.66652 -6.2165,-5.22438 -3.41908,-1.55783 -6.21651,-3.94026 -6.21651,-5.29429 0,-3.2401 7.45662,-0.29685 13.52353,5.33796 2.65124,2.46241 5.7678,4.4771 6.92566,4.4771 1.15786,0 4.93004,1.8509 8.38258,4.11311 4.60285,3.015875 5.43114,4.636115 3.10505,6.073725 -2.24677,1.38856 -1.27227,2.68304 3.33998,4.43661 3.5818,1.36179 7.34146,3.81756 8.35485,5.45725 1.21898,1.97232 2.94914,0.5516 5.11258,-4.19818 l 3.27008,-7.17942 -1.4107,6.83816 c -1.5996,7.75382 2.33313,9.23066 6.62162,2.4866 2.30632,-3.62691 2.52607,-3.21281 1.31949,2.4866 -1.56221,7.37939 2.51162,9.68539 4.39286,2.4866 0.85574,-3.27463 1.20856,-2.96693 1.42562,1.2433 0.23175,4.49469 1.75536,5.59486 7.74825,5.59486 5.66154,0 7.4598,-1.13471 7.4598,-4.70716 0,-2.58895 1.62149,-5.32939 3.60328,-6.08986 2.56106,-0.98278 3.1651,-0.16064 2.08843,2.84221 -1.12633,3.14129 0.12482,2.73222 4.87799,-1.59499 5.99537,-5.45804 14.93418,-6.71526 14.25148,-2.00442 -0.16909,1.16716 3.40839,4.73814 7.95009,7.93549 9.24964,6.51176 15.79959,5.83325 22.50951,-2.33183 z m -76.53643,-16.62226 c -0.80707,-1.305855 -2.34543,-1.831645 -3.41858,-1.168425 -1.07314,0.663245 -3.28316,-1.71749 -4.91113,-5.29054 -2.93089,-6.43257 -2.90189,-6.45838 2.94828,-2.62518 3.83638,2.51368 7.14483,3.08853 9.43452,1.63927 4.72327,-2.98962 7.91234,-2.89496 6.01285,0.17853 -2.15181,3.48169 2.11083,3.11104 5.71918,-0.49732 3.78593,-3.78592 3.90352,-7.82431 0.16039,-5.51098 -1.55291,0.95973 -0.22355,-1.77165 2.95423,-6.06977 6.41314,-8.67423 8.69639,-9.99143 6.24478,-3.60261 -1.41669,3.69186 -0.98885,3.64426 3.46386,-0.38537 2.79412,-2.52865 5.0802,-3.47858 5.0802,-2.11095 0,1.36763 -2.24558,4.51882 -4.99019,7.00266 -2.74458,2.48382 -4.84994,5.73443 -4.67856,7.22356 0.74324,6.45822 -0.6826,8.48826 -7.11581,10.13103 -12.89581,3.293055 -15.43916,3.456475 -16.90409,1.086145 z m 7.57934,-21.628775 c 5.47052,-4.04235 10.29396,-7.05907 10.71877,-6.70381 1.73209,1.44855 -11.48116,12.42409 -15.90122,13.20831 -2.88304,0.51149 -0.83689,-2.05662 5.18245,-6.5045 z m 27.35261,4.41598 c 0.84525,-1.36763 2.03027,-2.4866 2.63337,-2.4866 0.6031,0 1.09654,1.11897 1.09654,2.4866 0,1.36763 -1.18502,2.4866 -2.63336,2.4866 -1.44835,0 -1.94179,-1.11897 -1.09655,-2.4866 z m -38.54232,-3.26546 c 0,-0.61461 4.10792,-4.25074 9.12869,-8.08026 5.02077,-3.82954 8.34384,-5.6929 7.38461,-4.14081 -1.96745,3.1834 -16.5133,13.94842 -16.5133,12.22107 z m 63.5682,-12.38305 c 0.9338,-2.45233 2.3242,-3.8324 3.0898,-3.0668 0.7656,0.7656 0.002,2.77204 -1.6978,4.4588 -2.45581,2.43752 -2.74143,2.15191 -1.392,-1.392 z m -62.71403,-7.95175 c 1.58166,-3.41008 3.75432,-6.2089 4.82816,-6.21956 2.2874,-0.0224 -2.18356,9.00796 -5.46318,11.03486 -1.23241,0.76167 -0.94665,-1.40523 0.63502,-4.8153 z m -25.50733,-2.50906 c 0.25893,-4.71017 4.40317,-12.64151 4.5475,-8.7031 0.0751,2.05144 -0.948,5.40836 -2.27375,7.4598 -1.32576,2.05145 -2.34895,2.61093 -2.27375,1.2433 z m 85.87376,-3.76504 c -2.18423,-10.12429 -0.61933,-18.61437 3.43104,-18.61437 2.7692,0 3.5079,2.24165 2.86795,8.7031 -1.24577,12.57818 -4.58878,17.83831 -6.29899,9.91127 z m -41.32779,-9.71383 c 0,-2.92969 1.72672,-5.98933 3.83715,-6.79916 5.86393,-2.2502 6.16451,-0.21087 0.92201,6.25554 -4.69525,5.79152 -4.75916,5.79883 -4.75916,0.54362 z m -81.44706,-6.41521 c -2.54792,-2.89336 -2.24312,-4.01084 1.66435,-6.10207 3.26902,-1.74952 5.05288,-1.75181 5.63442,-0.007 0.49605,1.48816 2.91303,0.8767 5.79545,-1.46615 4.11328,-3.34336 4.21297,-3.78896 0.59295,-2.65072 -2.39335,0.75255 -4.35155,0.2844 -4.35155,-1.04029 0,-2.79131 2.85867,-3.06392 8.68485,-0.82819 3.4618,1.32839 2.87509,2.71597 -3.67999,8.70311 -8.82503,8.06039 -9.98704,8.33521 -14.34048,3.39155 z m 101.33988,-1.24203 c 0,-1.36763 1.18501,-2.4866 2.63336,-2.4866 1.44834,0 1.94178,1.11897 1.09654,2.4866 -0.84525,1.36763 -2.03026,2.4866 -2.63336,2.4866 -0.6031,0 -1.09654,-1.11897 -1.09654,-2.4866 z m -110.63617,-5.00167 c 0.83555,-1.35197 0.6454,-3.85685 -0.42257,-5.56639 -3.25459,-5.20968 -2.94792,-8.49589 0.79283,-8.49589 2.0788,0 2.9834,1.49233 2.17754,3.59234 -0.90326,2.35387 -0.18003,3.1324 2.09814,2.25821 2.41934,-0.9284 3.10962,0.0694 2.26977,3.28102 -0.66377,2.53835 -2.83318,5.23922 -4.82089,6.00198 -2.01967,0.77503 -2.94382,0.30242 -2.09482,-1.07127 z m 174.22152,69.061845 c 0.86037,-0.860335 0.79313,-2.812025 -0.14944,-4.337055 -1.81007,-2.92874 -8.73073,1.04492 -8.73073,5.012955 0,2.21318 6.48461,1.71961 8.88013,-0.6759 z m -138.1834,-1.895135 c 0,-1.36763 -1.18501,-2.4866 -2.63336,-2.4866 -1.44835,0 -1.94179,1.11897 -1.09654,2.4866 0.84524,1.36763 2.03026,2.486595 2.63336,2.486595 0.6031,0 1.09654,-1.118965 1.09654,-2.486595 z m 167.67331,-4.73106 c -0.65418,-0.65418 -3.12096,0.82722 -5.48177,3.29201 -4.10112,4.281775 -4.04813,4.334765 1.18942,1.18942 3.01498,-1.81062 4.94652,-3.82726 4.29235,-4.48143 z m -18.55338,-6.45865 c 0,-4.11816 -0.41442,-4.33191 -2.41044,-1.2433 -1.32576,2.05145 -2.41044,5.96784 -2.41044,8.70311 0,4.11816 0.41442,4.3319 2.41044,1.2433 1.32576,-2.05145 2.41044,-5.96785 2.41044,-8.70311 z m 8.89546,-3.10825 c 0.79985,-3.76099 3.07688,-9.83831 5.06006,-13.50516 2.35061,-4.34618 2.72035,-7.21425 1.06216,-8.23905 -1.39899,-0.86464 -3.20464,0.45706 -4.01251,2.9371 -0.80787,2.48003 -3.0379,8.72794 -4.95565,13.88423 -4.1471,11.15057 -4.20148,11.76103 -1.04753,11.76103 1.34158,0 3.09363,-3.07717 3.89347,-6.83815 z m 10.6993,-8.07688 c 1.43117,-4.1054 1.72096,-7.46438 0.64401,-7.46438 -2.10767,0 -7.7296,11.04325 -7.7296,15.18336 0,4.66581 4.4632,-0.19644 7.08559,-7.71898 z m -28.8165,0.27069 c 0.67571,-2.58388 0.41892,-6.00795 -0.57063,-7.60907 -1.0006,-1.61901 -1.89518,0.46618 -2.01551,4.69796 -0.24592,8.64922 0.78278,9.80718 2.58614,2.91111 z m -174.88537,-9.74678 c 0.096,-1.79025 -0.94421,-2.56344 -2.31184,-1.71819 -1.36763,0.84524 -2.40795,4.54794 -2.31182,8.22821 0.15616,5.97486 0.4036,6.15884 2.31182,1.71819 1.17539,-2.73526 2.21571,-6.43796 2.31184,-8.22821 z m 212.57168,5.3857 c 2.36906,-6.17363 -0.24219,-7.01661 -3.40841,-1.10037 -1.52752,2.85422 -1.73774,5.18618 -0.4675,5.18618 1.26941,0 3.01358,-1.83861 3.87591,-4.08581 z m -20.96667,-9.38329 c 0.0507,-6.36182 -1.37241,-4.37706 -3.41756,4.766 -1.21861,5.44794 -0.98793,6.45387 0.85541,3.7299 1.38825,-2.05145 2.54121,-5.8746 2.56215,-8.4959 z m 18.87427,-7.41624 c 1.26993,-5.13776 0.96329,-6.7031 -1.06735,-5.44811 -1.56708,0.96853 -2.84925,0.57594 -2.84925,-0.8724 0,-1.44835 -1.25598,-2.63336 -2.79106,-2.63336 -2.01288,0 -1.98301,0.97365 0.10718,3.49205 1.71319,2.06423 2.21476,6.38522 1.22674,10.56806 -1.16557,4.93446 -0.87494,6.32343 0.96027,4.5894 1.44743,-1.36763 3.43355,-5.73067 4.41359,-9.69564 z m 6.7503,3.47913 c 0.7153,-2.73526 0.88516,-4.9732 0.37749,-4.9732 -0.50764,0 -2.12072,2.23794 -3.58458,4.9732 -1.47043,2.7475 -1.63937,4.97321 -0.37752,4.97321 1.25626,0 2.86932,-2.23795 3.58461,-4.97321 z m -239.40027,-15.54126 c 0.0174,-8.54769 0.70866,-18.05894 1.53332,-21.13611 0.82547,-3.08028 0.37826,-5.59485 -0.99504,-5.59485 -1.37191,0 -3.05293,3.07717 -3.73557,6.83815 -0.68268,3.76099 -2.71018,10.41319 -4.5056,14.78267 -2.71689,6.61203 -2.69411,9.01018 0.13577,14.29796 5.40273,10.09513 7.53054,7.51158 7.56702,-9.18782 z m 256.08599,4.2048 c 0,-2.13216 -1.11897,-3.18509 -2.4866,-2.33985 -1.36763,0.84525 -2.4866,2.58975 -2.4866,3.87667 0,1.28691 1.11897,2.33984 2.4866,2.33984 1.36763,0 2.4866,-1.7445 2.4866,-3.87666 z m 24.63026,-11.04295 c -0.0731,-5.71274 -0.24568,-5.80649 -2.1303,-1.15697 -1.12797,2.78273 -3.85445,6.5564 -6.0589,8.38592 -6.45121,5.35405 -4.60123,8.35456 2.13032,3.45518 3.76084,-2.7372 6.10757,-6.87543 6.05888,-10.68413 z m -35.72923,-8.49694 4.7556,-7.25362 1.51551,6.01032 c 1.22428,4.85529 1.72697,3.97938 2.61576,-4.55772 0.60511,-5.81243 0.51117,-10.52561 -0.20888,-10.47371 -2.82774,0.2039 -19.95764,27.22654 -19.94321,31.4608 0.0124,3.47565 0.7548,3.08485 3.26244,-1.71593 1.7859,-3.41907 5.38712,-9.48064 8.00268,-13.47014 z m -17.49695,13.47014 c 0.84525,-1.36763 0.35181,-2.4866 -1.09654,-2.4866 -1.44834,0 -2.63336,1.11897 -2.63336,2.4866 0,1.36763 0.49344,2.4866 1.09654,2.4866 0.6031,0 1.78812,-1.11897 2.63336,-2.4866 z m -164.49147,-8.25002 c 0.8905,0.8905 1.61907,0.31361 1.61907,-1.28194 0,-1.59558 -1.67845,-2.90104 -3.7299,-2.90104 -2.05144,0 -3.7299,0.46797 -3.7299,1.03992 0,0.57196 -0.65084,3.08965 -1.44628,5.59485 -1.36229,4.29033 -1.23967,4.30441 2.1108,0.24195 1.95641,-2.3721 4.28571,-3.58432 5.17621,-2.69381 z m 190.60079,3.27682 c 0,-1.36763 -1.11897,-2.4866 -2.4866,-2.4866 -1.36763,0 -2.4866,1.11897 -2.4866,2.4866 0,1.36763 1.11897,2.4866 2.4866,2.4866 1.36763,0 2.4866,-1.11897 2.4866,-2.4866 z m -55.83579,-15.15462 c -0.15094,-17.39681 -5.57638,-19.26241 -5.96414,-2.05082 -0.15889,7.0566 0.33064,13.83286 1.08804,15.05836 2.9633,4.79474 4.98372,-0.59495 4.8761,-13.00754 z m 18.30952,-8.46809 c 0.0831,-4.1029 -0.9336,-9.13827 -2.25935,-11.18971 -2.79059,-4.31813 -3.06939,-2.91104 -2.53661,12.80224 0.21559,6.35742 -0.64234,12.19817 -1.90643,12.97941 -1.27326,0.78691 -1.77867,-1.29815 -1.13317,-4.67486 1.38695,-7.25535 -1.10969,-18.62019 -4.09051,-18.62019 -1.16169,0 -2.25283,6.10237 -2.42478,13.56083 -0.24269,10.52387 0.65867,14.10803 4.02449,16.00424 3.5761,2.01467 4.84929,1.05325 7.25617,-5.47938 1.6055,-4.35754 2.98708,-11.27969 3.07019,-15.38258 z m 13.69038,8.27536 c 0.946,-5.36825 0.55297,-9.78356 -0.95384,-10.71482 -1.40958,-0.87118 -2.56289,-4.31535 -2.56289,-7.65371 0,-3.33836 -1.11897,-6.06974 -2.4866,-6.06974 -1.36763,0 -2.4866,5.5016 -2.4866,12.22579 0,6.72417 -1.18879,12.62204 -2.64174,13.10636 -1.8507,0.6169 -1.82012,3.04166 0.1022,8.09769 2.34519,6.16824 3.22907,6.70278 6.08218,3.67818 1.836,-1.94639 4.06231,-7.64779 4.94731,-12.66975 z m -145.73295,5.24541 c 1.76161,-2.8208 2.51696,-7.57643 1.67855,-10.56806 -1.16793,-4.16734 -0.93643,-4.58393 0.98989,-1.78143 3.07536,4.47415 6.4506,1.7586 4.41322,-3.55064 -2.25599,-5.87907 -10.76862,-4.6815 -12.49425,1.7577 -2.1144,7.88989 -1.92473,19.27117 0.32117,19.27117 1.03866,0 3.32978,-2.30794 5.09142,-5.12874 z m -11.02169,-7.77352 c 0.86541,-3.67718 0.56764,-7.3074 -0.66171,-8.06718 -2.78151,-1.71909 -5.24287,4.36849 -5.24287,12.96703 0,7.76894 3.63245,4.75458 5.90458,-4.89985 z m 68.69346,-9.47716 c 0,-1.36763 -0.89428,-2.4866 -1.98729,-2.4866 -1.09301,0 -1.53331,-3.88855 -0.97848,-8.64121 0.55486,-4.75269 -0.17108,-12.026 -1.61326,-16.16291 -2.08379,-5.97759 -1.92547,-7.5217 0.77127,-7.5217 1.86632,0 3.88955,-1.39871 4.49605,-3.10825 0.60648,-1.70954 0.54298,5.09373 -0.14124,15.11839 l -1.24384,18.22664 7.18647,-0.82043 c 6.05888,-0.6917 7.30743,-2.07047 7.95713,-8.78698 0.42384,-4.38162 -0.45475,-10.25621 -1.95243,-13.05466 -2.38714,-4.46041 -1.99684,-5.08811 3.16385,-5.08811 5.61756,0 5.83486,0.62767 4.74933,13.71774 -1.04479,12.59881 -0.75724,13.57704 3.52533,11.99275 2.56459,-0.94876 5.485,-2.92561 6.48979,-4.393 2.67665,-3.90901 2.30378,-11.91226 -0.47499,-10.19489 -1.30791,0.80832 -1.74766,3.1123 -0.97726,5.11996 0.77042,2.00763 0.1748,3.65026 -1.3237,3.65026 -1.6513,0 -2.4638,-4.16272 -2.06271,-10.56806 0.42218,-6.74235 1.76223,-10.34302 3.70171,-9.94641 1.67199,0.34191 3.07398,-1.33655 3.11558,-3.7299 0.0719,-4.13211 0.20391,-4.13111 2.62118,0.0199 1.40006,2.4042 1.90146,5.41346 1.11417,6.6873 -1.74942,2.83062 1.28222,23.21946 3.17161,21.33009 0.74091,-0.74091 1.47585,-16.444 1.63323,-34.89572 0.26902,-31.54267 -1.20951,-40.15874 -4.89736,-28.53933 -0.87444,2.75513 -2.62829,4.36755 -3.89748,3.58315 -1.26916,-0.78438 -2.30756,-0.19868 -2.30756,1.30131 0,1.50012 -3.00273,2.40539 -6.6727,2.01171 -5.28639,-0.56707 -7.04303,0.57577 -8.45524,5.50074 -1.13872,3.97115 -1.87206,4.64477 -2.03041,1.86495 -0.13627,-2.39336 -1.83307,-4.35156 -3.77056,-4.35156 -1.93746,0 -3.99201,-0.83922 -4.56565,-1.86495 -0.57363,-1.02572 -0.74374,-0.575 -0.37799,1.00161 0.36573,1.5766 -0.90104,4.93351 -2.81508,7.4598 -3.12125,4.1195 -3.49633,3.18307 -3.63819,-9.08326 -0.18053,-15.60907 -4.17357,-22.77319 -11.60923,-20.82872 -8.05487,2.1064 -25.1053,-19.91422 -24.64804,-31.833 0.19296,-5.03039 2.27547,-11.27285 4.62777,-13.8721 2.35227,-2.59924 4.27688,-6.3045 4.27688,-8.23388 0,-8.68928 8.89057,-24.51633 14.57273,-25.94244 3.24879,-0.81541 5.25476,-2.1347 4.45768,-2.93178 -0.79708,-0.79708 -0.28057,-3.63287 1.14779,-6.30179 2.47345,-4.6217 2.82418,-4.64696 7.37232,-0.53097 4.60278,4.16546 4.78572,4.06062 5.06374,-2.90194 0.1676,-4.19691 0.76493,-5.40027 1.42565,-2.872 0.62543,2.39336 3.22701,4.35156 5.7813,4.35156 6.2074,0 8.2204,3.81245 5.09574,9.65094 -2.15847,4.03315 -1.8286,4.58965 2.10998,3.5597 4.09377,-1.07056 4.3652,-2.34144 2.20514,-10.324 -1.35482,-5.00672 -4.80436,-11.63709 -7.66562,-14.73416 -4.72598,-5.11546 -4.97984,-6.97596 -2.77276,-20.32125 2.31001,-13.96751 2.19973,-14.56726 -2.24125,-12.19051 -3.85502,2.06315 -4.51745,1.70369 -3.79298,-2.05816 0.48277,-2.50685 2.26116,-4.69777 3.95198,-4.86872 6.32753,-0.63975 6.71243,-1.06785 3.07418,-3.41908 -5.53766,-3.57871 -8.56144,-3.04847 -16.00491,2.80658 -4.78477,3.7637 -5.95944,6.06293 -4.06524,7.95713 3.36079,3.36079 3.4844,15.78835 0.17729,17.83221 -1.50173,0.92812 -2.4866,-2.46079 -2.4866,-8.55635 0,-5.55123 -1.11897,-10.09316 -2.4866,-10.09316 -1.36763,0 -2.4866,-1.67846 -2.4866,-3.7299 0,-5.25238 -4.91074,-4.6722 -5.26165,0.62165 -0.27472,4.14434 -0.34261,4.14434 -1.42565,0 -1.39863,-5.35211 -13.20552,-6.03914 -13.20552,-0.76841 0,1.97073 1.03299,4.22158 2.29554,5.00187 3.32769,2.05664 -8.69846,22.3445 -17.27132,29.13631 -4.84161,3.83575 -6.85198,7.26505 -5.94777,10.14575 1.77366,5.65071 -0.45629,5.49877 -8.1531,-0.55555 -5.8911,-4.63393 -6.67426,-4.68207 -14.06852,-0.86499 -7.89287,4.07447 -23.99307,19.95401 -23.99307,23.66424 0,4.1716 -5.49598,1.78197 -6.72682,-2.92479 -1.21105,-4.63107 -1.82554,-4.48242 -10.28016,2.4866 -4.94568,4.07663 -10.97514,7.41206 -13.39878,7.41206 -5.95235,0 -5.5531,3.06093 0.92708,7.10788 4.70656,2.93931 5.14811,2.84728 3.75519,-0.78261 -2.00937,-5.23631 13.85184,-12.62301 19.87145,-9.25429 3.51387,1.96648 3.49144,2.3486 -0.22131,3.77335 -2.73175,1.04827 -3.53617,0.62244 -2.37458,-1.25701 1.05743,-1.71098 0.65719,-2.16282 -1.00555,-1.13518 -1.51922,0.93892 -2.06761,3.51722 -1.21866,5.72958 1.26747,3.30293 0.35842,3.725 -5.08179,2.35958 -6.57769,-1.65087 -9.47182,1.8421 -3.51713,4.24488 1.70954,0.68981 0.25488,1.34254 -3.23258,1.45051 -3.48746,0.10792 -7.57991,-1.04278 -9.09437,-2.55722 -1.51444,-1.51444 -6.41563,-3.50253 -10.89152,-4.41794 -6.13123,-1.25397 -9.52863,-4.16451 -13.77738,-11.80311 -5.37785,-9.66855 -5.47376,-10.76091 -2.06831,-23.55632 4.20987,-15.81772 4.48752,-19.77039 1.02988,-14.66093 -1.87266,2.76734 -2.11414,1.96519 -0.93564,-3.10825 0.93606,-4.02978 0.54638,-6.83815 -0.94881,-6.83815 -1.39546,0 -2.24033,-2.70443 -1.87748,-6.00987 0.58283,-5.30961 0.11164,-5.67179 -4.04498,-3.10825 -3.16463,1.95178 -4.26696,4.66839 -3.36751,8.29888 1.51444,6.11272 -0.57716,13.25225 -3.88238,13.25225 -1.21294,0 -1.70392,-3.9164 -1.09104,-8.70311 1.3867,-10.83111 -2.21654,-11.36611 -5.8747,-0.87225 -3.50832,10.06395 -3.70484,29.85135 -0.24319,24.49496 2.93747,-4.54543 2.93747,-0.61938 0,6.21651 -1.17539,2.73526 -2.21571,3.43748 -2.31182,1.56049 -0.14298,-2.79245 -0.87188,-2.8342 -4.01007,-0.22976 -2.90499,2.41093 -4.53352,2.48478 -6.71382,0.30448 -2.18033,-2.1803 -1.85316,-2.87851 1.34868,-2.87851 2.32498,0 4.22723,-0.60823 4.22723,-1.35162 0,-2.9686 -18.47013,-21.0876 -20.72879,-20.33471 -4.20009,1.40004 -6.9269,11.73992 -3.09601,11.73992 1.85214,0 3.8641,3.38327 4.47098,7.51837 0.92526,6.3042 0.1676,7.70968 -4.69097,8.7031 -3.18693,0.65161 -8.66621,1.78421 -12.17615,2.51689 -10.40829,2.17264 -6.7589,9.58759 5.52844,11.23292 10.9497,1.46623 26.38744,12.67496 33.25926,24.14824 4.16867,6.96007 4.84691,7.38229 24.78585,15.42973 20.61614,8.32077 29.62177,10.01183 37.00809,6.94936 3.57909,-1.48396 7.90615,-2.46962 9.61569,-2.19033 4.04886,0.66144 4.04886,-3.95215 0,-5.316 -1.70954,-0.57585 1.29022,-1.87672 6.66611,-2.89083 6.84417,-1.29109 8.74794,-2.47822 6.3505,-3.95993 -1.93927,-1.19852 -5.36887,-1.07516 -7.90943,0.28451 -3.10601,1.6623 -4.48553,1.52712 -4.48553,-0.43955 0,-1.56206 -1.67846,-2.19605 -3.7299,-1.40881 -2.05145,0.78721 -3.7299,0.31975 -3.7299,-1.03883 0,-2.29655 9.75553,-7.15547 16.71259,-8.324 1.66996,-0.28051 3.81465,-1.28836 4.76597,-2.2397 0.95135,-0.95135 3.39511,-1.72971 5.43057,-1.72971 3.12568,0 3.06125,0.70677 -0.41442,4.54735 -6.34829,7.01478 -4.98924,7.82889 5.91737,3.54465 7.44821,-2.92574 10.75529,-3.21829 12.83792,-1.13568 2.0826,2.08263 1.09958,3.45379 -3.81616,5.32274 -11.15062,4.23946 -8.06723,8.412 5.18993,7.02318 10.7829,-1.12958 11.21082,-0.98243 4.9145,1.69007 -3.79329,1.61008 -6.12448,3.69982 -5.18044,4.64386 0.94407,0.94403 -1.26747,1.71645 -4.91447,1.71645 -3.64702,0 -6.63094,1.23867 -6.63094,2.75264 0,1.51394 1.67845,2.10856 3.7299,1.32133 2.29645,-0.88123 3.7299,0.005 3.7299,2.30806 0,2.98601 1.01593,3.19563 5.04285,1.0405 2.77356,-1.48438 4.31699,-3.87331 3.42982,-5.30877 -1.01296,-1.63902 0.37053,-1.54836 3.71896,0.24368 4.88419,2.61394 4.99837,3.18723 1.35965,6.82595 -2.78243,2.78243 -3.13314,4.491 -1.17074,5.70382 1.54087,0.95231 2.61001,2.74789 2.37588,3.9902 -1.15951,6.1518 0.4499,13.56475 2.64979,12.20513 1.36763,-0.84525 2.4866,-0.62496 2.4866,0.48954 0,1.11449 -3.21487,3.44939 -7.14415,5.18866 -7.86681,3.48219 -9.05439,8.28534 -11.19965,45.29713 l -1.08098,18.64951 3.85814,-11.81135 c 2.12196,-6.49625 4.85344,-11.81136 6.06996,-11.81136 1.24542,0 1.1926,1.90449 -0.12084,4.35876 -1.28302,2.39731 -2.72109,8.23868 -3.19573,12.98081 -0.64351,6.42916 0.16685,8.83052 3.1865,9.44172 3.18897,0.64548 4.40365,-2.01464 5.71593,-12.51762 1.54358,-12.35443 2.34218,-13.64359 10.8373,-17.49407 8.80832,-3.99243 9.36887,-3.95814 14.17691,0.86721 3.59871,3.61169 5.00598,8.31987 5.00598,16.74825 0,11.07592 0.39666,11.76956 7.1735,12.54344 l 7.17349,0.81916 -1.21888,-12.6852 c -0.67039,-6.97685 -0.63237,-12.09868 0.0845,-11.38179 0.71686,0.71686 3.5152,-0.65726 6.21856,-3.0536 4.73183,-4.19447 4.81968,-4.17147 2.35551,0.61623 -1.40781,2.73526 -3.34704,9.72637 -4.30938,15.53579 -1.48666,8.97469 -1.0628,10.77728 2.81948,11.99076 2.51306,0.7855 6.24767,2.40062 8.29911,3.58914 5.07752,2.94172 7.45981,2.93113 7.45981,-0.0331 z m 30.03554,-43.93379 c -0.10792,-1.5977 -0.8403,-4.95461 -1.62738,-7.45981 -1.3603,-4.32972 -1.29013,-4.33514 1.4193,-0.10966 1.56768,2.44488 2.3,5.80179 1.62735,7.45981 -0.88269,2.17575 -1.27759,2.20628 -1.41927,0.10966 z m -70.95826,-3.13981 c -0.78686,-1.27314 -0.29339,-3.01764 1.09654,-3.87666 1.38994,-0.85902 2.52716,0.18251 2.52716,2.31477 0,4.36779 -1.49209,5.0109 -3.6237,1.56189 z m -10.91884,-10.5643 c 3.07694,-13.69446 4.59613,-15.01751 4.59613,-4.00274 0,4.84719 -1.57009,10.11612 -3.48907,11.70876 -2.95821,2.45508 -3.12665,1.28254 -1.10706,-7.70602 z m 39.80119,-14.47354 c 0,-3.41908 0.56438,-4.81779 1.25419,-3.10825 0.68981,1.70954 0.68981,4.50696 0,6.2165 -0.68981,1.70954 -1.25419,0.31083 -1.25419,-3.10825 z m -50.11139,-11.13436 c -3.7625,-15.68391 -2.57055,-18.77553 4.50921,-11.69578 3.37357,3.37358 4.81716,7.90257 4.55876,14.30219 -0.57421,14.22152 -5.36109,12.84563 -9.06797,-2.60641 z m 9.9712,-19.17975 c -0.0199,-2.31264 1.0809,-4.89637 2.44853,-5.74161 3.14704,-1.94497 3.14704,1.34682 0,6.2165 -2.07731,3.21441 -2.41571,3.14876 -2.44853,-0.47489 z m -1.62544,-20.66122 c 0.78721,-2.05145 0.62717,-3.73493 -0.35561,-3.74104 -3.63964,-0.0224 -2.70082,-16.98939 1.01906,-18.41684 2.06288,-0.79161 3.00384,-0.33189 2.14962,1.05024 -0.83555,1.35196 -0.47843,2.45813 0.79362,2.45813 1.27205,0 4.97474,-3.90877 8.22821,-8.68612 6.19035,-9.08988 11.97498,-12.38306 6.58161,-3.74689 -1.70819,2.73526 -3.80569,4.9732 -4.6611,4.9732 -0.8554,0 -4.00326,6.71383 -6.99524,14.91961 -2.99198,8.20579 -6.05905,14.91961 -6.81572,14.91961 -0.75668,0 -0.73169,-1.67846 0.0555,-3.7299 z m -117.7695,-7.31305 c 0,-3.33836 0.91651,-6.63619 2.03667,-7.32848 1.12017,-0.6923 1.55264,2.03908 0.96107,6.06974 -1.30432,8.88684 -2.99774,9.59791 -2.99774,1.25874 z m 34.34618,4.37113 c 1.79503,-0.71831 3.93972,-0.62999 4.766,0.19619 0.82627,0.82627 -0.64239,1.41398 -3.26367,1.30601 -2.89677,-0.11936 -3.48597,-0.70853 -1.50233,-1.5023 z m -3.63238,-5.1646 c 0.90366,-1.46215 0.23722,-3.22515 -1.48074,-3.91779 -2.23581,-0.90139 -2.28193,-1.31519 -0.16213,-1.45568 4.27914,-0.28367 6.33472,4.11681 2.91136,6.23256 -1.73525,1.07245 -2.24764,0.7254 -1.26836,-0.85909 z m -38.17361,-3.08319 c 0,-1.52906 -1.03897,-2.13798 -2.30883,-1.35318 -1.26983,0.78482 -2.66855,-1.10734 -3.10825,-4.2048 -0.56018,-3.94648 -2.2876,-5.46736 -5.77262,-5.08243 -2.73527,0.30212 -3.57449,-0.0709 -1.86495,-0.82886 1.70953,-0.75799 3.10825,-2.46992 3.10825,-3.80431 0,-1.33438 -1.30912,-1.61706 -2.90918,-0.62816 -1.98344,1.22582 -2.37905,0.41653 -1.2433,-2.54322 0.91624,-2.38766 1.66588,-4.80916 1.66588,-5.38113 0,-0.57194 1.49884,-1.03992 3.33077,-1.03992 3.51835,0 9.10223,10.07715 9.10223,16.42666 0,2.06781 1.11897,3.06809 2.4866,2.22285 1.36764,-0.84525 2.48661,0.14173 2.48661,2.19311 0,2.05144 -1.11897,4.42145 -2.48661,5.26669 -1.36763,0.84525 -2.4866,0.28576 -2.4866,-1.2433 z m 64.1854,-4.18522 c 1.79503,-0.71831 3.93973,-0.62998 4.766,0.19619 0.82627,0.82627 -0.64239,1.41398 -3.26367,1.30601 -2.89676,-0.11935 -3.48596,-0.70853 -1.50233,-1.5023 z m 24.08896,-10.73439 c 5.16283,-4.10289 10.97757,-7.4598 12.92167,-7.4598 1.9441,0 2.79213,-1.20158 1.88447,-2.67016 -0.99307,-1.60687 0.25935,-1.47762 3.14508,0.32455 8.67312,5.41644 28.47706,-7.03763 35.91272,-22.58436 6.41926,-13.42161 9.59838,-24.80206 6.92844,-24.80206 -1.29649,0 -2.35725,-1.76052 -2.35725,-3.91222 0,-4.99041 7.27806,-3.72083 10.80836,1.88539 1.91563,3.04206 1.73801,5.87186 -0.64843,10.33096 -1.80768,3.3777 -2.52919,7.36693 -1.60336,8.86498 0.92584,1.49803 0.19321,2.7237 -1.62785,2.7237 -1.82116,0 -5.46334,3.99632 -8.09377,8.8807 -2.63042,4.8844 -7.6538,10.92521 -11.16307,13.42404 -5.72311,4.07522 -49.80407,22.45409 -53.85519,22.45409 -0.90132,0 2.58537,-3.35691 7.74818,-7.45981 z m -115.62697,-6.2165 c 0,-4.1996 1.13968,-6.25104 3.10825,-5.59485 1.70954,0.56985 3.10825,3.08753 3.10825,5.59485 0,2.50731 -1.39871,5.025 -3.10825,5.59485 -1.96857,0.65619 -3.10825,-1.39525 -3.10825,-5.59485 z m 144.22288,-8.25189 c 0,-3.00518 4.71758,-6.5089 6.44204,-4.78447 0.62588,0.62588 -0.56754,2.55339 -2.65203,4.28337 -2.36324,1.96131 -3.79001,2.14997 -3.79001,0.5011 z m 47.44175,-29.25434 c 0.11936,-2.89677 0.70853,-3.48597 1.5023,-1.50233 0.71833,1.795 0.62999,3.93969 -0.19619,4.76599 -0.82627,0.82628 -1.41398,-0.64239 -1.30601,-3.26366 z m -27.12783,184.28447 c 3.13369,-6.87769 0.086,-26.39925 -4.15101,-26.58903 -1.36763,-0.0612 -4.10229,4.39999 -6.07703,9.91393 -5.76173,16.08807 3.56636,31.29595 10.22804,16.6751 z m -58.40092,-1.77829 c -0.79377,-1.98364 -1.383,-1.39444 -1.5023,1.50233 -0.10792,2.62128 0.47974,4.08994 1.30601,3.26366 0.82627,-0.82629 0.91462,-2.97099 0.19619,-4.76599 z m 42.57181,-10.99821 -0.78924,-12.15827 -3.42875,10.38139 c -3.62415,10.97297 -2.12359,21.06594 2.45171,16.49064 1.40553,-1.40552 2.20034,-8.02672 1.76628,-14.71376 z m 115.27002,7.11289 0.39793,-9.32475 1.01416,8.23239 c 0.60437,4.90597 2.20191,7.8365 3.95362,7.2526 1.61669,-0.5389 2.82754,-2.28529 2.69078,-3.88084 -0.13676,-1.59558 -0.4165,-9.05538 -0.62165,-16.57735 -0.20514,-7.52197 -1.49196,-13.67631 -2.85959,-13.67631 -1.36763,0 -2.50374,2.51768 -2.52467,5.59485 -0.0199,3.07717 -1.12278,7.27331 -2.44853,9.32476 -1.94918,3.01614 -2.41773,2.65927 -2.44854,-1.86495 -0.0199,-3.07717 -1.15704,-5.59486 -2.52467,-5.59486 -1.38145,0 -2.4866,6.63095 -2.4866,14.91961 0,11.60415 0.82886,14.91961 3.7299,14.91961 2.58164,0 3.85242,-2.87068 4.12786,-9.32476 z m 33.65106,0.0473 c -0.63046,-2.41939 -1.18775,-1.04196 -1.23843,3.06093 -0.0507,4.10289 0.46514,6.08238 1.1463,4.39887 0.68113,-1.6835 0.72258,-5.04041 0.0922,-7.4598 z m -237.95034,-3.30226 c 0,-5.08328 0.94516,-7.02241 2.84925,-5.8456 2.02877,1.25384 2.33586,-0.28464 1.0664,-5.34251 -2.29175,-9.1311 -3.21358,-36.55312 -1.09768,-32.65328 0.88307,1.62758 3.5766,11.14425 5.98565,21.14817 2.84037,11.79505 5.1023,17.03966 6.43457,14.91961 1.12997,-1.79814 1.33322,-5.50728 0.4517,-8.24254 -0.88155,-2.73526 -3.93319,-16.72239 -6.78141,-31.08252 -5.17549,-26.09382 -5.183,-26.10946 -12.63838,-26.34718 -4.10289,-0.1308 -9.31205,1.34545 -11.57593,3.2806 -3.67196,3.13876 -4.28961,2.72857 -5.72383,-3.80142 -0.88426,-4.02593 -4.3471,-9.89339 -7.69523,-13.03879 -3.34814,-3.1454 -6.051,-5.24415 -6.00634,-4.66382 0.25975,3.37618 9.67201,27.43117 14.03428,35.86751 2.82871,5.47052 7.7812,21.97534 11.00557,36.67737 5.77158,26.31645 9.69138,34.05157 9.69138,19.1244 z m 62.16504,1.2433 c 0,-2.13216 -1.13722,-3.17379 -2.52716,-2.31477 -1.38993,0.85902 -1.8834,2.60352 -1.09654,3.87666 2.13161,3.44901 3.6237,2.8059 3.6237,-1.56189 z m 160.20127,-0.26905 c 0.87498,-2.28014 0.4352,-5.30136 -0.97726,-6.71382 -3.42913,-3.42912 -3.29,-20.72662 0.18401,-22.87365 1.93582,-1.1964 1.7939,-2.29307 -0.47853,-3.6975 -1.97861,-1.22286 -4.5693,-0.37966 -6.68498,2.17577 -3.21442,3.88258 -3.35932,3.87015 -2.0861,-0.17903 1.62506,-5.1683 -2.31065,-5.93112 -4.26913,-0.82744 -0.74376,1.93825 0.19321,4.11721 2.08226,4.84208 2.10319,0.80708 4.09466,7.15229 5.13737,16.3687 1.70158,15.04001 4.09406,18.71859 7.09241,10.90502 z m 45.03347,-11.39554 c 7.65276,-16.43756 8.23978,-27.45445 0.69555,-13.05466 -2.86606,5.47052 -7.27724,12.5956 -9.80263,15.83353 -4.51229,5.78545 -4.26104,10.27578 0.575,10.27578 1.34985,0 5.18927,-5.87459 8.53208,-13.05465 z m -209.34932,-0.62165 c 3.80788,-11.17556 1.61117,-15.47763 -3.25775,-6.37998 -2.48135,4.63647 -3.63302,17.56968 -1.56452,17.56968 0.55526,0 2.72527,-5.03537 4.82227,-11.1897 z m 178.07245,3.10825 c -0.0572,-3.07717 -2.11961,-9.37725 -4.58288,-14.00017 -5.70827,-10.71302 -8.47986,-5.27271 -4.76662,9.35631 2.7612,10.87822 9.52826,14.2394 9.3495,4.64386 z M 304.6018,-222.9595 c 1.3262,-5.12861 3.84194,-18.0947 5.5905,-28.81354 3.16077,-19.37577 3.14448,-19.51497 -2.80991,-24.00637 -6.12574,-4.62066 -7.56429,-4.63697 -22.06469,-0.25003 -4.59874,1.39133 -9.07462,2.43913 -9.9464,2.3285 -4.50659,-0.57197 -4.74198,1.18012 -1.30472,9.71252 6.33452,15.72445 24.44869,50.35368 26.33945,50.35368 0.98146,0 2.86954,-4.19614 4.19577,-9.32476 z m 208.95392,-18.97075 c 8.44147,-13.5111 15.00425,-26.35114 14.58399,-28.53346 -1.09833,-5.70317 -11.75662,-10.46655 -21.73461,-9.71356 -12.01337,0.90657 -18.22751,11.50004 -14.97538,25.52905 1.26617,5.46204 2.32882,17.14832 2.36145,25.96954 0.0346,9.32346 0.97146,15.04953 2.23786,13.67631 1.19822,-1.29925 9.08522,-13.41681 17.52669,-26.92788 z m -56.02699,6.95602 c 2.371,-6.17871 1.71969,-10.18634 -0.97726,-6.01313 -2.05002,3.17219 -2.41613,3.19079 -2.44853,0.12433 -0.0283,-2.68548 -0.75687,-2.88677 -2.85484,-0.7888 -3.04427,3.04427 -1.281,10.61088 2.4727,10.61088 1.26422,0 2.97781,-1.76996 3.80793,-3.93328 z m -137.74034,-13.32622 c 0,-6.75744 -1.108,-12.97106 -2.46223,-13.80803 -1.53739,-0.95013 -2.23789,3.66438 -1.86495,12.28508 0.73971,17.09909 4.32718,18.36169 4.32718,1.52295 z m 90.82347,-15.16753 c 0.87964,-1.42325 4.02282,-1.85696 6.98491,-0.9638 3.81457,1.1502 4.6448,0.83788 2.84612,-1.07071 -4.44212,-4.7135 -14.56786,-4.53745 -15.56881,0.27072 -0.98099,4.71226 3.13379,5.97714 5.73778,1.76379 z m 130.4079,-6.11534 c 0,-1.36764 -1.08468,-0.80815 -2.41044,1.2433 -1.32575,2.05144 -2.41043,4.84887 -2.41043,6.2165 0,1.36763 1.08468,0.80815 2.41043,-1.2433 1.32576,-2.05145 2.41044,-4.84887 2.41044,-6.2165 z m -211.28496,3.7299 c 0,-1.36763 -1.11897,-2.4866 -2.4866,-2.4866 -1.36763,0 -2.48661,1.11897 -2.48661,2.4866 0,1.36763 1.11898,2.4866 2.48661,2.4866 1.36763,0 2.4866,-1.11897 2.4866,-2.4866 z m 237.31662,-12.43301 c 1.04977,-5.66259 0.82416,-7.40003 -0.64577,-4.9732 -3.43295,5.66773 -6.23995,19.1375 -3.36825,16.16291 1.32033,-1.36763 3.12665,-6.403 4.01402,-11.18971 z m -346.81457,2.65007 c 3.45742,-6.46029 3.25872,-7.62327 -1.30258,-7.62327 -2.13216,0 -3.24084,-1.02876 -2.46375,-2.28613 0.77711,-1.25738 -0.35576,-4.05481 -2.51746,-6.21651 -2.1617,-2.1617 -3.34915,-3.93037 -2.6388,-3.93037 2.93632,0 -4.08156,-14.64026 -7.67975,-16.02102 -3.35102,-1.2859 -3.69516,0.30816 -2.40971,11.16178 1.45714,12.30325 9.80417,29.72525 14.24166,29.72525 1.20796,0 3.35465,-2.16438 4.77039,-4.80973 z m 199.68815,-0.48556 c -1.49919,-1.49919 -4.14777,-1.84702 -5.88568,-0.77293 -2.33418,1.4426 -1.90345,2.40904 1.64829,3.69844 5.8871,2.13721 7.90615,0.74325 4.23739,-2.92551 z m -12.97421,-0.29956 c -0.0721,-1.02572 -0.14845,-5.5016 -0.16934,-9.9464 -0.0291,-6.17861 -0.61461,-7.20322 -2.4866,-4.35156 -2.03024,3.09271 -2.82023,3.15356 -4.62431,0.35618 -2.72566,-4.2264 -5.81077,0.0681 -4.04878,5.63594 0.68824,2.17485 1.80746,5.71545 2.48714,7.86798 1.19867,3.79614 9.10606,4.18773 8.84196,0.43786 z m 39.65428,0.62165 c 0,-1.36763 -0.49344,-2.4866 -1.09654,-2.4866 -0.6031,0 -1.78812,1.11897 -2.63336,2.4866 -0.84525,1.36763 -0.35181,2.4866 1.09654,2.4866 1.44834,0 2.63336,-1.11897 2.63336,-2.4866 z m -10.02548,-12.11581 c -0.0664,-3.39998 -0.66283,-3.27533 -3.7299,0.77972 -4.75185,6.2825 -4.70155,10.33044 0.0791,6.36289 2.05145,-1.70255 3.69432,-4.91673 3.65083,-7.14261 z m 108.99222,6.64529 c 1.64116,-1.64116 2.98392,-4.63363 2.98392,-6.64994 0,-2.68041 -1.62186,-2.14239 -6.03242,2.00111 -3.31785,3.11696 -7.28952,4.89025 -8.82594,3.94069 -1.8377,-1.13575 -0.62446,-3.73671 3.54582,-7.60159 3.48663,-3.23131 6.30375,-7.32724 6.26026,-9.10208 -0.048,-1.95481 -1.52202,-1.31909 -3.73922,1.61256 -2.72457,3.60252 -4.37963,4.12008 -6.47489,2.02482 -3.18161,-3.18161 0.26077,-7.71167 9.69809,-12.76238 3.03535,-1.62448 5.25019,-3.7594 4.92191,-4.74429 -0.32831,-0.98489 2.01402,-4.40163 5.20515,-7.59276 7.81929,-7.8193 5.61169,-8.99175 -8.13979,-4.32301 -6.33181,2.14972 -13.55407,3.90856 -16.04945,3.90856 -2.4954,0 -8.33088,3.90449 -12.96777,8.67663 -4.63687,4.77216 -9.64978,8.68856 -11.13978,8.7031 -3.41313,0.0333 -9.03576,12.03612 -7.10312,15.16322 0.85273,1.3797 3.03939,1.43636 5.35798,0.13876 2.15451,-1.20573 5.99435,-1.64907 8.53292,-0.98522 2.53859,0.66385 7.35668,-0.589 10.70686,-2.78412 4.22578,-2.76883 6.60928,-3.15291 7.78279,-1.25415 1.78913,2.89491 -3.04231,7.05203 -8.27037,7.11609 -1.70953,0.0199 -3.10825,1.06379 -3.10825,2.31746 0,5.3266 21.9314,7.12038 26.8553,2.19649 z m -8.88664,-30.76836 c 2.3608,-2.47171 4.97432,-3.81206 5.80783,-2.97855 0.83351,0.8335 -1.09806,2.85583 -4.29235,4.49401 -5.55223,2.84745 -5.61892,2.78076 -1.51548,-1.51546 z m -92.74149,10.60446 c -0.16859,-5.2526 -0.25144,-5.26966 -2.31181,-0.47489 -2.94111,6.84432 -2.94111,9.27751 0,7.4598 1.36763,-0.84525 2.40795,-3.98846 2.31181,-6.98491 z m 106.31067,2.78877 c -0.79377,-1.98364 -1.383,-1.39444 -1.5023,1.50233 -0.10792,2.62128 0.47971,4.08994 1.30601,3.26366 0.82627,-0.82629 0.9146,-2.97099 0.19619,-4.76599 z m 18.15612,-5.27537 c 0.0199,-1.10644 -1.0809,-1.32014 -2.44853,-0.4749 -1.36763,0.84525 -2.46947,3.42898 -2.44853,5.74162 0.0328,3.62365 0.37122,3.68929 2.44853,0.47489 1.32576,-2.05145 2.4276,-4.63518 2.44853,-5.74161 z m -254.00843,1.07637 c 2.70348,-1.71374 2.63348,-2.36466 -0.37856,-3.5205 -3.84329,-1.47481 -6.6681,0.0617 -6.6681,3.62698 0,2.63105 2.7947,2.58882 7.04666,-0.10643 z m -94.64756,-3.2608 c -0.54134,-1.62408 -2.31381,-3.39603 -3.9388,-3.93769 -1.81709,-0.60568 -2.37282,0.53112 -1.4435,2.95284 1.73445,4.51992 6.87416,5.46038 5.3823,0.98485 z m 256.68981,-12.23282 c 0,-1.51394 1.67721,-2.10903 3.72714,-1.32239 2.0499,0.78663 6.24604,0.41777 9.32475,-0.81966 3.07869,-1.23744 4.1989,-2.3208 2.48937,-2.40748 -1.70954,-0.0868 -3.10246,-0.99685 -3.09535,-2.02258 0.007,-1.02572 9.66756,-2.08802 21.46773,-2.36068 20.95538,-0.48421 21.71181,-0.71574 32.49451,-9.9464 15.5384,-13.30185 24.15713,-33.58564 24.26846,-57.11468 0.0932,-19.68478 -1.71305,-23.71576 -7.86841,-17.56038 -3.53831,3.53831 -3.73477,6.09021 -1.42435,18.50148 2.31488,12.4353 2.04762,15.85201 -1.96143,25.07452 -5.16502,11.88178 -14.73147,26.24645 -16.38088,24.59704 -0.58716,-0.58716 2.26193,-6.52618 6.33131,-13.19781 7.35678,-12.06129 8.58021,-16.40983 7.96006,-28.29317 -0.25916,-4.96605 -0.80929,-5.46623 -2.73487,-2.48661 -1.93925,3.00076 -2.41789,2.6075 -2.44853,-2.01171 -0.0199,-3.18745 -1.14423,-5.05794 -2.52467,-4.20479 -1.36763,0.84525 -2.4866,-0.31958 -2.4866,-2.5885 0,-2.99404 -2.25239,-1.84096 -8.21357,4.20479 -11.63924,11.80442 -16.65245,19.74237 -16.65245,26.36765 0,6.99309 -6.08735,9.81976 -11.49046,5.33558 -3.35664,-2.78577 -4.50003,-2.56406 -7.42812,1.44038 -3.39374,4.6412 -3.4619,4.63938 -3.51613,-0.094 -0.0495,-4.32529 -0.57055,-4.1809 -5.01436,1.38969 l -4.95908,6.2165 2.59736,-7.18302 c 3.53647,-9.78025 1.64973,-10.63333 -5.02649,-2.27268 -5.49124,6.8767 -5.53971,6.88694 -3.65471,0.77209 1.66508,-5.40139 1.41647,-5.78712 -1.93644,-3.00446 -3.1331,2.60024 -4.10399,2.59663 -5.23321,-0.0199 -0.76254,-1.76663 -0.70385,0.049 0.1303,4.03496 1.30452,6.23279 0.89349,7.00784 -2.937,5.53793 -8.05121,-3.08953 0.57774,4.99402 9.09853,8.52345 6.84104,2.83363 8.09389,2.66996 11.10725,-1.45106 1.86806,-2.55471 3.39647,-3.37814 3.39647,-1.82984 0,1.54833 -1.11897,3.50668 -2.4866,4.35193 -1.36763,0.84524 -2.4866,2.65576 -2.4866,4.02339 0,1.36763 0.85156,1.96032 1.89238,1.31706 1.04079,-0.64326 4.05209,0.40969 6.69177,2.33986 2.63965,1.93015 4.22913,3.50939 3.53214,3.50939 -4.24078,0 -29.23127,-8.49256 -34.04046,-11.56801 -10.38141,-6.63888 -17.25196,4.84815 -9.23742,15.4443 2.29058,3.02844 3.68027,3.60257 3.7299,1.54095 0.0597,-2.47859 1.03438,-2.33057 3.96752,0.60258 2.13863,2.13865 3.25064,4.92044 2.47111,6.18174 -0.77955,1.2613 -0.0124,2.86001 1.70641,3.55266 5.1449,2.07422 6.85364,1.79982 6.85364,-1.10065 z m 2.4866,-12.08893 c 0,-1.32469 1.67845,-1.76447 3.7299,-0.97726 2.05145,0.78723 3.7299,1.87107 3.7299,2.40857 0,0.53748 -1.67845,0.97726 -3.7299,0.97726 -2.05145,0 -3.7299,-1.08386 -3.7299,-2.40857 z m -20.97625,-5.78013 c 0.93379,-2.45234 2.3242,-3.8324 3.0898,-3.0668 0.7656,0.7656 0.002,2.77204 -1.6978,4.4588 -2.45582,2.43751 -2.74143,2.1519 -1.392,-1.392 z m 55.78867,0.7289 c 2.05145,-1.32576 4.84887,-2.41044 6.2165,-2.41044 1.36763,0 0.80815,1.08468 -1.2433,2.41044 -2.05144,1.32575 -4.84887,2.41043 -6.2165,2.41043 -1.36763,0 -0.80815,-1.08468 1.2433,-2.41043 z m -32.32582,-12.43301 c 0,-1.36763 1.11897,-2.4866 2.4866,-2.4866 1.36763,0 2.4866,1.11897 2.4866,2.4866 0,1.36763 -1.11897,2.4866 -2.4866,2.4866 -1.36763,0 -2.4866,-1.11897 -2.4866,-2.4866 z m 32.32582,-4.70716 c 0,-1.22132 1.76996,-2.89978 3.93328,-3.72991 6.08292,-2.33424 6.88664,-1.82815 3.52652,2.22056 -3.43064,4.13368 -7.4598,4.94889 -7.4598,1.50935 z m -74.64793,25.78317 c -1.72998,-2.08449 -3.65749,-3.27791 -4.28337,-2.65204 -1.72443,1.72446 1.77929,6.44204 4.78447,6.44204 1.64887,0 1.46021,-1.42676 -0.5011,-3.79 z m 102.00055,-1.1832 c 0,-1.36763 -0.49345,-2.4866 -1.09655,-2.4866 -0.6031,0 -1.78811,1.11897 -2.63336,2.4866 -0.84524,1.36763 -0.3518,2.4866 1.09655,2.4866 1.44834,0 2.63336,-1.11897 2.63336,-2.4866 z m -109.41047,-14.65357 c 0,-4.1006 -1.60378,-7.80919 -3.7299,-8.62507 -4.2827,-1.64342 -5.21983,4.6581 -1.07379,7.22049 1.46088,0.90289 2.05547,3.20685 1.32135,5.11996 -0.73414,1.91312 -0.25092,3.47839 1.07377,3.47839 1.32471,0 2.40857,-3.23721 2.40857,-7.19377 z m 25.84327,-6.68592 c 2.29138,-5.97125 1.9224,-6.47936 -3.46386,-4.76983 -3.66806,1.16421 -4.9732,0.44685 -4.9732,-2.73347 0,-2.37154 -0.7286,-3.58331 -1.61908,-2.69281 -0.8905,0.8905 -3.03696,-0.31995 -4.76989,-2.68991 -1.73297,-2.36995 -4.00505,-3.45476 -5.04912,-2.41071 -1.84969,1.84968 13.18346,19.23001 16.63305,19.23001 0.95301,0 2.41198,-1.76996 3.2421,-3.93328 z m 160.60196,-7.31653 c -1.72998,-2.08449 -3.65749,-3.27791 -4.28337,-2.65203 -1.72443,1.72445 1.77929,6.44204 4.78447,6.44204 1.64887,0 1.46021,-1.42677 -0.5011,-3.79001 z m -435.10538,-8.643 c 0,-1.36763 -0.49344,-2.4866 -1.09654,-2.4866 -0.6031,0 -1.78812,1.11897 -2.63336,2.4866 -0.84525,1.36763 -0.35181,2.4866 1.09654,2.4866 1.44834,0 2.63336,-1.11897 2.63336,-2.4866 z m 88.27435,0 c 0.84525,-1.36763 0.35181,-2.4866 -1.09654,-2.4866 -1.44835,0 -2.63336,1.11897 -2.63336,2.4866 0,1.36763 0.49344,2.4866 1.09654,2.4866 0.6031,0 1.78812,-1.11897 2.63336,-2.4866 z m 339.42111,0.49732 c 0,-2.61509 -5.40078,-7.95713 -8.04461,-7.95713 -1.14222,0 -0.87906,2.23794 0.5848,4.97321 2.62824,4.91088 7.45981,6.84352 7.45981,2.98392 z M 340.9245,-376.50719 c 0,-6.46367 -2.27402,-8.09727 -5.04051,-3.62099 -0.88227,1.42756 -0.25182,4.22499 1.40103,6.21651 3.81357,4.59511 3.63948,4.71927 3.63948,-2.59552 z m 140.49299,5.11996 c 0,-0.6031 -1.11897,-1.78811 -2.4866,-2.63336 -1.36763,-0.84524 -2.4866,-0.3518 -2.4866,1.09654 0,1.44835 1.11897,2.63336 2.4866,2.63336 1.36763,0 2.4866,-0.49344 2.4866,-1.09654 z m 27.35262,-5.11996 c 0,-2.05145 -1.11897,-3.7299 -2.48661,-3.7299 -1.36763,0 -2.4866,1.67845 -2.4866,3.7299 0,2.05145 1.11897,3.7299 2.4866,3.7299 1.36764,0 2.48661,-1.67845 2.48661,-3.7299 z m -184.00852,-3.7299 c 0,-1.36763 -0.49344,-2.4866 -1.09654,-2.4866 -0.6031,0 -1.78811,1.11897 -2.63336,2.4866 -0.84524,1.36763 -0.3518,2.4866 1.09654,2.4866 1.44835,0 2.63336,-1.11897 2.63336,-2.4866 z m 103.59749,-5.59485 c -0.68981,-1.70954 -1.25421,-0.31083 -1.25421,3.10825 0,3.41907 0.5644,4.81779 1.25421,3.10825 0.68981,-1.70954 0.68981,-4.50697 0,-6.2165 z m 88.86532,-2.44854 c 1.72078,-1.14923 1.22,-1.84098 -1.3501,-1.86495 -4.35332,-0.0405 -7.86102,5.83606 -5.11971,8.57734 0.90298,0.903 2.11264,0.17306 2.68811,-1.62184 0.57548,-1.79503 2.27723,-4.08576 3.7817,-5.09055 z m -330.46919,-1.90302 c 0.84525,-1.36763 0.41782,-2.4866 -0.94981,-2.4866 -1.36763,0 -3.17815,1.11897 -4.02339,2.4866 -0.84525,1.36763 -0.41783,2.4866 0.94981,2.4866 1.36763,0 3.17815,-1.11897 4.02339,-2.4866 z m 7.91513,-5.43944 c -0.79378,-1.98363 -1.383,-1.39443 -1.50231,1.50233 -0.10792,2.62128 0.47974,4.08994 1.30601,3.26367 0.82628,-0.8263 0.91463,-2.971 0.1962,-4.766 z m 232.04192,-5.89702 c 0,-1.97073 -1.5737,-3.58315 -3.49711,-3.58315 -2.26629,0 -3.04196,1.7405 -2.2039,4.94523 1.41513,5.41147 5.70101,4.38749 5.70101,-1.36208 z m -183.15718,-25.92633 c 7.3262,-11.51438 14.75286,-14.87517 32.96839,-14.91919 8.34359,-0.0199 18.97381,-1.29867 23.62271,-2.84116 8.31537,-2.75901 15.38207,-8.92046 13.60226,-11.85977 -0.49909,-0.82424 2.05443,-3.68445 5.6745,-6.35603 5.50789,-4.06477 6.00387,-4.14069 3.03947,-0.46529 -3.2535,4.03381 -2.99994,4.25594 3.10825,2.72287 5.29121,-1.32799 6.65074,-0.78942 6.65074,2.63473 0,3.25295 0.79061,3.6478 3.23765,1.61694 1.78071,-1.47786 5.74184,-2.03215 8.8025,-1.23176 5.27843,1.38033 5.34724,1.69574 1.33637,6.12768 -6.60518,7.29865 -2.29438,8.14302 5.35938,1.04974 3.77098,-3.49482 9.66377,-6.35421 13.09511,-6.35421 5.88653,0 6.00644,0.25677 2.12351,4.54735 -4.1907,4.63065 -5.63467,12.87167 -2.25035,12.84315 1.02572,-0.007 3.85809,-3.51713 6.29413,-7.79662 2.43608,-4.27946 5.20108,-7.00898 6.1445,-6.06556 0.94341,0.94341 0.51651,2.49368 -0.94869,3.44503 -3.6191,2.34992 -8.38169,11.71742 -8.38169,16.4859 0,5.89304 6.98049,4.66678 13.50404,-2.37222 4.84452,-5.22733 6.84275,-5.87171 12.0586,-3.88867 3.43849,1.30733 6.92638,1.7024 7.75081,0.87797 2.13964,-2.13965 1.85719,-8.18649 -0.36598,-7.83546 -8.74103,1.38016 -10.3782,-0.48056 -9.36693,-10.64589 0.5664,-5.69327 2.70886,-12.03045 4.761,-14.08259 3.31717,-3.3172 3.56653,-3.06533 2.24729,2.26997 -1.67097,6.75766 -0.27614,6.09252 3.84123,-1.83176 3.55004,-6.83236 -2.54405,-10.02157 -8.24878,-4.31684 -5.13546,5.13546 -4.86332,1.28123 0.31343,-4.43903 4.20072,-4.64174 9.75183,-6.3929 7.20568,-2.27312 -1.68438,2.72536 3.57991,4.91708 7.95019,3.30994 1.70953,-0.62867 3.14226,-3.541 3.18387,-6.47186 0.0686,-4.82995 0.3139,-4.91959 2.62117,-0.95756 1.40006,2.40419 1.85948,5.48136 1.02095,6.83815 -0.83856,1.35679 -0.14472,2.46691 1.54217,2.46691 1.68673,0 0.35406,2.95092 -2.96152,6.55762 -4.12943,4.49199 -5.04922,6.90705 -2.92004,7.66701 5.04559,1.80089 3.55544,4.59738 -2.4866,4.66645 -3.07717,0.0353 -6.50739,-1.12374 -7.62271,-2.57539 -1.11529,-1.45166 -1.32187,-0.12881 -0.45905,2.93983 1.23139,4.37923 0.73161,5.25794 -2.3237,4.08551 -2.14087,-0.82152 -3.8925,-0.49906 -3.8925,0.71659 0,1.21568 2.85887,2.44692 6.35302,2.73608 3.49417,0.28919 5.83896,-0.30597 5.21064,-1.3226 -0.62829,-1.01662 1.46849,-1.84839 4.6595,-1.84839 5.43854,0 5.54713,0.28149 1.7341,4.49483 -5.10457,5.64049 -6.62617,16.04731 -2.98735,20.43179 2.91278,3.50971 12.93679,4.09093 10.79531,0.62595 -0.68357,-1.10604 -2.56424,-1.21843 -4.17928,-0.24978 -1.89902,1.13899 -1.80167,0.36026 0.27561,-2.20425 2.62498,-3.24066 2.62498,-4.17043 0,-5.08721 -2.43383,-0.85005 -2.15775,-2.3116 1.13951,-6.03247 2.39335,-2.70085 4.35155,-6.40775 4.35155,-8.23754 0,-1.82979 0.67872,-2.64816 1.50828,-1.81863 1.53376,1.53379 5.06578,-0.84293 13.21889,-8.89504 4.10747,-4.05657 4.91174,-4.11602 8.40613,-0.62165 4.61009,4.61008 12.02131,5.01388 16.15501,0.88018 2.32082,-2.32082 2.98392,-2.32082 2.98392,0 0,4.56428 6.71129,3.54793 8.57084,-1.29793 1.41085,-3.67664 1.98235,-3.76449 4.04319,-0.62165 2.07129,3.15878 2.85698,3.06406 5.73522,-0.69135 4.0458,-5.27883 6.51676,-5.57807 6.51676,-0.78922 0,4.88801 9.37315,7.46878 13.79564,3.79843 4.0473,-3.35895 4.99352,-8.50898 1.12397,-6.11746 -1.36763,0.84524 -2.4866,0.232 -2.4866,-1.36259 0,-1.59465 1.64263,-2.26907 3.65026,-1.49865 2.00766,0.7704 4.31164,0.33065 5.11996,-0.97726 0.80834,-1.3079 -0.55454,-2.41359 -3.02861,-2.45708 -4.26559,-0.0751 -4.25703,-0.26179 0.16511,-3.61045 4.75004,-3.59694 3.89141,-12.96877 -0.91598,-9.99765 -3.2395,2.00214 -3.15804,0.43665 0.38159,-7.33195 1.58717,-3.48343 3.82511,-6.33349 4.97323,-6.33349 1.14809,0 2.08745,-1.08386 2.08745,-2.40858 0,-3.22009 -7.51551,-0.18898 -13.64299,5.50258 -3.79751,3.52729 -4.20158,5.04467 -1.74726,6.56154 2.53134,1.56445 2.41004,2.62267 -0.58564,5.10885 -3.07588,2.55275 -4.49966,2.41429 -7.65876,-0.74479 -3.2286,-3.2286 -3.34861,-4.7321 -0.71448,-8.95004 1.7413,-2.78826 4.64135,-5.06956 6.4445,-5.06956 1.80319,0 2.6881,-0.95536 1.96643,-2.12299 -0.72163,-1.16766 1.45026,-3.3816 4.82647,-4.91989 6.05212,-2.75754 7.91647,-6.46797 4.27358,-8.50527 -1.02573,-0.57364 -0.30862,-0.64152 1.59361,-0.15094 4.94421,1.27538 12.70434,-1.57466 12.70434,-4.66586 0,-1.53662 -1.785,-1.20968 -4.30863,0.7892 -4.0871,3.23728 -4.0871,3.06566 0,-3.33794 4.8168,-7.54686 5.51175,-11.89883 1.90006,-11.89883 -1.32469,0 -1.87092,1.401 -1.21383,3.11337 0.65708,1.71235 -1.12325,4.56095 -3.95629,6.33022 -4.7317,2.95497 -4.93669,2.81637 -2.51815,-1.70268 1.44807,-2.70575 3.78841,-7.95889 5.20075,-11.67365 2.31973,-6.10132 2.17473,-6.42779 -1.50024,-3.37782 -2.23749,1.85694 -5.04285,5.93994 -6.23416,9.07331 -1.19133,3.13339 -3.44971,5.69705 -5.01863,5.69705 -2.0378,0 -1.96842,-1.06541 0.24294,-3.7299 1.70255,-2.05145 2.31913,-3.7299 1.37017,-3.7299 -0.94897,0 0.0331,-1.75838 2.18211,-3.90752 5.57384,-5.57385 4.95993,-9.26369 -1.00971,-6.06885 -3.78913,2.02787 -4.63393,1.89327 -3.68226,-0.58667 0.67924,-1.77009 3.60428,-4.31365 6.50013,-5.65239 2.89582,-1.33876 5.01674,-3.42796 4.71318,-4.64269 -0.30359,-1.21472 0.73695,-3.00518 2.31231,-3.97881 1.57539,-0.97362 3.1187,-3.50354 3.42962,-5.62203 0.31095,-2.11846 2.05202,-5.64309 3.86908,-7.83252 2.54307,-3.06424 2.63331,-4.78855 0.39192,-7.48927 -1.99055,-2.39848 -2.08689,-4.01837 -0.30449,-5.11996 1.43405,-0.88628 2.60735,-0.61292 2.60735,0.6075 0,1.2204 1.67846,2.21892 3.7299,2.21892 4.48193,0 5.06342,-4.06012 0.62165,-4.34066 -2.4866,-0.15716 -2.4866,-0.44714 0,-1.45051 4.01542,-1.62027 4.01542,-7.50844 0,-9.17589 -2.15337,-0.89423 -1.38946,-2.79911 2.48661,-6.20066 6.47752,-5.68452 7.03683,-7.84264 2.03252,-7.84264 -1.95929,0 -4.25448,2.1807 -5.10039,4.84601 -0.84595,2.66529 -3.93607,5.60709 -6.86693,6.5373 -2.93088,0.93024 -7.35121,4.06465 -9.82297,6.96537 -4.48914,5.26816 -4.49065,5.26712 -1.3738,-0.94247 1.71618,-3.41908 6.19375,-9.24282 9.95016,-12.94164 3.75641,-3.69882 6.81272,-8.1747 6.79178,-9.94641 -0.0271,-2.29784 -0.72907,-2.15203 -2.44853,0.50864 -1.60696,2.4866 -2.42314,2.69381 -2.44853,0.62165 -0.0199,-1.70954 -1.71653,-3.10826 -3.76797,-3.10826 -2.05145,0 -3.7299,0.85918 -3.7299,1.90929 0,2.99598 -39.4704,43.99363 -40.93998,42.52407 -0.72194,-0.72196 1.48037,-3.93656 4.89405,-7.14353 3.41368,-3.207 6.20671,-7.38034 6.20671,-9.27411 0,-1.89377 1.11897,-2.75165 2.4866,-1.9064 1.36763,0.84525 2.4866,0.3518 2.4866,-1.09654 0,-1.44835 1.23768,-2.63336 2.75038,-2.63336 3.04514,0 11.68143,-10.19954 16.56748,-19.56632 2.64895,-5.07819 2.52328,-6.7462 -0.78363,-10.40029 -4.22714,-4.67096 -1.02617,-9.09977 4.22939,-5.85167 1.77866,1.09928 2.19582,0.68213 1.09654,-1.09654 -0.97584,-1.57894 -3.38668,-2.87081 -5.35741,-2.87081 -1.97073,0 -3.58314,-1.33848 -3.58314,-2.97439 0,-1.63591 -3.89964,0.80528 -8.66586,5.42489 -4.76621,4.61961 -9.42859,7.63653 -10.36084,6.7043 -0.93223,-0.93225 -0.41532,-1.69499 1.14873,-1.69499 4.0223,0 11.18556,-11.66627 9.16783,-14.931 -1.19976,-1.94126 -2.68048,-1.88556 -5.18755,0.1952 -2.68595,2.22914 -3.50852,2.21817 -3.50852,-0.0467 0,-1.78906 -1.89303,-2.35782 -4.78865,-1.4388 -3.14587,0.99847 -5.67907,-0.01 -7.38419,-2.94068 -2.23652,-3.84356 -2.606,-3.90075 -2.67115,-0.41347 -0.0415,2.22591 -2.03382,5.58282 -4.42717,7.45981 -3.94099,3.09074 -4.03061,3.00341 -0.94983,-0.92557 1.87096,-2.38606 2.81495,-6.5822 2.09774,-9.32475 -0.71718,-2.74255 -0.28976,-4.98646 0.94983,-4.98646 1.2396,0 2.25381,-1.01421 2.25381,-2.2538 0,-1.2396 -2.23794,-1.66859 -4.9732,-0.95329 -2.73526,0.71529 -4.97321,2.15849 -4.97321,3.20709 0,1.04863 -2.15421,2.46992 -4.78715,3.15843 -3.22667,0.84381 -4.3839,0.20092 -3.55007,-1.97192 0.6855,-1.7864 -1.07874,-3.95885 -3.95673,-4.87227 l -5.19384,-1.64847 5.18332,-7.27928 5.18332,-7.2793 h -5.88852 c -3.23868,0 -7.36822,1.39871 -9.1768,3.10825 -5.69469,5.3829 1.90327,-7.69106 8.0306,-13.81839 6.83112,-6.83112 31.56208,-8.81555 31.56208,-2.53256 0,2.42327 1.40352,3.2898 3.82402,2.36096 2.12518,-0.81551 4.41999,0.0855 5.16547,2.02829 2.04645,5.33294 6.79805,6.17356 10.78298,1.9077 3.16778,-3.3911 2.96315,-3.67383 -1.7641,-2.43764 -3.77854,0.98813 -6.41242,-0.22703 -8.9771,-4.14106 -1.9963,-3.04674 -5.12474,-5.65712 -6.95209,-5.8009 -1.82736,-0.14372 -7.79836,-1.5625 -13.26888,-3.15273 -5.47053,-1.59023 -13.82834,-3.23418 -18.57293,-3.65317 -4.74458,-0.41899 -9.03397,-1.98418 -9.53196,-3.47818 -1.13446,-3.40341 -10.43744,-3.60821 -10.43744,-0.22976 0,1.36763 2.23795,2.4866 4.97321,2.4866 2.73526,0 4.9732,1.18931 4.9732,2.64291 0,1.45359 -2.06644,2.29282 -4.59206,1.86495 -2.52564,-0.42787 -5.04332,0.34101 -5.59485,1.70864 -0.55155,1.36763 1.51489,2.84418 4.59206,3.2812 3.07717,0.43702 5.59485,-0.27977 5.59485,-1.5929 0,-2.91989 17.23377,-5.22236 18.90071,-2.52516 0.65591,1.0613 -2.76891,3.58488 -7.61077,5.60793 -4.84183,2.02305 -8.80334,4.83301 -8.80334,6.24438 0,1.41137 -2.79742,3.26821 -6.2165,4.12636 -3.41908,0.85813 -6.21651,3.11738 -6.21651,5.02058 0,1.90317 -1.55875,3.46033 -3.46386,3.46033 -1.90513,0 -4.10794,1.67845 -4.89517,3.7299 -0.78721,2.05144 -2.75881,3.7299 -4.38132,3.7299 -1.84943,0 -1.41269,-1.69877 1.17067,-4.55334 2.26641,-2.50436 3.27906,-5.48117 2.25035,-6.61518 -1.02871,-1.13399 -0.47166,-1.2569 1.23788,-0.2731 1.70954,0.98379 3.10825,0.60372 3.10825,-0.84463 0,-3.59475 -5.71448,-3.31966 -9.86497,0.47489 -1.86987,1.70954 -0.85111,-1.36763 2.26395,-6.83815 l 5.66376,-9.94641 -5.6097,4.97321 -5.6097,4.9732 2.93591,-5.59485 c 1.61477,-3.07717 4.66824,-5.59486 6.78556,-5.59486 2.11729,0 3.37899,-1.39871 2.80379,-3.10825 -0.59681,-1.77377 -3.97289,-2.75391 -7.86353,-2.2829 -6.21456,0.75235 -6.57258,0.36737 -4.04709,-4.35155 3.20921,-5.99647 2.61956,-6.21417 -6.08655,-2.24739 -3.53627,1.61124 -5.90001,4.30958 -5.25275,5.99631 0.87538,2.28126 -0.70458,2.52721 -6.16841,0.9602 -5.18489,-1.48701 -6.84549,-1.29795 -5.64605,0.64277 1.09706,1.77506 0.23299,2.18666 -2.43862,1.16151 -2.70181,-1.03676 -4.13782,-0.32045 -4.13782,2.06403 0,2.00853 1.67845,3.65187 3.7299,3.65187 2.05144,0 3.7299,-1.18501 3.7299,-2.63336 0,-1.44834 1.1733,-1.90819 2.60735,-1.02192 4.02449,2.48728 -2.21297,8.62374 -6.92697,6.81481 -2.62352,-1.00673 -3.3504,-0.53818 -2.15805,1.3911 1.59786,2.58537 -2.90321,4.17633 -9.06359,3.20364 -1.02572,-0.16188 -1.58521,0.96438 -1.2433,2.50296 0.34191,1.53859 -0.89448,3.34943 -2.74755,4.0241 -2.48215,0.9037 -2.90992,-0.22032 -1.62484,-4.2693 1.41856,-4.46947 0.88677,-5.32033 -2.84731,-4.5556 -2.71629,0.5563 -4.29324,2.68085 -3.86099,5.20177 0.49249,2.87247 -0.92582,4.26141 -4.35156,4.26141 -2.79521,0 -5.08221,1.19437 -5.08221,2.65418 0,1.52257 -2.1203,1.9812 -4.97321,1.07572 -5.3203,-1.6886 -5.75058,-0.66762 -3.40592,8.08146 1.69059,6.30846 4.8631,7.03944 10.7918,2.4866 2.22616,-1.70954 1.19529,-0.57324 -2.2908,2.5251 -3.48612,3.09835 -8.29205,7.48551 -10.67988,9.74924 -6.00437,5.69235 -7.86943,2.81423 -2.15268,-3.322 4.06607,-4.36439 4.22824,-5.73239 1.30517,-11.00873 -2.16782,-3.91304 -3.36875,-4.6636 -3.42597,-2.14114 -0.0485,2.13616 -3.72478,6.52221 -8.16958,9.74676 -7.5489,5.47644 -7.76928,5.50727 -3.3445,0.4676 2.60531,-2.96734 4.14069,-5.39518 3.41192,-5.39518 -4.03011,0 -19.33858,7.90001 -19.33858,9.97978 0,1.34928 -0.93198,2.45323 -2.07104,2.45323 -1.13909,0 -1.79182,-2.51769 -1.45051,-5.59485 0.34129,-3.07717 0.71376,-6.40534 0.82774,-7.39595 0.24046,-2.08932 14.49458,-9.81735 16.26345,-8.81734 0.6538,0.36961 3.3483,-1.17704 5.98776,-3.43701 3.62571,-3.10445 5.50526,-3.40841 7.68772,-1.2433 2.18801,2.17058 2.48424,1.80331 1.22127,-1.51402 -1.21224,-3.18404 -0.68237,-4.00173 1.94089,-2.99508 1.98461,0.76157 5.04363,-0.34472 6.79783,-2.45841 1.75419,-2.11368 5.57013,-3.86795 8.47985,-3.89837 6.65119,-0.0696 18.39039,-8.85521 15.48086,-11.58599 -1.19255,-1.11925 -2.70997,-0.50968 -3.37213,1.3546 -0.95992,2.70281 -1.60099,2.74705 -3.1638,0.21832 -1.53242,-2.47951 -2.86148,-2.26967 -6.09312,0.96194 -4.49085,4.49086 -7.42143,5.53016 -5.12742,1.81841 2.77942,-4.49725 -3.56574,-5.29768 -9.76998,-1.23249 -3.8183,2.50185 -6.28675,3.0306 -6.28675,1.34665 0,-1.52494 -1.16803,-2.77259 -2.59562,-2.77259 -1.42758,0 -2.26681,1.84212 -1.86495,4.09359 0.40186,2.25147 -0.94779,4.5746 -2.99924,5.16251 -2.98011,0.85405 -3.05911,0.59808 -0.393,-1.27339 2.52805,-1.77456 1.79286,-2.63749 -3.03301,-3.56002 -3.50345,-0.66971 -5.98838,-0.54008 -5.5221,0.28808 0.46632,0.82816 -1.52575,3.74368 -4.42679,6.47894 -2.90102,2.73526 -4.43538,3.91018 -3.40966,2.61093 3.20024,-4.05363 2.07191,-5.53266 -3.7299,-4.88918 -3.07717,0.34128 -7.47766,0.71375 -9.77883,0.82774 -2.3012,0.11388 -4.81744,2.20303 -5.59167,4.64238 -0.77421,2.43936 -4.48628,6.25754 -8.24903,8.48486 -3.76273,2.2273 -10.75773,7.47875 -15.54444,11.66989 -4.78671,4.19115 -14.01822,11.61393 -20.51446,16.49507 -6.49625,4.88118 -11.81136,10.50204 -11.81136,12.49085 0,1.98878 -1.11897,3.61599 -2.4866,3.61599 -1.36763,0 -2.4866,1.50504 -2.4866,3.34451 0,1.83948 -2.23795,5.36981 -4.97321,7.8452 -4.16747,3.7715 -4.9732,3.88327 -4.9732,0.68986 0,-2.09596 1.63511,-5.16786 3.6336,-6.82645 1.9985,-1.65858 4.39927,-5.42795 5.33505,-8.37639 0.93578,-2.94841 3.49504,-6.67227 5.68723,-8.27523 2.19221,-1.60297 3.22487,-3.67542 2.29483,-4.60546 -2.75423,-2.75426 -14.30111,7.09171 -14.38596,12.26685 -0.043,2.62128 -0.83248,4.01166 -1.75444,3.0897 -1.5863,-1.58633 -9.3627,9.5775 -16.17915,23.22682 -1.70747,3.41908 -5.66184,10.39042 -8.78745,15.49186 -3.12561,5.10143 -5.68293,11.60156 -5.68293,14.44471 0,3.14652 -1.07727,4.50356 -2.75299,3.46792 -1.84016,-1.13727 -2.21322,-7.2e-4 -1.12511,3.4276 0.89535,2.821 0.56973,7.15726 -0.72358,9.63616 -15.88608,30.44883 -26.17777,57.96902 -21.67864,57.96902 0.93168,0 3.96248,-5.12837 6.73511,-11.39637 2.77264,-6.268 5.59779,-10.83972 6.27815,-10.15938 0.68033,0.68036 0.0273,3.4972 -1.45108,6.25969 -3.26906,6.10831 -3.51021,11.12449 -0.44369,9.22925 2.62429,-1.62189 7.70203,11.63881 7.70203,20.11417 0,3.215 -1.01421,5.84545 -2.25381,5.84545 -1.23959,0 -1.66856,-2.23794 -0.95329,-4.9732 0.72711,-2.7805 0.0763,-4.97321 -1.47609,-4.97321 -1.52715,0 -2.77662,2.75332 -2.77662,6.11846 0,3.36517 -1.50919,7.52826 -3.35375,9.25133 -3.56701,3.33209 -2.55779,12.85625 1.12138,10.5824 1.19648,-0.73944 1.43447,0.58637 0.5289,2.94628 -1.26165,3.28778 -0.67374,3.91746 2.51507,2.69378 4.45843,-1.71083 5.81522,1.90469 1.675,4.46348 -4.6212,2.85606 -2.52581,5.761 3.10826,4.3092 4.89592,-1.26163 5.18578,-0.94269 2.32022,2.553 -2.76364,3.37135 -2.50495,4.76442 1.65772,8.92709 2.7128,2.71281 5.5851,4.27964 6.3829,3.48187 0.79778,-0.79778 1.45051,-0.14497 1.45051,1.45051 0,1.59557 -1.20103,2.90104 -2.66892,2.90104 -4.14332,0 -1.45665,8.6946 2.7096,8.76883 2.02907,0.036 5.0856,0.93996 6.79226,2.00847 2.26141,1.41583 2.89239,0.0199 2.32638,-5.15139 -0.42714,-3.90177 -1.562,-8.36493 -2.52193,-9.91811 -0.9599,-1.55318 -0.70366,-3.46774 0.56948,-4.25457 1.27312,-0.78684 2.86733,-0.0249 3.54264,1.69312 0.67531,1.71807 0.64756,-0.93013 -0.0617,-5.88489 -0.73211,-5.11439 -0.14298,-9.71716 1.36253,-10.64767 1.45862,-0.9015 2.02417,-3.27526 1.25678,-5.27505 -0.76739,-1.9998 -2.39696,-3.0169 -3.62129,-2.26023 -4.04602,2.50058 -2.3103,-10.67187 1.86254,-14.13501 3.66185,-3.03907 3.88395,-2.74849 2.12791,2.78427 -1.7123,5.39501 -1.47179,5.77178 1.89887,2.97438 5.73505,-4.75966 12.01513,-19.35439 10.27712,-23.88364 -0.98777,-2.57408 -0.16511,-3.95675 2.35402,-3.95675 2.12982,0 5.11757,-1.9582 6.6395,-4.35155 2.32012,-3.64859 2.53944,-3.27153 1.35773,2.33419 -0.77515,3.67719 -0.2407,7.40801 1.1875,8.29073 1.42828,0.88272 1.91648,3.74873 1.08486,6.36891 -1.88795,5.94837 0.84559,6.1479 5.64946,0.41238 2.56485,-3.0623 2.46188,-2.35151 -0.34753,2.39912 -4.38069,7.40756 -5.27846,12.98727 -1.73751,10.79886 1.24009,-0.76642 1.66908,0.84599 0.95329,3.58315 -0.83068,3.17651 -0.0721,4.99041 2.09685,5.0147 2.24219,0.0251 2.48003,0.65957 0.69916,1.86495 -1.48453,1.00479 -3.83549,3.90757 -5.22438,6.45062 -2.22779,4.07909 -2.70617,4.1523 -4.06099,0.62165 -0.84468,-2.20114 -0.41253,-4.00209 0.9603,-4.00209 1.64643,0 1.62288,-1.63151 -0.0691,-4.79307 -1.41085,-2.63617 -1.83138,-6.70527 -0.93454,-9.0424 1.14182,-2.97554 0.5801,-3.9029 -1.87388,-3.09361 -1.92746,0.63565 -3.87832,3.70994 -4.33526,6.83179 -0.52632,3.59595 0.15715,5.06551 1.86495,4.01002 3.7386,-2.31058 3.22331,1.19936 -1.25874,8.57388 l -3.77822,6.2165 1.03492,-6.83816 c 0.56921,-3.76098 0.14522,-6.83815 -0.94219,-6.83815 -2.63264,0 -0.24021,-12.66011 3.16845,-16.76743 1.48147,-1.78505 2.10229,-3.83687 1.37959,-4.55955 -0.72271,-0.72271 -3.85933,2.80441 -6.97029,7.83804 -4.58997,7.42671 -5.11221,10.02329 -2.77025,13.77336 1.58732,2.54173 2.88605,6.25935 2.88605,8.26138 0,2.00204 1.9582,4.7942 4.35155,6.20475 3.79528,2.23682 3.87475,2.88348 0.62165,5.05869 -2.05145,1.37171 -2.55498,2.51117 -1.11897,2.5321 1.43601,0.0199 3.9537,-1.30469 5.59485,-2.94585 3.94452,-3.94452 3.76614,-1.21505 -0.60414,9.24452 -3.12996,7.49103 -3.12752,9.04799 0.0199,12.19459 2.29802,2.29804 2.68304,4.17826 1.06091,5.18081 -1.4005,0.86551 -1.95032,2.538 -1.22189,3.71662 0.72842,1.17863 0.18724,2.84582 -1.20275,3.70484 -1.38993,0.85902 -2.4869,2.89455 -2.43769,4.52337 0.10046,3.32782 7.3824,-5.09497 15.68148,-18.13839 z m 128.45194,-11.09907 c 0,-0.94896 1.67846,-3.40386 3.72991,-5.45531 2.05144,-2.05144 3.7299,-2.66799 3.7299,-1.37014 0,1.29786 -1.67846,3.75273 -3.7299,5.45528 -2.05145,1.70255 -3.72991,2.31913 -3.72991,1.37017 z m -171.5755,-18.48288 c 0,-1.36764 1.11897,-3.17815 2.4866,-4.0234 1.36763,-0.84525 2.4866,-0.41782 2.4866,0.94981 0,1.36763 -1.11897,3.17815 -2.4866,4.02339 -1.36763,0.84525 -2.4866,0.41783 -2.4866,-0.9498 z m 89.51942,-0.317 c -9.7e-4,-0.69674 2.19477,-2.63858 4.87943,-4.31517 4.237,-2.64604 4.66566,-2.47884 3.24803,1.2668 -1.20029,3.17134 0.80153,2.469 7.5518,-2.64952 10.34931,-7.84759 12.36883,-6.50269 3.1144,2.07404 -5.22002,4.83774 -18.78836,7.45404 -18.79366,3.62385 z m 205.14286,-4.9497 c 0.84524,-1.36763 2.03026,-2.4866 2.63336,-2.4866 0.6031,0 1.09654,1.11897 1.09654,2.4866 0,1.36763 -1.18501,2.4866 -2.63336,2.4866 -1.44835,0 -1.94179,-1.11897 -1.09654,-2.4866 z m -239.40997,-7.41179 c 1.69171,-2.70885 4.75204,-5.5684 6.80073,-6.35456 2.04869,-0.78616 1.03848,1.43017 -2.2449,4.92519 -7.15756,7.61887 -8.72917,8.11196 -4.55583,1.42937 z m 12.95161,1.01767 c 2.14915,-2.14912 3.99587,-5.78578 4.10384,-8.08146 0.1109,-2.35777 0.72203,-2.88145 1.40456,-1.20354 1.51697,3.72936 -3.38887,13.19252 -6.83918,13.19252 -1.41721,0 -0.81834,-1.75838 1.33078,-3.90752 z m 96.30441,-1.06569 c 0,-3.41907 0.56439,-4.81779 1.2542,-3.10825 0.6898,1.70954 0.6898,4.50697 0,6.21651 -0.68981,1.70953 -1.2542,0.31082 -1.2542,-3.10826 z m 51.826,1.02023 c 0,-2.62861 11.09594,-10.79901 14.78106,-10.8839 1.97523,-0.0455 -0.20042,2.71469 -4.83465,6.13377 -8.93695,6.59347 -9.94641,7.07558 -9.94641,4.75013 z m -219.40613,-4.01914 c -1.30499,-3.91496 0.69145,-14.40879 2.74004,-14.40235 2.46641,0.007 2.86312,14.59349 0.43769,16.09249 -1.19228,0.73688 -2.62225,-0.0249 -3.17773,-1.69014 z m 55.41342,-7.8408 c 2.71064,-4.59422 7.39045,-10.46882 10.39956,-13.05466 l 5.47112,-4.70154 -4.35988,6.2165 c -2.39793,3.41908 -6.27626,9.28661 -8.61849,13.03894 -6.13377,9.82653 -8.76882,8.46066 -2.89231,-1.49924 z m 126.69369,6.17386 c 0,-1.11273 2.49841,-4.15479 5.55201,-6.7601 3.40179,-2.90242 4.37316,-3.20382 2.50816,-0.77826 -1.67411,2.17727 -2.44577,4.55672 -1.71486,5.28766 0.73093,0.73093 -0.39773,1.99157 -2.50816,2.80143 -2.11043,0.80983 -3.83715,0.56202 -3.83715,-0.55073 z m -21.82871,-3.2028 c 0.53084,-1.59249 3.70126,-4.61859 7.04539,-6.72464 l 6.08021,-3.82919 -6.02829,6.72464 c -6.50759,7.25929 -8.6207,8.39937 -7.09731,3.82919 z m 11.8823,0.3308 c 0,-1.32469 1.67846,-2.40855 3.7299,-2.40855 2.05145,0 3.72991,0.43975 3.72991,0.97726 0,0.5375 -1.67846,1.62134 -3.72991,2.40857 -2.05144,0.78721 -3.7299,0.34743 -3.7299,-0.97728 z m 80.81455,-4.89515 c -0.84524,-1.36763 0.27373,-2.4866 2.4866,-2.4866 2.21288,0 3.33185,1.11897 2.4866,2.4866 -0.84524,1.36763 -1.96421,2.4866 -2.4866,2.4866 -0.52238,0 -1.64135,-1.11897 -2.4866,-2.4866 z m -54.70523,-7.45981 c 0.84524,-1.36763 2.65576,-2.4866 4.02339,-2.4866 1.36763,0 1.79506,1.11897 0.94981,2.4866 -0.84524,1.36763 -2.65576,2.4866 -4.0234,2.4866 -1.36763,0 -1.79505,-1.11897 -0.9498,-2.4866 z m 81.02176,-0.64816 c 0.56985,-0.35647 3.83351,-2.87416 7.25259,-5.59485 l 6.2165,-4.94669 -4.73695,5.59485 c -2.60531,3.07717 -5.86897,5.59485 -7.25257,5.59485 -1.38362,0 -2.0494,-0.29168 -1.47957,-0.64816 z m -264.60114,-18.88645 c 0.81071,-3.10015 0.23225,-5.3314 -1.38242,-5.3314 -1.52715,0 -2.77662,1.30546 -2.77662,2.90104 0,1.59555 -0.52852,2.37249 -1.17452,1.7265 -0.64597,-0.64597 1.19899,-8.12577 4.09994,-16.62174 2.90094,-8.49597 5.77893,-14.94273 6.39554,-14.32613 0.61662,0.6166 -0.22082,5.18745 -1.86115,10.15742 -3.74515,11.34788 -1.6945,13.88588 3.69357,4.57139 3.94236,-6.81523 3.76526,-5.79744 -1.80067,10.34822 -3.08866,8.95954 -7.16763,14.12315 -5.19367,6.5747 z m 11.38222,2.79983 c -4.18249,-1.46115 -3.91256,-6.11604 0.85149,-14.68514 3.05959,-5.5033 3.68557,-5.88029 2.75364,-1.65844 -0.7293,3.30385 0.0945,5.76145 2.08372,6.2165 2.60631,0.59619 2.67998,1.83922 0.35461,5.98274 -1.61435,2.8766 -4.33392,4.74155 -6.04346,4.14434 z m -29.0577,-21.29314 c 0.93379,-2.45233 2.32423,-3.8324 3.0898,-3.0668 0.7656,0.7656 0.002,2.77204 -1.6978,4.4588 -2.45582,2.43752 -2.74143,2.15191 -1.392,-1.392 z m 232.33738,-3.64615 c 0,-1.03865 2.51768,-3.43512 5.59485,-5.32546 5.57499,-3.42477 5.57802,-3.41805 0.8579,1.88848 -5.06789,5.6975 -6.45275,6.43512 -6.45275,3.43698 z m -221.30754,-3.54833 c 0,-2.14537 1.67846,-5.29368 3.7299,-6.99623 4.74543,-3.93835 4.69732,-0.24493 -0.0791,6.07012 -2.92263,3.86405 -3.65083,4.04878 -3.65083,0.92611 z m -6.17493,-9.59811 c 0.52343,-6.09093 1.00795,-11.9797 1.0767,-13.08614 0.0686,-1.10644 1.29301,-1.28985 2.72057,-0.40758 1.42753,0.88227 4.22496,0.25182 6.2165,-1.40102 5.10656,-4.23807 4.59937,-2.49329 -3.67224,12.6325 l -7.2932,13.33667 z m 222.50926,9.12287 c 0,-0.51637 1.9582,-2.47457 4.35156,-4.35155 3.9439,-3.09304 4.03185,-3.00509 0.93884,0.93881 -3.24842,4.14206 -5.2904,5.45929 -5.2904,3.41274 z m -230.86279,-10.25089 c -0.007,-1.36763 1.49541,-6.403 3.33876,-11.18971 1.84334,-4.78671 3.3862,-7.02465 3.42857,-4.9732 0.0423,2.05144 -1.46008,7.08681 -3.33876,11.18971 -1.8787,4.10289 -3.42156,6.34083 -3.42857,4.9732 z m 300.73727,-20.40137 c 1.81061,-3.01498 3.82725,-4.94653 4.48142,-4.29235 0.65418,0.65418 -0.82721,3.12096 -3.29201,5.48176 -4.28178,4.10113 -4.33477,4.04814 -1.18941,-1.18941 z m 9.9464,-2.4866 c 1.81062,-3.01498 3.82725,-4.94653 4.48143,-4.29235 0.65417,0.65417 -0.82722,3.12096 -3.29201,5.48176 -4.28178,4.10113 -4.33477,4.04814 -1.18942,-1.18941 z m -301.21589,-3.05788 c 1.41575,-2.64534 2.57408,-7.04131 2.57408,-9.76879 0,-2.72747 1.67846,-6.63751 3.7299,-8.68895 2.05145,-2.05145 3.72991,-5.33739 3.72991,-7.30208 0,-4.1341 9.3114,-16.67587 12.38068,-16.67587 1.14034,0 1.49139,2.22536 0.78013,4.94523 -0.71127,2.71989 -2.27214,4.34021 -3.46864,3.60077 -1.19648,-0.73949 -1.55246,0.2789 -0.79106,2.26303 0.76137,1.98413 0.18898,4.34623 -1.2718,5.24912 -1.46085,0.90286 -2.65611,3.81347 -2.65611,6.46802 0,2.65455 -1.22649,4.5467 -2.72557,4.20479 -3.7117,-0.84656 -7.74812,9.94867 -4.47603,11.97093 1.5084,0.93225 0.71306,2.9357 -1.97436,4.97327 -6.41381,4.86288 -8.82293,4.35078 -5.83113,-1.23947 z m 273.6318,-21.77447 c 0.0224,-2.58995 26.11757,-30.60763 28.50635,-30.60763 1.87982,0 -22.37613,28.81941 -26.29382,31.24069 -1.22689,0.75824 -2.22253,0.47338 -2.21253,-0.63306 z m -4.99136,-12.90792 c 0,-1.36764 1.11897,-3.17816 2.4866,-4.0234 1.36763,-0.84525 2.48661,-0.41782 2.48661,0.94981 0,1.36763 -1.11898,3.17815 -2.48661,4.02339 -1.36763,0.84525 -2.4866,0.41783 -2.4866,-0.9498 z m -87.03105,-28.58493 c 0,-0.51637 1.9582,-2.47457 4.35155,-4.35155 3.9439,-3.09304 4.03185,-3.00509 0.93884,0.93881 -3.24842,4.14206 -5.29039,5.45929 -5.29039,3.41274 z m -70.9264,-9.92174 c 5.43849,-4.80389 10.47209,-8.15038 11.1858,-7.43668 0.7137,0.7137 -0.93854,2.84644 -3.67164,4.73944 -2.73313,1.89297 -6.08827,4.36921 -7.4559,5.50272 -8.19607,6.79312 -8.24523,4.42615 -0.0582,-2.80548 z m 18.70777,4.94854 c 0,-0.51637 1.9582,-2.47457 4.35155,-4.35156 3.9439,-3.09303 4.03185,-3.00508 0.93884,0.93882 -3.24842,4.14206 -5.29039,5.45928 -5.29039,3.41274 z m 22.29042,-8.59892 c 1.63819,-3.19429 3.6605,-5.12586 4.49401,-4.29235 0.8335,0.83351 -0.50685,3.44703 -2.97855,5.80783 -4.29623,4.10344 -4.36292,4.03675 -1.51546,-1.51548 z m 47.89686,-4.33432 c 2.36081,-2.4648 4.82759,-3.94619 5.48177,-3.29201 0.65417,0.65417 -1.27737,2.67081 -4.29235,4.48142 -5.23755,3.14536 -5.29054,3.09237 -1.18942,-1.18941 z m -100.0265,-0.9008 c 0,-1.28691 1.11897,-3.03141 2.4866,-3.87666 1.36763,-0.84524 2.4866,0.20763 2.4866,2.33984 0,2.13216 -1.11897,3.87666 -2.4866,3.87666 -1.36763,0 -2.4866,-1.05292 -2.4866,-2.33984 z m 96.24737,-19.96512 c 2.30694,-2.69431 4.69341,-4.39982 5.30322,-3.79 1.48217,1.48218 -4.60561,8.68875 -7.33987,8.68875 -1.18678,0 -0.2703,-2.20444 2.03665,-4.89875 z m -11.70292,-2.56105 c 0,-1.36763 1.18502,-2.4866 2.63336,-2.4866 1.44835,0 1.94179,1.11897 1.09654,2.4866 -0.84524,1.36763 -2.03026,2.4866 -2.63336,2.4866 -0.6031,0 -1.09654,-1.11897 -1.09654,-2.4866 z m 9.97719,-9.32476 c 0.0174,-1.02572 3.83451,-4.32815 8.48354,-7.33873 6.59454,-4.27046 8.73665,-4.73387 9.74427,-2.10804 1.72103,4.48486 -0.46741,6.33852 -7.48333,6.33852 -3.19113,0 -5.80206,1.11897 -5.80206,2.4866 0,1.36763 -1.11897,2.4866 -2.4866,2.4866 -1.36763,0 -2.47275,-0.83922 -2.45582,-1.86495 z m -197.06337,268.10794 c -1.9717,-2.81501 -4.32377,-4.37933 -5.22681,-3.47627 -2.84693,2.84694 -1.78627,5.78625 2.08798,5.78625 2.05144,0 3.7299,1.30546 3.7299,2.90104 0,1.59555 0.67362,2.2274 1.49693,1.40409 0.82332,-0.82332 -0.11637,-3.8001 -2.088,-6.61511 z m 355.46929,-12.463 c -2.65027,-7.02136 -11.77585,-11.89329 -16.64295,-8.88525 -1.21023,0.74797 -2.8308,0.33997 -3.60127,-0.90666 -0.77045,-1.24663 0.27119,-2.90823 2.31478,-3.69243 4.27407,-1.64011 5.10006,-11.52831 0.96298,-11.52831 -1.51394,0 -2.08626,1.73657 -1.27177,3.85906 0.89751,2.33887 0.45082,3.22244 -1.13397,2.24301 -2.59041,-1.60097 -12.24783,5.42699 -12.24783,8.91305 0,0.99623 2.51769,2.35738 5.59486,3.02475 3.07717,0.66738 7.73661,2.10695 10.35431,3.19904 3.5756,1.49174 4.26265,1.18178 2.76214,-1.24611 -1.34177,-2.17103 -0.86353,-2.85382 1.45702,-2.08031 1.89991,0.63331 3.45439,2.20469 3.45439,3.49196 0,2.72986 6.69565,10.68838 9.10877,10.82678 0.90691,0.052 0.40676,-3.19632 -1.11146,-7.21858 z m 13.12493,2.96162 c -0.0473,-6.34262 -5.7127,-20.7444 -7.45384,-18.94763 -2.97335,3.06832 -0.0149,16.14772 3.20142,14.15918 1.63402,-1.00988 2.02547,-0.0602 1.03699,2.5156 -0.87329,2.27578 -0.50396,4.1378 0.82073,4.1378 1.32471,0 2.40233,-0.83923 2.3947,-1.86495 z m -378.93383,-9.89461 c -2.52768,-2.52766 -4.61327,1.27784 -2.53937,4.63348 1.56664,2.5349 2.15236,2.53686 2.99462,0.01 0.57589,-1.72767 0.37102,-3.81723 -0.45525,-4.64353 z m 172.55978,1.81316 c 0,-1.36764 -1.18502,-2.48661 -2.63336,-2.48661 -1.44835,0 -1.94179,1.11897 -1.09655,2.48661 0.84525,1.36763 2.03026,2.4866 2.63336,2.4866 0.6031,0 1.09655,-1.11897 1.09655,-2.4866 z m 149.19609,-12.52049 c 0,-1.31952 -1.67846,-2.39912 -3.72991,-2.39912 -2.05144,0 -3.7299,0.46797 -3.7299,1.03992 0,0.57197 -0.72914,2.94008 -1.62034,5.26249 -1.39899,3.64573 -0.88948,3.83138 3.7299,1.35918 2.94264,-1.57484 5.35025,-3.94296 5.35025,-5.26247 z m 14.17957,-0.40032 c 4.50992,-4.37117 8.19984,-9.48646 8.19984,-11.36732 0,-4.77204 5.3211,-9.28099 10.95266,-9.28099 2.60489,0 5.01445,-1.67846 5.3546,-3.72991 0.34014,-2.05144 1.40575,-5.6881 2.36804,-8.08145 2.87861,-7.15962 -2.69337,-4.91373 -6.16919,2.4866 -1.94832,4.1482 -3.66771,5.57461 -4.37085,3.62611 -0.94724,-2.62498 -1.87099,-2.62498 -5.05429,0 -3.4832,2.8723 -3.55084,2.55454 -0.63965,-3.00446 3.21202,-6.13345 3.1877,-6.15633 -1.82161,-1.71295 -2.79243,2.47696 -5.56929,3.59593 -6.17077,2.48661 -0.60151,-1.10933 -0.84204,-0.85112 -0.53452,0.5738 0.30754,1.42493 -0.99484,4.71597 -2.89414,7.31342 -1.89931,2.59746 -3.45329,6.18724 -3.45329,7.97729 0,5.14446 4.46902,3.78727 6.27599,-1.90595 2.31723,-7.30101 4.24932,-4.22822 2.27857,3.62387 -1.30803,5.21157 -3.12099,6.50992 -9.09017,6.50992 -5.60619,0 -7.10114,0.92549 -6.02496,3.72991 0.78721,2.05144 0.34743,3.7299 -0.97726,3.7299 -1.32471,0 -2.40857,1.11897 -2.40857,2.4866 0,4.75908 6.03197,2.43598 14.17957,-5.461 z m -26.554,1.4247 c 2.06535,-2.06597 1.0262,-3.23621 -3.99221,-4.49575 -6.10699,-1.53274 -10.80642,1.11186 -10.94791,6.161 -0.0704,2.51453 12.11994,1.15577 14.94012,-1.66525 z m -135.57836,-5.91011 c 0.84524,-1.36763 0.3518,-2.4866 -1.09654,-2.4866 -1.44835,0 -2.63337,1.11897 -2.63337,2.4866 0,1.36764 0.49345,2.48661 1.09655,2.48661 0.6031,0 1.78811,-1.11897 2.63336,-2.48661 z m -18.64951,-2.4866 c 0,-1.36763 -0.49345,-2.4866 -1.09655,-2.4866 -0.6031,0 -1.78811,1.11897 -2.63336,2.4866 -0.84524,1.36763 -0.3518,2.4866 1.09654,2.4866 1.44835,0 2.63337,-1.11897 2.63337,-2.4866 z m 206.62594,-1.5301 c 2.88411,-3.47513 2.70147,-3.89422 -1.35443,-3.10825 -2.57838,0.49965 -5.1537,2.30716 -5.72291,4.0167 -1.47694,4.43583 3.13309,3.84409 7.07734,-0.90845 z m 57.9026,0.15765 c 0.84915,-2.21288 0.4323,-3.211 -0.97726,-2.33984 -1.35196,0.83554 -2.45813,2.57214 -2.45813,3.85905 0,3.5768 1.78232,2.78863 3.43539,-1.51921 z m -65.60042,-6.35339 c 0,-3.57479 -4.31456,-2.55044 -5.82382,1.3827 -0.92417,2.40832 -0.18774,3.14473 2.22056,2.22056 1.98179,-0.76048 3.60326,-2.38194 3.60326,-3.60326 z m -26.28694,-1.15488 c 5.73682,-5.73681 4.77196,-10.07859 -1.06568,-4.79558 -2.73526,2.47538 -4.9732,5.44622 -4.9732,6.6019 0,3.07995 1.64451,2.58805 6.03888,-1.80632 z m -106.65352,-8.01832 c -2.18806,-2.18806 -6.33897,4.89281 -4.55774,7.77488 0.78283,1.26665 2.49001,0.39691 3.79376,-1.93273 1.30372,-2.32965 1.64752,-4.95861 0.76398,-5.84215 z m 132.52156,-16.59645 c -3.25013,-7.13326 0.55971,-13.74994 7.91714,-13.74994 2.42148,0 5.00874,-1.57936 5.7495,-3.50971 1.07406,-2.79899 -0.1308,-3.0859 -5.95049,-1.41686 -5.03278,1.44337 -7.29725,1.21189 -7.29725,-0.74598 0,-1.56134 -2.23795,1.55079 -4.97321,6.91586 -5.68521,11.15118 -5.91348,12.06434 -2.4866,9.9464 1.36763,-0.84524 2.4866,-0.44505 2.4866,0.88933 0,1.33439 -0.83923,2.89548 -1.86495,3.46911 -1.02572,0.57364 -0.46624,0.70202 1.2433,0.28526 1.70954,-0.41675 3.10825,0.32615 3.10825,1.65083 0,1.32472 1.09498,2.40858 2.43329,2.40858 1.48801,0 1.34598,-2.38642 -0.36558,-6.14288 z m 6.89443,-5.61668 c -2.52768,-2.52766 -4.61327,1.27786 -2.53937,4.63348 1.56664,2.53489 2.15235,2.53685 2.99462,0.01 0.57589,-1.72765 0.37102,-3.81724 -0.45525,-4.64351 z m -32.015,2.79742 c -0.82629,-0.82627 -2.97099,-0.91459 -4.76599,-0.19644 -1.98364,0.7938 -1.39444,1.38302 1.50233,1.50233 2.62128,0.10792 4.08994,-0.47974 3.26366,-1.30601 z m -335.05582,-10.45578 c -0.0328,-3.62365 -0.37123,-3.6893 -2.44853,-0.4749 -3.14705,4.86969 -3.14705,8.16148 0,6.21651 1.36763,-0.84525 2.46946,-3.42898 2.44853,-5.74161 z m 350.64888,-3.8186 c 0,-1.23114 -1.57884,-0.92813 -3.50852,0.67337 -1.94557,1.61467 -4.12321,1.91727 -4.88834,0.67924 -0.75891,-1.22791 1.37942,-3.70927 4.75183,-5.51414 6.72006,-3.59645 8.51842,-8.86235 2.19835,-6.43712 -2.16329,0.83013 -4.96072,1.50935 -6.2165,1.50935 -1.25576,0 -2.28323,1.67845 -2.28323,3.7299 0,2.05145 -1.39871,3.76548 -3.10825,3.80898 -2.05304,0.0522 -1.7679,1.10745 0.8399,3.10825 2.17148,1.66605 3.44481,4.52429 2.82963,6.35165 -0.69893,2.07616 0.85154,1.63566 4.1333,-1.17427 2.88851,-2.4732 5.25183,-5.50405 5.25183,-6.73521 z m 17.40621,-9.23606 c 0,-2.81598 -1.11897,-4.42839 -2.4866,-3.58315 -1.36763,0.84525 -2.4866,3.14924 -2.4866,5.11997 0,1.97073 1.11897,3.58314 2.4866,3.58314 1.36763,0 2.4866,-2.30399 2.4866,-5.11996 z m -6.2165,-7.31305 c 0.84524,-1.36763 0.3518,-2.4866 -1.09654,-2.4866 -1.44835,0 -2.63337,1.11897 -2.63337,2.4866 0,1.36763 0.49345,2.4866 1.09655,2.4866 0.6031,0 1.78811,-1.11897 2.63336,-2.4866 z m 5.37673,-10.56805 c -0.68981,-1.70954 -1.25422,-0.31083 -1.25422,3.10825 0,3.41908 0.56441,4.81779 1.25422,3.10825 0.6898,-1.70954 0.6898,-4.50697 0,-6.2165 z m 7.05627,5.59485 c 0.84525,-1.36763 0.35181,-2.4866 -1.09654,-2.4866 -1.44834,0 -2.63336,1.11897 -2.63336,2.4866 0,1.36763 0.49344,2.4866 1.09654,2.4866 0.6031,0 1.78812,-1.11897 2.63336,-2.4866 z m -16.10206,-7.57352 c 2.51435,-4.69808 2.33094,-4.84243 -2.3991,-1.88845 -5.38108,3.36052 -6.79192,6.97537 -2.72243,6.97537 1.31952,0 3.6242,-2.28912 5.12153,-5.08692 z m 15.92445,-8.76701 c 4.30005,-4.30005 5.36648,-9.72067 1.43429,-7.29044 -2.78293,1.71993 -8.28031,11.19796 -6.49498,11.19796 0.63424,0 2.91157,-1.75837 5.06069,-3.90752 z m -16.72695,-12.58262 c -1.63044,-1.63044 -11.69135,9.19696 -11.69135,12.58205 0,1.43768 2.91064,-0.52505 6.46812,-4.3616 3.55746,-3.83655 5.90792,-7.53577 5.22323,-8.22045 z m 7.65438,6.49572 c 1.69171,-2.70885 2.31523,-4.92519 1.38559,-4.92519 -2.48101,0 -10.78492,7.89491 -10.78492,10.25375 0,3.38337 6.12831,-0.0908 9.39933,-5.32856 z m 12.90101,-13.18426 c 0.0435,-1.1234 -1.59938,-0.36411 -3.65083,1.68733 -2.05144,2.05145 -3.7299,5.14267 -3.7299,6.86939 0,3.34035 7.24531,-5.05939 7.38073,-8.55672 z m -16.1323,-1.21438 c 0.77485,-2.01925 0.85005,-4.23013 0.1671,-4.9131 -1.45754,-1.45755 -8.82174,4.23296 -8.82174,6.81679 0,3.35336 7.24919,1.75882 8.65464,-1.90369 z m 8.75157,-0.47295 c 0,-1.36763 -0.49344,-2.4866 -1.09654,-2.4866 -0.6031,0 -1.78811,1.11897 -2.63336,2.4866 -0.84525,1.36763 -0.3518,2.4866 1.09654,2.4866 1.44835,0 2.63336,-1.11897 2.63336,-2.4866 z m 38.54233,-12.43301 c 0.84524,-1.36763 0.3518,-2.4866 -1.09655,-2.4866 -1.44834,0 -2.63336,1.11897 -2.63336,2.4866 0,1.36763 0.49344,2.4866 1.09654,2.4866 0.6031,0 1.78812,-1.11897 2.63337,-2.4866 z m -7.00449,-20.35905 c -0.79377,-1.98364 -1.383,-1.39444 -1.5023,1.50233 -0.10792,2.62128 0.47971,4.08994 1.30601,3.26366 0.82627,-0.82629 0.9146,-2.97099 0.19619,-4.76599 z m -43.97085,-2.02036 c 0,-1.36763 -1.18501,-2.48661 -2.63336,-2.48661 -1.44834,0 -1.94178,1.11898 -1.09654,2.48661 0.84525,1.36763 2.03026,2.4866 2.63336,2.4866 0.6031,0 1.09654,-1.11897 1.09654,-2.4866 z m 24.02624,-10.56806 c -0.6898,-1.70954 -1.25421,-0.31083 -1.25421,3.10825 0,3.41908 0.56441,4.81779 1.25421,3.10825 0.68981,-1.70954 0.68981,-4.50696 0,-6.2165 z m -2.69343,-5.43631 c 1.96424,-1.96426 2.71121,-4.10297 1.6599,-4.75271 -2.598,-1.60565 -10.89636,4.67195 -8.86331,6.70499 2.30435,2.30436 3.18558,2.06552 7.20341,-1.95228 z m 24.74651,-3.76357 c -0.91527,-1.48092 -2.82526,-1.97498 -4.24438,-1.09791 -1.67068,1.03254 -1.41635,2.31401 0.72146,3.63526 3.9904,2.46619 5.80676,1.15799 3.52292,-2.53735 z m -34.77189,-2.80193 c 1.78846,-2.8938 -8.61294,-13.92723 -12.06845,-12.80174 -2.4827,0.80864 0.33706,-9.57852 3.52709,-12.99279 2.52338,-2.70075 3.0684,-8.03096 0.56521,-5.52779 -0.90303,0.90306 -3.20443,-0.5889 -5.11419,-3.31546 -4.8635,-6.94364 -9.64138,-6.34414 -5.0805,0.63746 2.7222,4.16705 3.00839,7.03865 1.12133,11.25237 -2.15146,4.80416 -1.35023,6.81453 5.31195,13.32801 4.31505,4.21879 7.23002,8.66645 6.4777,9.88374 -0.75232,1.2173 -0.24889,2.21325 1.11875,2.21325 1.36763,0 3.23111,-1.20468 4.14111,-2.67705 z m 30.88573,-6.6477 c -0.10892,-2.56675 -6.33482,-10.56806 -8.2232,-10.56806 -0.84564,0 -0.26293,2.79743 1.2949,6.21651 2.63339,5.77965 7.10803,8.59008 6.9283,4.35155 z m -31.43604,-16.02702 c -2.32139,-5.20247 -2.52597,-4.99787 -2.74616,2.74615 -0.17356,6.10553 0.50444,7.62507 2.50826,5.62124 1.9068,-1.9068 1.97951,-4.46429 0.23797,-8.36739 z m -34.75446,-3.16452 c 0.7704,-2.00763 0.45786,-4.23299 -0.69456,-4.94523 -1.15241,-0.71224 -2.67725,0.93039 -3.38852,3.65028 -1.48654,5.68452 1.9771,6.78303 4.08308,1.29495 z m -27.07345,-7.23198 c 2.44475,0.93814 3.82537,0.0547 3.82537,-2.44789 0,-6.61702 -11.08567,-0.84122 -11.78659,6.14101 l -0.59686,5.94584 2.36637,-5.55345 c 1.52411,-3.57678 3.72794,-5.03095 6.19171,-4.08551 z m -238.61828,3.42245 c 0.84524,-1.36763 -0.27373,-2.4866 -2.4866,-2.4866 -2.21288,0 -3.33185,1.11897 -2.4866,2.4866 0.84524,1.36764 1.96421,2.48661 2.4866,2.48661 0.52238,0 1.64135,-1.11897 2.4866,-2.48661 z m 281.55582,0.98428 c -0.82629,-0.82628 -2.97099,-0.91463 -4.76599,-0.19645 -1.98364,0.7938 -1.39444,1.38303 1.50233,1.50233 2.62127,0.10792 4.08994,-0.47974 3.26366,-1.30601 z m -10.98157,-11.14734 c -1.94664,-1.94664 -3.17092,-1.94664 -4.37399,0 -0.9189,1.48679 -0.41966,2.70326 1.1094,2.70326 1.52906,0 1.99043,1.39871 1.02525,3.10825 -1.40386,2.4866 -1.0851,2.4866 1.59389,0 2.4114,-2.23824 2.59206,-3.8649 0.64545,-5.81151 z m -13.23728,-0.99496 c 5.03495,-6.06676 1.09264,-10.59121 -11.5843,-13.29494 -6.57189,-1.40165 -12.4122,-2.08517 -12.97842,-1.51892 -1.4022,1.4022 15.44542,8.36299 17.36702,7.17539 0.84169,-0.5202 1.00207,1.81776 0.3564,5.19543 -1.31029,6.85427 2.15193,8.09098 6.8393,2.44304 z m -46.98113,-2.80509 c 2.88411,-3.47512 2.70147,-3.89422 -1.35442,-3.10825 -2.57839,0.49966 -5.15371,2.30717 -5.72292,4.01671 -1.47694,4.43582 3.1331,3.84406 7.07734,-0.90846 z m 79.19717,0.12284 c -2.80879,-3.38436 -15.26669,-11.02574 -17.97552,-11.02574 -0.5238,0 -0.95237,1.67846 -0.95237,3.7299 0,2.05145 2.05145,3.7299 4.55879,3.7299 2.50731,0 4.55876,1.03692 4.55876,2.30429 0,2.03859 4.3944,4.00571 10.87251,4.86707 1.1932,0.15865 0.7152,-1.46379 -1.06217,-3.60542 z m -201.62057,-5.75526 c -0.54133,-1.57616 -2.27021,-1.77412 -4.3282,-0.49561 -1.88477,1.17089 -2.5977,3.47048 -1.58431,5.11019 2.17896,3.52563 7.32806,-0.49312 5.91251,-4.61458 z m 139.5916,3.16658 c 0,-0.5375 -1.67846,-0.97726 -3.72991,-0.97726 -2.05144,0 -3.7299,1.08386 -3.7299,2.40855 0,1.32471 1.67846,1.76449 3.7299,0.97729 2.05145,-0.78724 3.72991,-1.87107 3.72991,-2.40858 z m 34.81242,-10.92366 c 0,-1.36763 -1.11897,-2.4866 -2.4866,-2.4866 -1.36763,0 -2.48661,1.11897 -2.48661,2.4866 0,1.36763 1.11898,2.4866 2.48661,2.4866 1.36763,0 2.4866,-1.11897 2.4866,-2.4866 z m -52.21863,-1.09654 c 0,-0.6031 -1.11897,-1.78812 -2.48661,-2.63336 -1.36763,-0.84525 -2.4866,-0.35181 -2.4866,1.09654 0,1.44834 1.11897,2.63336 2.4866,2.63336 1.36764,0 2.48661,-0.49344 2.48661,-1.09654 z m -23.72129,-4.74041 c 6.37709,-4.66303 0.94785,-7.44287 -7.24546,-3.70976 -4.67951,2.13211 -5.59249,3.50849 -3.29459,4.96671 4.30303,2.73066 5.23941,2.61899 10.54005,-1.25695 z m 39.8842,0.86374 c -0.84525,-1.36763 -3.42898,-2.46946 -5.74162,-2.44853 -3.62365,0.0328 -3.68929,0.37123 -0.47489,2.44853 4.86969,3.14705 8.16148,3.14705 6.21651,0 z m -94.75521,-8.91088 c 0.92932,-2.42173 0.37359,-3.55853 -1.4435,-2.95284 -3.71707,1.23902 -5.76367,6.89052 -2.4953,6.89052 1.33528,0 3.10773,-1.77195 3.9388,-3.93768 z m -17.22723,-15.58249 c -1.4011,-1.4749 -6.13114,2.26316 -6.13114,4.84534 0,1.34085 1.56559,0.99507 3.47911,-0.76838 1.91351,-1.76347 3.10693,-3.59809 2.65203,-4.07696 z m 20.45183,-2.208 c -3.82599,-3.82596 -4.20355,-3.83926 -4.20355,-0.14795 0,2.23053 1.39871,4.55508 3.10825,5.16561 5.08062,1.81453 5.5907,-0.52218 1.0953,-5.01761 z"
       id="path4989"
       inkscape:connector-curvature="0" />
  </g>
</svg>
