<?xml version="1.0" standalone="no"?><!DOCTYPE svg PUBLIC "-//W3C//DTD SVG 1.1//EN" "http://www.w3.org/Graphics/SVG/1.1/DTD/svg11.dtd"><svg class="icon" height="512" viewBox="0 0 1024 1024" version="1.1" xmlns="http://www.w3.org/2000/svg"><path d="M515.026 952.752c-248.718 0-451.060-202.342-451.060-451.060s202.342-451.060 451.060-451.060 451.060 202.342 451.060 451.060c0.022 248.718-202.32 451.060-451.060 451.060zM515.026 96.142c-223.619 0-405.55 181.931-405.55 405.55s181.931 405.55 405.55 405.55 405.55-181.931 405.55-405.55-181.931-405.55-405.55-405.55z"  /><path d="M515.072 617.494c113.072 0 160.814 99.009 162.794 103.219 0.789 1.862 1.249 4.028 1.249 6.301 0 9.124-7.396 16.521-16.521 16.521-6.283 0-11.747-3.507-14.541-8.671-1.705-3.547-41.231-84.374-132.959-84.374-100.101 0-131.118 80.782-132.415 84.219-2.371 6.399-8.422 10.878-15.519 10.878-9.118 0-16.51-7.392-16.51-16.51 0-2.020 0.363-3.956 1.027-5.746 0.327-0.91 39.603-105.836 163.393-105.836zM679.412 346.681c0.006 0 0.015 0 0.022 0 36.333 0 65.787 29.454 65.787 65.787 0 36.324-29.441 65.774-65.762 65.787-0.009 0-0.016 0-0.025 0-36.333 0-65.787-29.454-65.787-65.787 0-36.324 29.441-65.774 65.762-65.787zM350.572 346.681c0.003 0 0.007 0 0.012 0 36.32 0 65.763 29.443 65.763 65.763 0 36.316-29.437 65.757-65.751 65.763-0.004 0-0.009 0-0.012 0-36.32 0-65.763-29.443-65.763-65.763 0-36.316 29.437-65.757 65.751-65.763z"  /></svg>